<?xml version="1.0" encoding="utf-8"?>
<!-- Generator: Adobe Illustrator 25.2.3, SVG Export Plug-In . SVG Version: 6.00 Build 0)  -->
<svg version="1.1" id="Layer_1" xmlns="http://www.w3.org/2000/svg" xmlns:xlink="http://www.w3.org/1999/xlink" x="0px" y="0px"
	 viewBox="0 0 300 300" style="enable-background:new 0 0 300 300;" xml:space="preserve">
<style type="text/css">
	.st0{fill:none;stroke:#00517D;stroke-width:4;stroke-linecap:round;stroke-linejoin:round;}
	.st1{fill:#00AEEF;}
</style>
<g id="Available">
	<path class="st0" d="M196.91,228.59c0.05,6.56-5.17,11.94-11.73,12.09h-70.36c-6.56-0.15-11.78-5.53-11.73-12.09V71.41
		c-0.05-6.56,5.17-11.94,11.73-12.09h70.36c6.56,0.15,11.78,5.53,11.73,12.09L196.91,228.59z"/>
	<line class="st0" x1="140.62" y1="78.08" x2="159.38" y2="78.08"/>
	<circle class="st0" cx="150.31" cy="225.05" r="3.13"/>
	<path class="st1" d="M128.71,140c-2.07-0.01-3.75,1.67-3.76,3.74c0,0,0,0.01,0,0.01v17.54c0,2.08,1.68,3.76,3.76,3.76
		c2.08,0,3.76-1.68,3.76-3.76c0,0,0,0,0-0.01v-17.55C132.46,141.67,130.78,140,128.71,140z"/>
	<path class="st1" d="M171.29,140c-2.07,0-3.75,1.68-3.76,3.75v17.54c0,2.08,1.68,3.76,3.76,3.76c2.08,0,3.76-1.68,3.76-3.76v-17.55
		C175.04,141.67,173.36,139.99,171.29,140C171.29,140,171.29,140,171.29,140z"/>
	<path class="st1" d="M163.78,140h-27.56c-0.69,0-1.25,0.56-1.25,1.25v20c0,2.97,2.09,5.54,5,6.14v8.89c0,2.08,1.68,3.76,3.76,3.76
		c2.08,0,3.76-1.68,3.76-3.76v-8.77h5v8.77c-0.11,2.07,1.49,3.84,3.56,3.95c2.07,0.11,3.84-1.49,3.95-3.56
		c0.01-0.13,0.01-0.26,0-0.39v-8.89c2.91-0.6,5-3.17,5-6.14v-20C165,140.57,164.46,140.02,163.78,140z"/>
	<path class="st1" d="M159.11,125.14l3-3c0.5-0.48,0.51-1.27,0.03-1.77s-1.27-0.51-1.77-0.03l0,0l0,0l-3.56,3.55
		c-4.36-1.89-9.3-1.89-13.66,0l-3.56-3.56c-0.49-0.49-1.28-0.49-1.77,0c-0.49,0.49-0.49,1.28,0,1.77l0,0l3,3.06
		c-3.67,2.48-5.85,6.64-5.82,11.07c0,0.69,0.56,1.25,1.25,1.25h27.56c0.69,0,1.25-0.56,1.25-1.25
		C165.07,131.77,162.84,127.6,159.11,125.14z M143.74,132.47c-0.69,0-1.25-0.56-1.25-1.25s0.56-1.25,1.25-1.25s1.25,0.56,1.25,1.25
		S144.43,132.47,143.74,132.47z M156.26,132.47c-0.69,0-1.25-0.56-1.25-1.25s0.56-1.25,1.25-1.25s1.25,0.56,1.25,1.25
		S156.95,132.47,156.26,132.47L156.26,132.47L156.26,132.47z"/>
</g>
</svg>
