<?xml version="1.0" encoding="utf-8"?>
<!DOCTYPE svg PUBLIC "-//W3C//DTD SVG 20010904//EN" "http://www.w3.org/TR/2001/REC-SVG-20010904/DTD/svg10.dtd">
<svg version="1.0" xmlns="http://www.w3.org/2000/svg" width="600pt" height="450pt" viewBox="0 0 600 450" style="" preserveAspectRatio="xMidYMid meet">
<g fill="#2E3340FF" stroke="#2E3340FF">
<path d="M 338.337 119.514 C 331.928 123.356 330.000 128.289 330.000 140.843 L 330.000 151.054 272.637 150.914 C 221.192 150.789 215.018 150.942 212.791 152.401 C 208.758 155.044 208.000 158.153 208.000 172.047 L 208.000 185.000 155.135 185.000 C 104.088 185.000 102.184 185.068 99.770 186.966 C 94.981 190.733 94.926 191.418 95.222 243.358 L 95.500 292.165 98.766 295.083 L 102.032 298.000 171.093 298.000 L 240.154 298.000 243.077 295.077 C 245.825 292.329 246.000 291.671 246.000 284.077 L 246.000 276.000 288.000 276.000 L 330.000 276.000 330.000 280.343 C 330.000 286.364 333.662 292.938 338.575 295.734 C 342.442 297.934 343.049 297.967 379.912 297.984 L 417.324 298.000 421.566 295.514 C 426.371 292.699 429.981 286.479 430.030 280.934 C 430.077 275.706 431.695 279.320 433.004 287.578 C 433.608 291.385 434.770 295.175 435.587 296.000 C 437.555 297.989 463.850 298.199 466.204 296.245 C 467.082 295.517 467.983 292.439 468.352 288.910 C 469.175 281.028 471.443 276.397 475.931 273.427 C 483.192 268.622 483.465 267.462 483.792 240.000 C 484.077 216.140 484.025 215.383 481.792 211.008 C 480.532 208.538 477.925 205.472 476.000 204.195 C 471.491 201.206 469.260 196.782 468.284 188.892 C 467.253 180.566 466.144 180.003 451.000 180.114 C 434.566 180.236 434.741 180.152 433.326 188.541 C 430.624 204.560 430.128 201.101 430.063 165.815 C 430.023 143.897 429.608 130.094 428.936 128.315 C 427.489 124.484 423.174 120.042 419.282 118.377 C 416.743 117.290 408.307 117.002 379.282 117.009 L 342.500 117.019 338.337 119.514 M 354.000 123.500 C 354.000 124.325 354.900 125.900 356.000 127.000 C 357.873 128.873 359.333 129.000 379.066 129.000 C 392.002 129.000 400.896 128.591 402.114 127.939 C 403.204 127.356 404.513 125.781 405.023 124.439 C 405.829 122.320 406.577 122.002 410.725 122.015 C 416.668 122.033 419.793 123.570 422.720 127.912 L 425.000 131.296 425.000 207.198 C 425.000 289.824 425.236 286.310 419.385 290.912 C 416.802 292.944 415.736 293.000 379.850 293.000 L 342.971 293.000 339.235 289.577 L 335.500 286.154 335.500 207.657 L 335.500 129.161 338.000 126.471 C 341.223 123.003 343.423 122.141 349.250 122.063 C 352.834 122.016 354.000 122.368 354.000 123.500 M 330.000 207.500 L 330.000 260.000 271.500 260.000 L 213.000 260.000 213.000 209.057 L 213.000 158.113 215.223 156.557 C 217.170 155.193 224.405 155.000 273.723 155.000 L 330.000 155.000 330.000 207.500 M 208.000 228.550 C 208.000 271.256 208.014 271.355 214.357 274.365 C 216.930 275.586 220.737 276.000 229.401 276.000 L 241.000 276.000 241.000 283.300 C 241.000 287.644 240.514 291.086 239.800 291.800 C 238.890 292.710 222.205 293.000 170.823 293.000 L 103.046 293.000 101.495 290.632 C 100.137 288.560 99.978 282.297 100.222 240.551 C 100.489 194.645 100.574 192.784 102.441 191.419 C 104.058 190.237 113.034 190.000 156.191 190.000 L 208.000 190.000 208.000 228.550 M 473.102 208.285 C 478.284 211.769 478.880 214.880 478.944 238.782 C 479.005 262.005 478.479 264.905 473.486 268.832 C 470.864 270.895 469.742 271.000 450.365 271.000 L 430.000 271.000 430.000 239.083 C 430.000 214.486 430.287 207.051 431.250 206.662 C 431.938 206.385 440.871 206.122 451.102 206.079 C 468.886 206.003 469.854 206.101 473.102 208.285 "/></g>
<g fill="#EC6476FF" stroke="#EC6476FF">
<path d="M 221.000 155.680 C 226.790 156.275 229.115 157.005 228.482 158.029 C 228.152 158.563 228.509 159.000 229.274 159.000 C 230.040 159.000 230.715 159.563 230.775 160.250 C 230.939 162.152 231.837 165.612 231.923 164.679 C 231.966 164.227 232.748 164.605 233.662 165.519 C 235.074 166.931 235.111 167.333 233.912 168.185 C 232.813 168.966 232.908 169.056 234.343 168.590 C 235.643 168.168 236.339 168.582 236.709 169.996 C 236.997 171.098 237.518 172.000 237.867 172.000 C 238.215 172.000 238.500 188.631 238.500 208.957 C 238.500 244.744 238.563 245.962 240.500 247.425 C 242.138 248.663 246.429 248.942 264.227 248.968 L 285.954 249.000 287.714 251.750 C 288.682 253.263 290.071 255.124 290.801 255.886 C 291.533 256.649 291.746 257.654 291.276 258.124 C 290.807 258.593 272.891 259.099 251.462 259.250 C 221.945 259.458 226.317 259.560 269.500 259.672 C 304.066 259.761 325.298 259.470 323.445 258.932 C 321.258 258.296 319.996 257.039 319.001 254.503 C 318.237 252.556 317.152 251.116 316.589 251.304 C 316.026 251.491 315.478 251.050 315.371 250.322 C 315.225 249.327 317.011 249.000 322.588 249.000 C 329.286 249.000 330.000 248.811 330.000 247.038 C 330.000 245.254 329.178 245.049 320.994 244.788 C 315.849 244.623 311.989 244.071 311.989 243.500 C 311.989 242.929 315.849 242.377 320.994 242.212 L 330.000 241.925 330.000 228.462 L 330.000 215.000 311.333 215.000 C 301.067 215.000 292.963 214.704 293.325 214.342 C 293.687 213.980 293.481 213.080 292.869 212.342 C 291.947 211.231 293.922 211.000 304.319 211.000 C 312.721 211.000 317.150 210.616 317.691 209.840 C 318.305 208.959 318.440 208.959 318.250 209.840 C 318.082 210.619 319.970 211.000 324.000 211.000 L 330.000 211.000 330.000 198.033 L 330.000 185.067 304.864 184.783 L 279.728 184.500 278.704 186.748 C 277.694 188.966 277.651 188.951 275.341 185.551 C 274.053 183.656 273.000 181.857 273.000 181.553 C 273.000 181.249 285.846 181.000 301.548 181.000 L 330.095 181.000 329.798 174.750 L 329.500 168.500 297.533 168.236 L 265.567 167.971 262.783 164.924 C 261.253 163.248 260.000 161.154 260.000 160.272 C 260.000 159.389 259.691 158.975 259.314 159.352 C 258.937 159.729 258.491 159.135 258.323 158.031 C 258.021 156.058 258.619 156.020 294.258 155.750 C 315.444 155.589 307.027 155.442 274.000 155.397 C 242.925 155.355 219.075 155.482 221.000 155.680 M 246.046 202.557 C 245.972 213.291 246.338 220.762 246.998 221.996 C 247.975 223.822 249.086 224.000 259.504 224.000 C 269.961 224.000 270.885 224.149 270.321 225.750 C 269.808 227.210 269.937 227.284 271.103 226.200 C 271.871 225.485 272.522 225.260 272.549 225.700 C 272.670 227.659 274.369 231.564 275.385 232.214 C 275.998 232.606 276.538 233.281 276.584 233.714 C 276.811 235.848 279.272 240.484 280.789 241.637 C 281.730 242.352 282.050 242.958 281.500 242.984 C 280.950 243.009 281.175 243.473 282.000 244.013 C 283.002 244.669 276.859 244.913 263.500 244.747 L 243.500 244.500 243.235 214.511 C 242.966 184.099 243.225 179.880 245.151 183.311 C 245.745 184.370 246.117 192.359 246.046 202.557 "/></g>
<g fill="#4585EBFF" stroke="#4585EBFF">
<path d="M 424.239 185.000 C 424.108 185.550 423.438 186.003 422.750 186.006 C 422.063 186.010 420.150 186.754 418.500 187.660 C 416.419 188.802 413.470 189.244 408.874 189.101 C 401.583 188.874 399.000 190.268 399.000 194.428 C 399.000 196.236 397.822 197.245 393.352 199.268 L 387.703 201.824 387.570 197.162 C 387.466 193.534 387.388 193.332 387.218 196.250 C 387.067 198.845 386.531 200.000 385.479 200.000 C 384.642 200.000 383.486 201.013 382.910 202.250 C 382.335 203.488 380.207 205.241 378.182 206.146 C 365.522 211.807 361.000 214.264 361.000 215.484 C 361.000 216.244 360.093 217.153 358.985 217.505 C 357.877 217.856 357.272 218.631 357.640 219.227 C 358.047 219.886 357.840 220.019 357.111 219.568 C 356.452 219.161 355.257 219.372 354.456 220.036 C 353.378 220.932 353.000 220.944 353.000 220.083 C 353.000 218.566 348.511 222.747 348.464 224.307 C 348.445 224.963 347.820 224.562 347.077 223.415 C 346.148 221.982 344.990 221.470 343.374 221.779 C 342.081 222.026 341.266 222.622 341.564 223.103 C 341.861 223.584 341.406 223.709 340.552 223.382 C 339.698 223.054 339.000 223.284 339.000 223.893 C 339.000 224.502 338.663 224.947 338.250 224.882 C 335.107 224.385 335.000 225.078 335.000 246.000 C 335.000 264.791 335.617 269.998 337.341 265.750 C 337.737 264.773 338.052 264.791 338.785 265.835 C 339.515 266.873 339.844 266.706 340.269 265.080 C 340.644 263.646 341.327 263.188 342.448 263.619 C 343.347 263.963 344.010 263.853 343.922 263.373 C 343.835 262.893 343.816 262.682 343.882 262.905 C 343.947 263.128 344.977 262.453 346.172 261.405 C 347.529 260.214 348.020 260.063 347.480 261.000 C 346.783 262.210 346.894 262.275 348.058 261.335 C 348.851 260.694 349.950 260.078 350.500 259.965 C 352.175 259.622 355.275 258.350 362.548 255.021 C 371.191 251.066 372.103 250.809 379.500 250.257 C 386.210 249.756 388.000 248.769 388.000 245.569 C 388.000 243.809 389.365 242.809 394.996 240.441 C 398.844 238.823 401.994 237.211 401.996 236.858 C 401.998 236.506 403.233 235.907 404.740 235.529 C 406.247 235.151 407.822 234.315 408.240 233.671 C 408.795 232.816 409.266 232.905 409.985 234.000 C 410.691 235.077 410.974 235.134 410.985 234.202 C 410.993 233.488 412.463 232.268 414.250 231.491 C 416.038 230.714 417.050 230.026 416.500 229.963 C 415.950 229.899 416.323 229.691 417.328 229.501 C 418.334 229.310 419.909 228.821 420.828 228.413 C 421.748 228.006 422.950 227.634 423.500 227.586 C 424.134 227.532 424.496 219.534 424.489 205.750 C 424.483 193.788 424.371 184.450 424.239 185.000 "/></g>
<g fill="#548EF2FF" stroke="#548EF2FF">
<path d="M 424.230 136.750 C 424.104 137.438 423.431 138.000 422.735 138.000 C 422.040 138.000 419.790 138.901 417.736 140.002 C 415.682 141.102 413.664 142.047 413.251 142.102 C 412.838 142.156 412.725 142.718 413.000 143.350 C 413.275 143.983 413.564 149.755 413.641 156.177 C 413.765 166.356 413.584 167.778 412.231 167.258 C 411.035 166.799 410.809 167.161 411.246 168.833 C 411.591 170.151 411.420 170.760 410.811 170.383 C 409.451 169.543 404.920 172.062 405.655 173.250 C 405.977 173.772 405.233 173.660 404.000 173.000 C 402.711 172.310 402.030 172.240 402.398 172.836 C 402.750 173.405 401.928 174.981 400.570 176.339 C 399.025 177.885 397.926 178.376 397.630 177.653 C 397.370 177.019 397.122 177.239 397.079 178.143 C 396.963 180.554 394.917 181.000 383.977 181.000 C 377.436 181.000 373.871 180.600 373.383 179.811 C 372.979 179.156 372.457 174.769 372.225 170.061 C 371.992 165.352 371.697 161.388 371.568 161.251 C 371.440 161.114 369.122 162.125 366.418 163.497 C 363.713 164.869 360.848 165.994 360.050 165.996 C 358.922 165.999 358.867 166.267 359.800 167.200 C 361.050 168.450 361.448 176.668 360.393 179.418 C 359.945 180.586 358.395 181.000 354.475 181.000 C 347.158 181.000 346.000 180.389 346.000 176.532 C 346.000 173.604 345.750 173.325 343.512 173.753 C 342.143 174.015 341.266 174.622 341.564 175.103 C 341.861 175.584 341.406 175.709 340.552 175.382 C 339.698 175.054 339.000 175.284 339.000 175.893 C 339.000 176.502 338.663 176.947 338.250 176.882 C 335.087 176.382 335.000 177.028 335.000 200.938 C 335.000 224.259 335.052 224.872 337.000 224.725 C 338.100 224.642 339.000 224.172 339.000 223.680 C 339.000 223.188 339.698 223.054 340.552 223.382 C 341.406 223.709 341.861 223.584 341.564 223.103 C 341.266 222.622 342.081 222.026 343.374 221.779 C 344.990 221.470 346.148 221.982 347.077 223.415 C 347.820 224.562 348.445 224.963 348.464 224.307 C 348.511 222.747 353.000 218.566 353.000 220.083 C 353.000 220.944 353.378 220.932 354.456 220.036 C 355.257 219.372 356.452 219.161 357.111 219.568 C 357.840 220.019 358.047 219.886 357.640 219.227 C 357.272 218.631 357.877 217.856 358.985 217.505 C 360.093 217.153 361.000 216.244 361.000 215.484 C 361.000 214.264 365.522 211.807 378.182 206.146 C 380.207 205.241 382.335 203.488 382.910 202.250 C 383.486 201.013 384.617 200.000 385.424 200.000 C 386.454 200.000 387.002 198.587 387.265 195.250 L 387.640 190.500 387.820 195.750 C 387.919 198.638 388.438 201.000 388.973 201.000 C 389.509 201.000 391.984 200.010 394.473 198.801 C 398.221 196.980 399.000 196.125 399.000 193.836 C 399.000 190.101 401.675 188.859 409.281 189.063 C 413.364 189.172 416.530 188.677 418.500 187.621 C 420.150 186.736 422.054 186.010 422.731 186.006 C 424.806 185.996 425.075 182.345 424.762 158.500 C 424.596 145.850 424.357 136.063 424.230 136.750 M 359.800 190.200 C 361.290 191.690 361.414 202.000 359.941 202.000 C 359.359 202.000 359.188 202.495 359.562 203.100 C 360.012 203.828 359.484 203.794 358.000 203.000 C 356.367 202.126 355.952 202.114 356.473 202.956 C 356.987 203.787 355.690 204.025 351.843 203.805 L 346.500 203.500 346.196 197.612 C 346.029 194.374 346.127 191.111 346.415 190.362 C 347.083 188.621 358.088 188.488 359.800 190.200 "/></g>
<g fill="#9B4FB9FF" stroke="#9B4FB9FF">
<path d="M 172.750 192.083 C 171.788 193.138 171.000 194.418 171.000 194.929 C 171.000 195.440 169.425 197.528 167.500 199.569 C 165.575 201.610 164.000 203.619 164.000 204.033 C 164.000 204.447 163.213 205.150 162.250 205.595 C 160.668 206.327 160.692 206.418 162.500 206.540 L 164.500 206.674 162.500 207.525 C 159.997 208.590 157.995 211.184 158.743 212.393 C 159.054 212.897 158.789 212.987 158.153 212.594 C 157.449 212.159 156.615 212.882 156.023 214.440 C 155.488 215.848 154.562 217.000 153.966 217.000 C 153.370 217.000 153.109 217.368 153.387 217.818 C 153.665 218.268 153.017 219.267 151.946 220.039 C 150.876 220.810 150.000 221.993 150.000 222.666 C 150.000 223.417 148.165 224.008 145.250 224.195 L 140.500 224.500 140.510 230.750 C 140.515 234.188 140.178 237.056 139.760 237.125 C 139.342 237.194 138.663 237.306 138.250 237.375 C 137.838 237.444 137.500 238.160 137.500 238.967 C 137.500 239.773 136.118 241.815 134.429 243.504 C 132.740 245.193 131.540 247.121 131.763 247.788 C 131.985 248.454 131.484 249.000 130.651 249.000 C 129.817 249.000 128.849 248.100 128.500 247.000 C 127.970 245.330 126.987 245.000 122.540 245.000 C 116.613 245.000 116.000 245.645 116.000 251.882 C 116.000 256.153 117.419 258.000 120.700 258.000 C 123.633 258.000 123.581 258.916 120.483 261.855 C 119.117 263.150 118.000 264.864 118.000 265.664 C 118.000 266.464 117.597 266.869 117.105 266.565 C 116.356 266.102 114.904 268.096 114.586 270.024 C 114.539 270.312 113.258 271.887 111.739 273.524 C 110.220 275.161 108.728 277.288 108.422 278.250 C 108.116 279.213 107.446 280.000 106.933 280.000 C 106.420 280.000 106.000 280.675 106.000 281.500 C 106.000 282.325 105.502 283.000 104.893 283.000 C 104.284 283.000 104.054 283.698 104.382 284.552 C 104.709 285.406 104.598 285.870 104.135 285.583 C 103.671 285.297 102.743 286.268 102.072 287.741 C 100.202 291.846 102.626 293.000 113.124 293.000 C 120.987 293.000 121.929 292.799 122.500 291.000 C 122.849 289.900 123.554 289.000 124.067 289.000 C 124.580 289.000 125.000 288.570 125.000 288.045 C 125.000 287.520 126.013 285.988 127.250 284.641 C 130.273 281.348 131.166 280.148 133.863 275.750 C 135.128 273.688 136.651 272.000 137.248 272.000 C 137.845 272.000 138.060 271.727 137.727 271.393 C 137.393 271.060 137.552 270.272 138.079 269.643 C 138.606 269.015 139.975 267.375 141.122 266.000 C 146.501 259.549 147.683 258.418 150.250 257.271 C 152.335 256.340 153.000 255.342 153.000 253.144 C 153.000 251.549 153.686 249.676 154.524 248.980 C 155.362 248.284 155.834 247.501 155.573 247.239 C 155.311 246.978 156.646 245.129 158.540 243.132 C 160.433 241.134 161.987 238.938 161.991 238.250 C 162.001 236.843 162.449 236.769 169.649 236.983 C 175.383 237.153 176.082 236.559 176.728 230.970 C 177.069 228.021 176.679 226.779 174.892 225.114 C 173.644 223.951 173.114 223.000 173.714 223.000 C 174.314 223.000 175.261 221.763 175.820 220.250 C 176.379 218.738 178.246 216.038 179.969 214.250 C 181.692 212.463 182.850 211.000 182.543 211.000 C 182.236 211.000 183.205 209.631 184.696 207.957 L 187.408 204.913 187.139 209.281 C 186.796 214.865 188.350 216.211 194.672 215.808 L 199.500 215.500 199.800 210.312 C 200.058 205.848 199.798 204.962 197.936 203.966 C 196.746 203.329 194.249 202.986 192.386 203.203 C 190.524 203.421 189.000 203.239 189.000 202.799 C 189.000 202.360 189.450 202.000 190.000 202.000 C 190.550 202.000 191.001 201.438 191.001 200.750 C 191.002 200.063 192.014 198.300 193.251 196.834 C 194.488 195.368 196.283 193.230 197.240 192.084 L 198.980 190.000 186.740 190.083 C 176.017 190.156 174.283 190.404 172.750 192.083 "/></g>
<g fill="#5E94F6FF" stroke="#5E94F6FF">
<path d="M 405.404 124.526 C 405.055 125.916 403.951 127.491 402.951 128.026 C 401.950 128.562 395.514 129.000 388.648 129.000 C 375.535 129.000 372.567 129.468 373.698 131.355 C 374.161 132.127 373.897 132.107 372.889 131.291 C 371.708 130.336 370.777 130.403 368.447 131.612 C 366.826 132.453 365.275 133.114 365.000 133.082 C 363.550 132.913 361.040 134.256 361.480 134.967 C 361.760 135.420 361.316 136.048 360.494 136.364 C 359.672 136.679 359.000 136.432 359.000 135.814 C 359.000 135.158 358.271 135.350 357.248 136.275 C 356.285 137.147 354.233 138.341 352.688 138.929 C 351.143 139.516 350.119 140.384 350.412 140.858 C 350.705 141.331 349.777 141.591 348.350 141.434 C 346.843 141.269 344.890 141.956 343.689 143.075 C 342.553 144.134 340.920 145.014 340.061 145.032 C 339.203 145.049 337.713 145.661 336.750 146.392 C 335.232 147.544 335.000 149.550 335.000 161.515 C 335.000 174.566 335.094 175.228 336.750 173.789 C 338.306 172.438 343.680 170.606 345.000 170.977 C 345.275 171.055 345.745 170.079 346.044 168.809 C 346.493 166.906 347.461 166.384 351.544 165.840 C 354.270 165.477 358.886 164.003 361.801 162.563 C 364.717 161.123 367.530 160.209 368.051 160.532 C 368.573 160.854 369.000 160.641 369.000 160.059 C 369.000 159.477 369.656 159.000 370.458 159.000 C 371.580 159.000 371.994 160.783 372.257 166.750 C 372.444 171.013 372.688 167.623 372.799 159.219 C 372.946 148.039 373.336 143.821 374.250 143.506 C 374.938 143.269 382.475 142.874 391.000 142.630 C 408.044 142.141 410.500 141.867 410.500 140.454 C 410.500 139.929 411.963 139.359 413.750 139.187 C 415.763 138.993 417.000 138.327 417.000 137.437 C 417.000 136.646 417.868 136.000 418.929 136.000 C 419.989 136.000 421.548 135.309 422.393 134.464 C 423.238 133.620 424.057 132.854 424.214 132.764 C 424.371 132.673 423.727 130.872 422.782 128.762 C 420.805 124.347 416.386 122.000 410.051 122.000 C 406.593 122.000 405.950 122.350 405.404 124.526 M 359.800 144.200 C 361.155 145.555 361.407 154.810 360.144 156.802 C 359.570 157.706 357.360 158.011 352.909 157.802 L 346.500 157.500 346.196 151.612 C 346.029 148.374 346.127 145.111 346.415 144.362 C 347.083 142.621 358.088 142.488 359.800 144.200 "/></g>
<g fill="#387EE6FF" stroke="#387EE6FF">
<path d="M 421.262 228.138 C 420.819 228.581 419.342 229.147 417.979 229.397 C 416.615 229.647 415.950 229.902 416.500 229.965 C 417.050 230.027 416.038 230.714 414.250 231.491 C 412.463 232.268 410.993 233.488 410.985 234.202 C 410.974 235.134 410.691 235.077 409.985 234.000 C 409.266 232.905 408.795 232.816 408.240 233.671 C 407.822 234.315 406.247 235.151 404.740 235.529 C 403.233 235.907 401.998 236.506 401.996 236.858 C 401.994 237.211 398.844 238.823 394.996 240.441 C 389.365 242.809 388.000 243.809 388.000 245.569 C 388.000 248.769 386.210 249.756 379.500 250.257 C 372.103 250.809 371.191 251.066 362.548 255.021 C 355.226 258.372 350.833 260.266 350.000 260.432 C 349.725 260.486 348.868 260.931 348.095 261.420 C 347.050 262.082 346.902 261.950 347.517 260.905 C 347.972 260.132 347.366 260.357 346.172 261.405 C 344.977 262.453 343.947 263.128 343.882 262.905 C 343.816 262.682 343.835 262.893 343.922 263.373 C 344.010 263.853 343.347 263.963 342.448 263.619 C 341.327 263.188 340.644 263.646 340.269 265.080 C 339.884 266.553 339.495 266.801 338.952 265.922 C 338.363 264.970 337.777 265.080 336.468 266.389 C 335.044 267.813 334.828 269.511 335.192 276.445 C 335.677 285.683 337.169 289.002 341.945 291.472 C 344.540 292.814 345.041 292.816 346.365 291.493 C 348.079 289.778 349.431 289.494 348.469 291.050 C 348.112 291.628 349.541 291.178 351.645 290.050 C 353.749 288.923 355.252 287.948 354.985 287.885 C 354.718 287.822 355.288 287.850 356.250 287.948 C 357.213 288.046 358.000 287.621 358.000 287.004 C 358.000 286.387 358.450 286.160 359.000 286.500 C 359.550 286.840 360.000 286.641 360.000 286.059 C 360.000 285.412 357.176 284.994 352.750 284.985 C 348.763 284.976 344.920 284.601 344.210 284.151 C 343.271 283.555 342.999 280.776 343.210 273.916 L 343.500 264.500 377.573 264.000 C 408.273 263.549 411.819 263.327 413.393 261.752 C 414.354 260.790 416.346 259.708 417.820 259.348 C 419.294 258.987 420.838 258.199 421.250 257.596 C 421.774 256.830 422.259 256.901 422.861 257.834 C 424.465 260.320 425.000 256.258 425.000 241.585 C 425.000 229.727 424.754 227.333 423.533 227.333 C 422.727 227.333 421.705 227.695 421.262 228.138 "/></g>
<g fill="#4585EBFF" stroke="#4585EBFF">
<path d="M 421.000 257.875 C 421.000 258.356 419.704 259.009 418.121 259.326 C 416.537 259.643 414.593 260.550 413.800 261.343 C 413.007 262.136 411.490 263.006 410.429 263.276 C 408.734 263.708 408.770 263.782 410.719 263.884 C 412.277 263.965 412.762 264.456 412.350 265.530 C 411.953 266.564 411.072 266.848 409.632 266.406 C 408.459 266.046 407.822 266.092 408.215 266.507 C 409.572 267.942 407.118 270.844 405.013 270.293 C 403.454 269.886 403.000 270.254 403.000 271.927 C 403.000 273.115 402.438 274.015 401.750 273.925 C 398.751 273.536 397.000 274.105 397.000 275.469 C 397.000 276.428 396.423 276.716 395.336 276.299 C 394.292 275.898 393.917 276.057 394.330 276.725 C 394.692 277.311 394.288 278.059 393.431 278.388 C 392.574 278.717 392.153 279.439 392.496 279.993 C 392.838 280.547 392.191 281.000 391.059 281.000 C 389.895 281.000 389.000 281.652 389.000 282.500 C 389.000 283.783 386.111 284.000 369.000 284.000 C 355.590 284.000 349.000 283.651 349.000 282.941 C 349.000 282.359 349.498 282.190 350.107 282.566 C 350.860 283.032 350.999 282.491 350.542 280.875 C 350.111 279.355 350.191 278.962 350.764 279.784 C 351.277 280.518 352.411 280.780 353.414 280.395 C 354.800 279.863 354.888 279.545 353.834 278.876 C 352.921 278.298 353.381 278.026 355.290 278.015 C 357.216 278.005 359.304 276.750 362.040 273.960 C 364.218 271.737 366.000 270.195 366.000 270.531 C 366.000 270.868 366.707 270.436 367.571 269.571 C 368.436 268.707 369.786 268.000 370.571 268.000 C 371.357 268.000 372.000 267.592 372.000 267.094 C 372.000 266.595 370.988 266.392 369.750 266.642 C 368.115 266.972 368.320 266.696 370.500 265.630 C 373.292 264.264 372.525 264.157 359.450 264.081 C 349.758 264.025 345.028 264.372 344.200 265.200 C 343.460 265.940 343.000 269.570 343.000 274.665 C 343.000 284.511 343.494 285.000 353.434 285.000 C 357.389 285.000 360.000 285.421 360.000 286.059 C 360.000 286.641 359.550 286.840 359.000 286.500 C 358.450 286.160 358.000 286.387 358.000 287.004 C 358.000 287.621 357.213 288.046 356.250 287.948 C 355.288 287.850 354.718 287.822 354.985 287.885 C 355.252 287.948 353.749 288.923 351.645 290.050 C 349.541 291.178 348.112 291.628 348.469 291.050 C 349.433 289.491 348.078 289.779 346.357 291.500 C 345.024 292.833 348.702 293.000 379.461 293.000 C 417.202 293.000 419.153 292.746 422.672 287.380 C 424.180 285.081 424.551 282.134 424.794 270.547 C 424.999 260.699 424.780 256.948 424.059 258.000 C 423.366 259.011 423.026 259.093 423.015 258.250 C 423.007 257.563 422.550 257.000 422.000 257.000 C 421.450 257.000 421.000 257.394 421.000 257.875 "/></g>
<g fill="#496DB1FF" stroke="#496DB1FF">
<path d="M 378.461 143.937 C 378.723 144.361 377.798 145.227 376.405 145.861 C 375.012 146.496 374.134 146.593 374.453 146.077 C 374.772 145.561 374.565 144.849 373.993 144.496 C 373.285 144.058 373.041 149.691 373.227 162.177 L 373.500 180.500 383.000 180.793 C 394.079 181.135 396.970 180.609 397.079 178.231 C 397.122 177.279 397.370 177.019 397.630 177.653 C 397.926 178.376 399.025 177.885 400.570 176.339 C 401.928 174.981 402.750 173.405 402.398 172.836 C 402.030 172.240 402.711 172.310 404.000 173.000 C 405.233 173.660 405.977 173.772 405.655 173.250 C 404.920 172.062 409.451 169.543 410.811 170.383 C 411.420 170.760 411.591 170.151 411.246 168.833 C 410.817 167.191 411.042 166.802 412.171 167.236 C 413.431 167.719 413.701 166.094 413.899 156.837 C 414.059 149.375 413.744 145.397 412.917 144.400 C 411.928 143.208 408.538 142.955 394.842 143.050 C 385.571 143.114 378.199 143.513 378.461 143.937 "/></g>
<g fill="#E8587BFF" stroke="#E8587BFF">
<path d="M 214.200 157.200 C 212.758 158.642 212.456 196.455 213.893 195.566 C 214.385 195.262 215.092 196.248 215.465 197.757 C 215.838 199.266 217.154 201.625 218.389 203.000 C 221.377 206.324 224.522 211.441 223.000 210.500 C 221.441 209.537 225.021 215.150 226.889 216.598 C 227.738 217.256 227.982 218.220 227.498 219.003 C 227.026 219.767 227.086 220.065 227.643 219.720 C 228.888 218.951 231.058 220.322 231.410 222.100 C 232.245 226.317 233.307 228.929 234.009 228.494 C 234.447 228.224 235.412 229.464 236.153 231.251 C 237.346 234.128 237.531 231.825 237.769 211.128 C 238.001 190.969 237.805 187.230 236.347 183.926 C 235.417 181.818 234.351 180.283 233.977 180.514 C 233.604 180.745 232.703 179.130 231.976 176.926 C 231.149 174.420 230.175 173.102 229.378 173.409 C 228.539 173.730 228.314 173.345 228.721 172.285 C 229.133 171.211 228.949 170.913 228.170 171.395 C 227.421 171.858 227.000 171.376 227.000 170.059 C 227.000 168.927 226.622 168.000 226.161 168.000 C 225.483 168.000 223.184 164.246 222.488 162.000 C 221.174 157.767 219.771 156.000 217.725 156.000 C 216.446 156.000 214.860 156.540 214.200 157.200 "/></g>
<g fill="#944FBFFF" stroke="#944FBFFF">
<path d="M 182.914 214.250 C 181.491 216.038 179.730 218.625 179.000 220.000 C 178.270 221.375 177.004 222.994 176.185 223.597 C 175.117 224.385 175.022 224.896 175.849 225.406 C 177.369 226.346 177.332 234.268 175.800 235.800 C 175.140 236.460 172.778 237.007 170.550 237.015 C 165.499 237.034 164.940 237.409 161.266 243.224 C 159.624 245.822 158.054 247.720 157.775 247.442 C 157.497 247.164 156.704 248.300 156.013 249.968 C 155.323 251.636 154.362 253.000 153.879 253.000 C 153.395 253.000 152.996 253.563 152.991 254.250 C 152.987 254.938 151.383 257.188 149.428 259.250 C 147.473 261.313 146.213 263.000 146.628 263.000 C 147.043 263.000 146.509 263.661 145.441 264.468 C 144.374 265.276 143.853 265.951 144.284 265.968 C 144.716 265.986 143.688 267.350 142.000 269.000 C 140.312 270.650 139.190 272.000 139.506 272.000 C 139.822 272.000 138.933 273.238 137.529 274.750 C 136.126 276.263 134.728 278.288 134.422 279.250 C 134.116 280.213 133.482 281.000 133.014 281.000 C 132.546 281.000 131.247 282.483 130.127 284.295 C 129.007 286.107 127.132 288.694 125.961 290.045 L 123.832 292.500 132.057 292.500 C 139.069 292.500 140.446 292.221 141.391 290.607 C 142.001 289.566 143.738 287.413 145.250 285.823 C 146.763 284.232 148.000 282.272 148.000 281.466 C 148.000 280.659 148.675 280.000 149.500 280.000 C 150.325 280.000 150.888 279.458 150.750 278.795 C 150.613 278.133 151.100 277.570 151.833 277.545 C 152.567 277.520 152.829 277.163 152.417 276.750 C 152.004 276.338 152.218 276.000 152.892 276.000 C 153.566 276.000 153.877 275.610 153.583 275.134 C 153.288 274.657 153.937 273.462 155.024 272.479 C 156.111 271.495 157.000 270.262 157.000 269.739 C 157.000 269.216 158.129 267.900 159.510 266.814 C 160.890 265.728 161.785 264.462 161.500 264.000 C 161.215 263.538 162.110 262.272 163.490 261.186 C 164.871 260.100 166.000 258.715 166.000 258.108 C 166.000 257.501 167.800 255.093 170.000 252.757 C 172.200 250.422 174.002 248.058 174.005 247.505 C 174.007 246.952 175.559 244.813 177.454 242.750 C 179.348 240.688 180.665 239.000 180.381 239.000 C 179.710 239.000 184.057 232.804 185.643 231.500 C 186.311 230.950 187.003 229.379 187.179 228.009 C 187.376 226.480 188.539 225.022 190.191 224.233 C 191.671 223.526 193.151 222.101 193.479 221.066 C 193.807 220.031 194.734 218.932 195.538 218.624 C 198.541 217.472 196.848 216.000 192.519 216.000 C 188.573 216.000 187.963 215.701 187.411 213.500 C 186.594 210.248 186.023 210.343 182.914 214.250 "/></g>
<g fill="#3260A9FF" stroke="#3260A9FF">
<path d="M 370.500 265.630 C 368.320 266.696 368.115 266.972 369.750 266.642 C 370.988 266.392 372.000 266.595 372.000 267.094 C 372.000 267.592 371.357 268.000 370.571 268.000 C 369.786 268.000 368.436 268.707 367.571 269.571 C 366.707 270.436 366.000 270.868 366.000 270.531 C 366.000 270.195 364.218 271.737 362.040 273.960 C 359.304 276.750 357.216 278.005 355.290 278.015 C 353.381 278.026 352.921 278.298 353.834 278.876 C 354.888 279.545 354.800 279.863 353.414 280.395 C 352.411 280.780 351.277 280.518 350.764 279.784 C 350.191 278.962 350.111 279.355 350.542 280.875 C 350.999 282.491 350.860 283.032 350.107 282.566 C 349.498 282.190 349.000 282.359 349.000 282.941 C 349.000 283.651 355.590 284.000 369.000 284.000 C 386.111 284.000 389.000 283.783 389.000 282.500 C 389.000 281.652 389.895 281.000 391.059 281.000 C 392.191 281.000 392.838 280.547 392.496 279.993 C 392.153 279.439 392.574 278.717 393.431 278.388 C 394.288 278.059 394.692 277.311 394.330 276.725 C 393.917 276.057 394.292 275.898 395.336 276.299 C 396.423 276.716 397.000 276.428 397.000 275.469 C 397.000 274.105 398.751 273.536 401.750 273.925 C 402.438 274.015 403.000 273.115 403.000 271.927 C 403.000 270.254 403.454 269.886 405.013 270.293 C 407.118 270.844 409.572 267.942 408.215 266.507 C 407.822 266.092 408.459 266.046 409.632 266.406 C 411.072 266.848 411.953 266.564 412.350 265.530 C 412.865 264.187 410.527 264.010 393.219 264.081 C 378.048 264.144 372.808 264.501 370.500 265.630 "/></g>
<g fill="#8F4FC3FF" stroke="#8F4FC3FF">
<path d="M 185.452 231.776 C 184.115 232.699 179.692 239.000 180.381 239.000 C 180.665 239.000 179.348 240.688 177.454 242.750 C 175.559 244.813 174.007 246.952 174.005 247.505 C 174.002 248.058 172.200 250.422 170.000 252.757 C 167.800 255.093 166.000 257.501 166.000 258.108 C 166.000 258.715 164.871 260.100 163.490 261.186 C 162.110 262.272 161.215 263.538 161.500 264.000 C 161.785 264.462 160.890 265.728 159.510 266.814 C 158.129 267.900 157.000 269.216 157.000 269.739 C 157.000 270.262 156.111 271.495 155.024 272.479 C 153.937 273.462 153.288 274.657 153.583 275.134 C 153.877 275.610 153.566 276.000 152.892 276.000 C 152.218 276.000 152.004 276.338 152.417 276.750 C 152.829 277.163 152.567 277.520 151.833 277.545 C 151.100 277.570 150.613 278.133 150.750 278.795 C 150.888 279.458 150.325 280.000 149.500 280.000 C 148.675 280.000 148.000 280.659 148.000 281.466 C 148.000 282.272 146.763 284.231 145.250 285.819 C 143.738 287.408 141.934 289.674 141.242 290.854 C 140.010 292.955 140.115 293.000 146.242 292.985 C 153.168 292.968 153.775 292.712 156.296 288.750 C 157.995 286.080 157.988 286.000 156.023 286.000 C 152.385 286.000 153.901 284.271 158.134 283.595 C 160.407 283.231 162.010 282.676 161.695 282.362 C 161.381 282.047 162.108 280.825 163.312 279.645 C 164.515 278.465 165.629 276.825 165.787 276.000 C 165.945 275.175 167.208 273.488 168.593 272.250 C 169.978 271.013 170.821 270.000 170.467 270.000 C 169.914 270.000 171.303 268.070 176.015 262.292 C 176.557 261.628 177.000 260.844 177.000 260.550 C 177.000 259.868 180.962 255.154 183.250 253.115 C 184.213 252.257 185.000 251.193 185.000 250.749 C 185.000 250.306 187.260 247.031 190.022 243.471 L 195.044 237.000 192.145 237.000 C 189.112 237.000 187.460 235.681 186.858 232.776 C 186.658 231.817 186.035 231.373 185.452 231.776 "/></g>
<g fill="#8A50C7FF" stroke="#8A50C7FF">
<path d="M 205.292 222.750 C 204.937 223.713 203.639 225.850 202.407 227.500 C 201.175 229.150 200.017 231.832 199.833 233.460 C 199.588 235.639 198.855 236.572 197.060 236.991 C 194.749 237.532 185.201 248.305 185.064 250.528 C 185.029 251.093 184.213 252.257 183.250 253.115 C 180.962 255.154 177.000 259.868 177.000 260.550 C 177.000 260.844 176.557 261.628 176.015 262.292 C 171.303 268.070 169.914 270.000 170.467 270.000 C 170.821 270.000 169.978 271.013 168.593 272.250 C 167.208 273.488 165.945 275.175 165.787 276.000 C 165.629 276.825 164.464 278.513 163.198 279.750 C 161.933 280.988 161.258 282.032 161.698 282.070 C 162.139 282.109 161.600 282.548 160.500 283.046 C 159.142 283.660 161.035 283.879 166.393 283.726 C 173.047 283.535 174.461 283.193 175.393 281.542 C 176.002 280.465 177.064 278.969 177.754 278.217 C 180.195 275.555 185.000 268.124 185.000 267.011 C 185.000 266.390 185.450 266.160 186.000 266.500 C 186.550 266.840 187.000 266.416 187.000 265.559 C 187.000 264.702 187.399 264.000 187.886 264.000 C 188.373 264.000 189.502 262.462 190.394 260.582 C 191.286 258.703 193.397 256.003 195.085 254.582 C 196.772 253.162 197.876 252.000 197.536 252.000 C 197.197 252.000 198.038 250.793 199.406 249.318 C 200.774 247.843 201.666 246.268 201.387 245.818 C 201.109 245.368 201.359 245.000 201.941 245.000 C 202.523 245.000 203.000 244.325 203.000 243.500 C 203.000 242.675 203.438 242.000 203.974 242.000 C 206.186 242.000 208.000 235.938 208.000 228.550 C 208.000 221.327 206.780 218.714 205.292 222.750 "/></g>
<g fill="#8450CCFF" stroke="#8450CCFF">
<path d="M 205.250 244.423 C 204.013 245.849 203.000 247.488 203.000 248.067 C 203.000 248.645 202.480 248.797 201.845 248.405 C 201.144 247.971 200.962 248.129 201.382 248.809 C 201.762 249.424 201.157 250.843 200.036 251.964 C 198.916 253.084 198.000 254.402 198.000 254.893 C 198.000 255.384 197.261 256.070 196.357 256.417 C 195.453 256.763 194.999 257.332 195.347 257.680 C 195.695 258.029 194.072 260.450 191.740 263.061 C 185.662 269.868 185.049 270.716 185.727 271.393 C 186.060 271.727 185.845 272.000 185.248 272.000 C 184.651 272.000 183.140 273.688 181.889 275.750 C 180.639 277.813 178.554 280.513 177.256 281.750 L 174.897 284.000 180.889 284.000 C 189.930 284.000 189.418 285.864 180.283 286.207 C 176.002 286.368 172.622 286.846 172.771 287.269 C 172.920 287.693 172.104 289.043 170.958 290.269 L 168.875 292.500 176.545 292.794 C 182.966 293.040 184.427 292.798 185.519 291.305 C 186.236 290.324 186.611 289.180 186.352 288.761 C 186.094 288.342 186.584 288.000 187.441 288.000 C 188.298 288.000 189.000 287.373 189.000 286.607 C 189.000 285.841 189.675 284.955 190.500 284.638 C 191.325 284.322 192.000 283.347 192.000 282.472 C 192.000 281.598 192.450 281.160 193.000 281.500 C 193.550 281.840 194.000 281.291 194.000 280.281 C 194.000 279.271 194.788 277.734 195.750 276.865 C 198.894 274.027 201.157 270.823 200.488 270.155 C 200.128 269.795 200.321 269.500 200.917 269.500 C 201.513 269.500 202.068 269.050 202.151 268.500 C 202.234 267.950 203.021 266.952 203.901 266.282 C 204.780 265.612 205.113 265.049 204.639 265.032 C 204.166 265.014 204.747 264.213 205.932 263.250 C 207.913 261.640 208.061 260.713 207.792 251.665 L 207.500 241.830 205.250 244.423 "/></g>
<g fill="#A04FB5FF" stroke="#A04FB5FF">
<path d="M 160.200 191.200 C 159.540 191.860 159.000 192.772 159.000 193.227 C 159.000 193.681 157.538 195.663 155.750 197.631 C 152.720 200.966 152.500 201.693 152.500 208.354 L 152.500 215.500 147.000 216.011 C 141.195 216.549 139.000 217.423 139.000 219.194 C 139.000 219.786 137.988 221.246 136.750 222.439 C 135.513 223.631 134.363 225.258 134.195 226.054 C 134.027 226.849 133.313 227.950 132.607 228.500 C 131.902 229.050 131.514 230.063 131.746 230.750 C 131.977 231.438 131.454 232.000 130.583 232.000 C 129.660 232.000 129.000 232.844 129.000 234.025 C 129.000 235.224 128.052 236.410 126.675 236.934 C 123.903 237.987 120.244 242.991 122.227 243.015 C 123.106 243.026 123.036 243.330 122.000 244.000 C 120.888 244.719 121.494 244.973 124.344 244.985 C 127.339 244.997 128.303 245.441 128.710 247.000 C 128.998 248.100 129.893 249.000 130.700 249.000 C 131.507 249.000 131.985 248.454 131.763 247.788 C 131.540 247.121 132.740 245.193 134.429 243.504 C 136.118 241.815 137.500 239.773 137.500 238.967 C 137.500 238.160 137.838 237.444 138.250 237.375 C 138.663 237.306 139.338 237.195 139.750 237.127 C 140.163 237.059 140.500 234.190 140.500 230.752 L 140.500 224.500 145.250 224.195 C 148.165 224.008 150.000 223.417 150.000 222.666 C 150.000 221.993 150.876 220.810 151.946 220.039 C 153.017 219.267 153.665 218.268 153.387 217.818 C 153.109 217.368 153.370 217.000 153.966 217.000 C 154.562 217.000 155.488 215.848 156.023 214.440 C 156.615 212.882 157.449 212.159 158.153 212.594 C 158.789 212.987 159.054 212.897 158.743 212.393 C 157.995 211.184 159.997 208.590 162.500 207.525 L 164.500 206.674 162.500 206.540 C 160.692 206.418 160.668 206.327 162.250 205.595 C 163.213 205.150 164.000 204.447 164.000 204.033 C 164.000 203.619 165.575 201.610 167.500 199.569 C 169.425 197.528 171.000 195.263 171.000 194.536 C 171.000 193.809 171.675 192.955 172.500 192.638 C 173.325 192.322 174.000 191.599 174.000 191.031 C 174.000 189.568 161.681 189.719 160.200 191.200 "/></g>
<g fill="#E6527CFF" stroke="#E6527CFF">
<path d="M 213.081 220.182 C 213.214 226.204 213.678 229.500 214.393 229.500 C 215.002 229.500 215.516 229.950 215.535 230.500 C 215.555 231.050 216.133 232.513 216.821 233.750 C 217.508 234.988 217.774 236.000 217.413 236.000 C 217.051 236.000 217.311 236.670 217.991 237.489 C 218.671 238.308 219.626 238.731 220.113 238.430 C 220.601 238.129 221.056 238.584 221.125 239.441 C 221.194 240.298 221.306 241.441 221.375 241.981 C 221.444 242.520 222.550 243.697 223.834 244.596 C 225.511 245.771 225.863 246.537 225.084 247.316 C 223.518 248.882 223.752 250.032 225.500 249.362 C 226.325 249.045 227.000 249.284 227.000 249.893 C 227.000 250.502 227.900 251.900 229.000 253.000 C 230.100 254.100 231.007 256.013 231.015 257.250 C 231.028 259.069 231.216 259.213 232.000 258.000 C 232.698 256.920 232.974 256.864 232.985 257.802 C 232.996 258.749 234.626 259.046 238.952 258.890 L 244.905 258.675 242.884 255.838 C 241.773 254.277 241.232 252.993 241.682 252.985 C 242.132 252.976 241.825 252.543 241.000 252.021 C 240.175 251.500 239.444 250.607 239.375 250.036 C 239.306 249.466 239.194 249.288 239.125 249.640 C 238.941 250.580 234.715 244.094 232.642 239.690 C 231.656 237.594 230.210 235.634 229.430 235.335 C 228.650 235.035 228.262 234.384 228.569 233.888 C 228.876 233.392 228.426 232.717 227.569 232.388 C 226.712 232.059 226.232 231.434 226.501 230.999 C 227.196 229.875 224.510 223.823 223.683 224.650 C 223.307 225.026 223.000 226.233 223.000 227.333 C 223.000 229.518 221.741 228.842 221.393 226.471 C 221.274 225.662 221.700 224.986 222.338 224.968 C 222.977 224.951 222.626 224.276 221.559 223.468 C 220.267 222.491 220.079 222.000 220.997 222.000 C 221.906 222.000 221.630 221.304 220.189 219.961 C 218.985 218.840 218.000 217.265 218.000 216.461 C 218.000 215.657 217.523 215.000 216.941 215.000 C 216.359 215.000 216.146 214.573 216.469 214.050 C 216.792 213.528 216.116 212.597 214.966 211.982 C 212.910 210.882 212.880 211.013 213.081 220.182 "/></g>
<g fill="#FDAD5BFF" stroke="#FDAD5BFF">
<path d="M 475.000 238.650 C 473.625 239.584 470.653 242.019 468.396 244.061 C 466.138 246.102 463.213 248.113 461.896 248.528 C 460.578 248.943 457.935 250.569 456.022 252.141 C 454.109 253.714 451.972 255.000 451.272 255.000 C 450.572 255.000 450.000 255.397 450.000 255.883 C 450.000 256.368 447.107 258.650 443.571 260.954 C 440.035 263.258 436.141 266.011 434.918 267.071 C 433.695 268.132 432.313 269.000 431.847 269.000 C 431.381 269.000 431.000 269.450 431.000 270.000 C 431.000 270.588 434.401 270.990 439.250 270.977 L 447.500 270.954 455.500 265.016 C 459.900 261.751 464.377 258.387 465.450 257.542 C 466.522 256.697 469.789 254.542 472.710 252.753 L 478.022 249.500 477.761 243.226 L 477.500 236.952 475.000 238.650 "/></g>
<g fill="#E7557BFF" stroke="#E7557BFF">
<path d="M 213.630 195.790 C 213.225 196.445 212.987 200.156 213.100 204.037 C 213.268 209.783 213.654 211.280 215.181 212.097 C 216.212 212.649 216.792 213.528 216.469 214.050 C 216.146 214.573 216.359 215.000 216.941 215.000 C 217.523 215.000 218.000 215.657 218.000 216.461 C 218.000 217.265 218.985 218.840 220.189 219.961 C 221.630 221.304 221.906 222.000 220.997 222.000 C 220.079 222.000 220.267 222.491 221.559 223.468 C 222.626 224.276 222.977 224.951 222.338 224.968 C 221.700 224.986 221.274 225.662 221.393 226.471 C 221.741 228.842 223.000 229.518 223.000 227.333 C 223.000 226.233 223.307 225.026 223.683 224.650 C 224.510 223.823 227.196 229.875 226.501 230.999 C 226.232 231.434 226.712 232.059 227.569 232.388 C 228.426 232.717 228.876 233.392 228.569 233.888 C 228.262 234.384 228.650 235.035 229.430 235.335 C 230.210 235.634 231.656 237.594 232.643 239.690 C 235.119 244.947 239.947 252.000 241.071 252.000 C 241.582 252.000 241.904 252.338 241.788 252.750 C 241.671 253.163 242.197 254.625 242.957 256.000 C 243.716 257.375 244.149 258.515 243.919 258.533 C 243.689 258.552 245.636 258.698 248.248 258.859 C 252.488 259.120 252.921 258.956 252.303 257.325 C 251.923 256.321 251.020 254.901 250.297 254.169 C 249.573 253.438 249.280 252.356 249.645 251.765 C 250.039 251.128 249.839 250.982 249.155 251.405 C 248.470 251.827 248.000 251.483 248.000 250.559 C 248.000 249.493 247.050 249.000 245.000 249.000 C 240.440 249.000 238.000 245.925 238.000 240.179 C 238.000 237.393 237.172 233.699 236.040 231.429 C 234.962 229.268 234.033 227.950 233.976 228.500 C 233.855 229.676 232.007 225.360 231.439 222.573 C 230.985 220.342 229.023 218.868 227.643 219.720 C 227.086 220.065 227.026 219.767 227.498 219.003 C 227.982 218.220 227.738 217.256 226.889 216.598 C 225.021 215.150 221.441 209.537 223.000 210.500 C 224.479 211.414 221.448 206.426 218.443 203.000 C 217.236 201.625 215.826 199.172 215.308 197.549 C 214.707 195.668 214.099 195.030 213.630 195.790 "/></g>
<g fill="#FDC699FF" stroke="#FDC699FF">
<path d="M 454.914 230.604 C 454.181 231.486 452.530 232.608 451.244 233.097 C 449.244 233.858 448.996 234.460 449.523 237.270 C 450.742 243.770 443.981 248.201 437.849 244.919 C 435.146 243.473 434.195 244.624 436.330 246.759 C 437.679 248.108 440.329 248.548 448.850 248.840 L 459.660 249.210 463.527 245.667 C 465.653 243.719 467.668 242.295 468.005 242.503 C 468.341 242.711 468.722 241.092 468.851 238.906 C 469.042 235.659 468.542 234.388 466.119 231.966 C 462.731 228.578 457.157 227.900 454.914 230.604 "/></g>
<g fill="#EC6476FF" stroke="#EC6476FF">
<path d="M 246.904 229.615 C 245.450 231.367 246.324 239.960 248.068 241.063 C 249.860 242.197 270.035 242.264 271.805 241.142 C 272.699 240.575 273.013 238.456 272.805 234.407 L 272.500 228.500 260.225 228.428 C 251.498 228.376 247.648 228.720 246.904 229.615 "/></g>
<g fill="#6296F7FF" stroke="#6296F7FF">
<path d="M 351.595 128.155 C 352.047 128.885 351.869 129.037 351.111 128.568 C 350.452 128.161 349.277 128.355 348.500 129.000 C 347.723 129.645 346.541 129.835 345.874 129.422 C 345.030 128.901 344.861 129.195 345.319 130.388 C 345.731 131.463 345.584 131.861 344.926 131.454 C 344.347 131.097 343.000 131.595 341.931 132.563 C 340.862 133.530 339.690 134.024 339.327 133.661 C 338.964 133.297 339.192 132.933 339.833 132.850 C 340.475 132.768 340.550 132.700 340.000 132.700 C 336.637 132.700 335.829 133.113 336.382 134.552 C 336.723 135.442 336.555 135.843 335.989 135.493 C 335.379 135.116 335.000 137.203 335.000 140.941 C 335.000 146.518 335.969 148.478 337.500 146.000 C 337.840 145.450 338.907 145.000 339.870 145.000 C 340.834 145.000 342.553 144.134 343.689 143.075 C 344.890 141.956 346.843 141.269 348.350 141.434 C 349.777 141.591 350.705 141.331 350.412 140.858 C 350.119 140.384 351.143 139.516 352.688 138.929 C 354.233 138.341 356.285 137.147 357.248 136.275 C 358.271 135.350 359.000 135.158 359.000 135.814 C 359.000 136.432 359.672 136.679 360.494 136.364 C 361.316 136.048 361.760 135.420 361.480 134.967 C 361.200 134.514 361.990 133.821 363.235 133.425 C 364.481 133.030 365.500 132.804 365.500 132.924 C 365.500 133.043 366.826 132.453 368.447 131.612 C 370.777 130.403 371.708 130.336 372.889 131.291 C 373.948 132.148 374.180 132.160 373.686 131.335 C 373.302 130.695 373.553 129.943 374.244 129.664 C 374.935 129.386 371.364 129.122 366.309 129.079 C 361.254 129.036 356.840 128.550 356.500 128.000 C 356.160 127.450 354.757 127.000 353.382 127.000 C 351.747 127.000 351.129 127.399 351.595 128.155 "/></g>
<g fill="#AB4EACFF" stroke="#AB4EACFF">
<path d="M 114.000 213.510 C 114.000 214.340 113.123 215.770 112.051 216.688 C 110.979 217.606 110.331 218.726 110.610 219.178 C 110.890 219.630 110.641 220.000 110.059 220.000 C 109.477 220.000 109.000 220.702 109.000 221.559 C 109.000 222.416 108.550 222.840 108.000 222.500 C 107.450 222.160 107.000 222.584 107.000 223.441 C 107.000 224.298 106.550 225.000 106.000 225.000 C 105.450 225.000 105.000 225.702 105.000 226.559 C 105.000 227.416 104.594 227.867 104.097 227.560 C 103.601 227.253 102.701 228.419 102.097 230.150 C 100.624 234.376 100.665 247.675 102.155 248.595 C 102.829 249.012 103.039 248.872 102.660 248.259 C 102.303 247.682 102.587 246.989 103.290 246.719 C 103.993 246.449 105.629 244.165 106.926 241.643 C 108.223 239.121 109.740 237.339 110.297 237.683 C 110.854 238.028 111.030 237.858 110.689 237.306 C 110.348 236.754 111.066 235.231 112.285 233.921 C 113.503 232.611 114.388 231.192 114.250 230.769 C 114.113 230.346 114.419 230.000 114.930 230.000 C 115.442 230.000 116.005 228.999 116.180 227.775 C 116.356 226.551 117.625 224.983 119.000 224.290 C 120.375 223.597 121.142 223.023 120.705 223.015 C 120.267 223.007 121.055 221.855 122.455 220.455 C 125.979 216.930 125.655 216.000 120.906 216.000 C 117.654 216.000 116.705 215.589 116.290 214.000 C 115.679 211.664 114.000 211.305 114.000 213.510 "/></g>
<g fill="#A54EB1FF" stroke="#A54EB1FF">
<path d="M 145.463 193.439 C 144.444 195.330 143.249 196.654 142.806 196.380 C 142.362 196.106 142.000 196.514 142.000 197.286 C 142.000 198.058 141.111 199.495 140.024 200.479 C 138.937 201.462 138.290 202.660 138.587 203.141 C 138.884 203.621 138.423 204.284 137.563 204.614 C 136.704 204.944 136.000 205.680 136.000 206.249 C 136.000 206.818 134.650 208.574 133.000 210.150 C 131.350 211.727 130.000 213.703 130.000 214.540 C 130.000 215.378 129.366 216.306 128.592 216.603 C 127.817 216.900 126.637 218.461 125.970 220.072 C 125.303 221.682 124.249 223.041 123.629 223.090 C 123.008 223.140 123.932 223.595 125.682 224.101 C 127.856 224.730 128.964 225.731 129.182 227.261 C 129.467 229.268 129.747 229.103 131.884 225.665 C 133.196 223.555 135.558 220.418 137.134 218.692 C 139.525 216.074 140.000 214.686 140.000 210.312 C 140.000 204.465 141.389 203.000 146.934 203.000 C 148.620 203.000 150.000 202.591 150.000 202.092 C 150.000 201.592 152.050 198.667 154.555 195.592 L 159.110 190.000 153.212 190.000 C 147.518 190.000 147.251 190.118 145.463 193.439 "/></g>
<g fill="#FD9657FF" stroke="#FD9657FF">
<path d="M 466.000 211.802 C 458.918 216.626 453.633 220.367 453.000 221.002 C 452.725 221.277 451.263 222.141 449.750 222.921 C 448.238 223.700 447.000 224.723 447.000 225.194 C 447.000 225.664 445.763 226.601 444.250 227.275 C 441.791 228.370 442.462 228.530 450.598 228.786 C 457.811 229.012 459.960 228.753 460.971 227.536 C 461.671 226.691 462.865 226.000 463.622 226.000 C 464.380 226.000 465.000 225.580 465.000 225.067 C 465.000 224.554 465.897 223.850 466.994 223.502 C 468.091 223.154 469.553 222.321 470.244 221.652 C 470.935 220.982 472.963 219.406 474.750 218.149 C 476.538 216.892 478.000 215.479 478.000 215.009 C 478.000 213.920 473.041 207.991 472.161 208.027 C 471.797 208.042 469.025 209.741 466.000 211.802 "/></g>
<g fill="#A04FB5FF" stroke="#A04FB5FF">
<path d="M 113.465 252.798 C 113.720 253.054 113.270 254.204 112.465 255.354 C 111.659 256.504 110.982 257.007 110.961 256.473 C 110.939 255.938 110.260 256.850 109.452 258.500 C 107.549 262.383 103.021 268.561 102.930 267.398 C 102.891 266.904 102.473 267.400 102.000 268.500 C 101.527 269.600 101.125 274.775 101.106 280.000 C 101.076 288.189 101.246 289.185 102.337 287.219 C 103.034 285.964 103.942 285.275 104.355 285.688 C 104.768 286.101 104.809 285.665 104.446 284.720 C 104.067 283.732 104.257 283.000 104.893 283.000 C 105.502 283.000 106.000 282.325 106.000 281.500 C 106.000 280.675 106.420 280.000 106.933 280.000 C 107.446 280.000 108.153 279.093 108.505 277.985 C 108.856 276.877 109.631 276.272 110.227 276.640 C 110.822 277.008 111.030 276.858 110.689 276.306 C 110.348 275.754 111.066 274.233 112.285 272.925 C 113.503 271.617 114.539 270.311 114.586 270.023 C 114.904 268.096 116.356 266.102 117.105 266.565 C 117.597 266.869 118.000 266.464 118.000 265.664 C 118.000 264.864 119.117 263.150 120.483 261.855 C 123.581 258.916 123.633 258.000 120.700 258.000 C 118.008 258.000 116.000 256.277 116.000 253.967 C 116.000 253.068 115.325 252.333 114.500 252.333 C 113.675 252.333 113.209 252.542 113.465 252.798 "/></g>
<g fill="#E8587BFF" stroke="#E8587BFF">
<path d="M 243.000 218.729 C 243.000 235.962 243.334 242.934 244.200 243.800 C 245.773 245.373 274.000 245.506 274.000 243.941 C 274.000 243.359 273.555 243.157 273.011 243.493 C 272.468 243.829 272.248 243.518 272.524 242.802 C 272.923 241.766 270.562 241.568 260.967 241.835 C 247.005 242.222 246.000 241.794 246.000 235.459 C 246.000 228.132 246.173 228.000 255.762 228.000 C 264.247 228.000 264.297 227.985 262.500 226.000 C 261.064 224.413 259.420 224.000 254.545 224.000 C 251.099 224.000 247.873 223.473 247.200 222.800 C 246.401 222.001 246.000 217.629 246.000 209.729 C 246.000 200.510 245.665 197.522 244.500 196.357 C 243.167 195.024 243.000 197.510 243.000 218.729 "/></g>
<g fill="#E8587BFF" stroke="#E8587BFF">
<path d="M 248.000 250.311 C 248.000 251.033 248.810 252.495 249.800 253.561 C 250.791 254.628 251.902 256.288 252.269 257.250 C 252.863 258.805 254.548 259.000 267.410 259.000 C 275.369 259.000 282.127 258.604 282.427 258.119 C 282.726 257.634 281.635 255.722 280.001 253.869 C 278.368 252.016 277.025 250.163 277.016 249.750 C 277.007 249.338 270.475 249.000 262.500 249.000 C 251.204 249.000 248.000 249.290 248.000 250.311 "/></g>
<g fill="#F07172FF" stroke="#F07172FF">
<path d="M 276.000 157.000 C 277.090 157.704 277.142 157.974 276.191 157.985 C 275.471 157.993 275.179 158.481 275.542 159.068 C 275.905 159.656 276.738 159.931 277.392 159.680 C 278.100 159.408 278.670 160.293 278.800 161.862 C 278.919 163.313 279.471 164.653 280.026 164.839 C 280.582 165.026 281.671 165.813 282.446 166.589 C 283.493 167.636 286.749 168.000 295.051 168.000 C 305.440 168.000 306.146 167.878 304.872 166.308 C 303.704 164.867 303.708 164.742 304.905 165.463 C 305.887 166.054 306.082 165.941 305.553 165.086 C 305.138 164.414 304.231 164.081 303.539 164.346 C 302.745 164.651 302.335 164.031 302.427 162.665 C 302.507 161.474 301.520 159.488 300.235 158.250 C 298.080 156.176 296.982 156.001 286.198 156.015 C 278.276 156.026 274.984 156.344 276.000 157.000 "/></g>
<g fill="#7352DBFF" stroke="#7352DBFF">
<path d="M 224.466 279.433 C 223.449 281.322 221.691 283.174 220.558 283.549 C 219.426 283.924 219.088 284.291 219.807 284.365 C 220.663 284.454 220.318 285.355 218.807 286.977 C 217.538 288.339 216.480 289.914 216.455 290.477 C 216.430 291.039 215.867 291.388 215.205 291.250 C 214.542 291.113 214.000 291.450 214.000 292.000 C 214.000 292.584 217.344 293.000 222.031 293.000 C 228.155 293.000 230.196 292.653 230.624 291.538 C 230.932 290.734 232.050 289.802 233.107 289.466 C 234.164 289.131 234.775 288.445 234.465 287.943 C 234.154 287.441 235.192 285.768 236.770 284.225 C 238.348 282.682 239.437 280.812 239.190 280.071 C 238.920 279.261 239.192 279.001 239.870 279.420 C 240.570 279.852 241.000 279.335 241.000 278.059 C 241.000 276.167 240.403 276.000 233.657 276.000 C 226.319 276.000 226.314 276.002 224.466 279.433 "/></g>
<g fill="#AE4EAAFF" stroke="#AE4EAAFF">
<path d="M 122.821 192.250 C 122.133 193.488 121.499 194.838 121.410 195.250 C 121.175 196.351 120.733 196.661 120.938 195.581 C 121.034 195.075 120.412 195.243 119.556 195.953 C 118.700 196.664 118.000 197.834 118.000 198.555 C 118.000 199.276 117.142 200.137 116.094 200.470 C 115.030 200.808 114.299 201.832 114.439 202.788 C 114.578 203.729 114.391 204.500 114.024 204.500 C 112.845 204.500 109.914 207.893 105.403 214.482 C 101.399 220.329 101.007 221.437 101.079 226.706 C 101.148 231.798 101.280 232.166 102.164 229.744 C 102.718 228.228 103.582 227.242 104.085 227.553 C 104.588 227.864 105.000 227.416 105.000 226.559 C 105.000 225.702 105.450 225.000 106.000 225.000 C 106.550 225.000 107.000 224.298 107.000 223.441 C 107.000 222.584 107.450 222.160 108.000 222.500 C 108.550 222.840 109.000 222.416 109.000 221.559 C 109.000 220.702 109.477 220.000 110.059 220.000 C 110.641 220.000 110.890 219.630 110.610 219.178 C 110.331 218.726 110.979 217.606 112.051 216.688 C 113.123 215.770 114.000 214.340 114.000 213.510 C 114.000 212.679 114.423 212.000 114.940 212.000 C 115.456 212.000 116.019 210.321 116.190 208.268 C 116.453 205.104 116.956 204.399 119.500 203.632 C 125.614 201.788 125.589 201.800 124.187 201.279 C 123.300 200.950 123.926 199.852 126.117 197.896 C 127.901 196.303 128.942 194.985 128.430 194.967 C 127.919 194.948 128.493 194.104 129.707 193.091 C 132.385 190.856 131.737 190.000 127.369 190.000 C 124.985 190.000 123.724 190.624 122.821 192.250 "/></g>
<g fill="#FDC699FF" stroke="#FDC699FF">
<path d="M 306.000 157.878 C 306.000 158.910 306.675 160.315 307.500 161.000 C 308.325 161.685 309.000 162.635 309.000 163.111 C 309.000 163.587 309.775 164.882 310.722 165.989 C 312.205 167.720 313.665 168.000 321.222 168.000 L 330.000 168.000 330.000 162.000 L 330.000 156.000 318.000 156.000 C 306.928 156.000 306.000 156.145 306.000 157.878 "/></g>
<g fill="#A54EB1FF" stroke="#A54EB1FF">
<path d="M 115.063 234.250 C 115.028 235.220 114.220 236.007 113.250 236.015 C 111.754 236.028 111.718 236.172 113.000 237.000 C 113.825 237.533 114.003 237.976 113.396 237.985 C 111.939 238.005 107.000 242.613 107.000 243.952 C 107.000 244.529 106.523 245.000 105.941 245.000 C 105.359 245.000 105.109 245.368 105.387 245.818 C 105.666 246.268 104.867 247.742 103.614 249.094 C 101.710 251.147 101.304 252.785 101.151 259.026 L 100.968 266.500 103.509 263.500 C 107.041 259.329 107.412 258.837 109.557 255.474 C 110.600 253.838 111.721 252.275 112.047 252.000 C 112.373 251.725 114.535 248.913 116.851 245.750 C 119.168 242.588 121.424 240.000 121.865 240.000 C 122.306 240.000 122.667 239.325 122.667 238.500 C 122.667 237.516 121.682 237.000 119.801 237.000 C 117.764 237.000 116.674 236.349 116.031 234.750 C 115.338 233.026 115.112 232.909 115.063 234.250 "/></g>
<g fill="#FD9156FF" stroke="#FD9156FF">
<path d="M 462.000 208.000 C 462.000 208.550 461.100 209.000 460.000 209.000 C 458.900 209.000 458.000 209.427 458.000 209.949 C 458.000 210.470 454.513 213.233 450.250 216.087 C 445.988 218.941 442.169 221.776 441.765 222.388 C 441.342 223.029 441.011 223.076 440.984 222.500 C 440.958 221.950 440.378 222.175 439.695 223.000 C 438.408 224.556 435.596 226.523 433.000 227.683 C 430.732 228.697 430.032 230.159 430.015 233.916 L 430.000 237.333 433.846 233.166 C 435.962 230.875 438.368 229.000 439.193 229.000 C 441.149 229.000 447.000 226.074 447.000 225.096 C 447.000 224.679 448.238 223.699 449.750 222.919 C 451.263 222.139 452.950 221.140 453.500 220.701 C 454.050 220.261 457.650 217.690 461.500 214.986 C 473.755 206.379 473.237 207.095 467.250 207.045 C 464.363 207.020 462.000 207.450 462.000 208.000 "/></g>
<g fill="#496DB1FF" stroke="#496DB1FF">
<path d="M 347.200 167.200 C 345.643 168.757 345.643 178.243 347.200 179.800 C 347.860 180.460 350.695 181.000 353.500 181.000 C 356.305 181.000 359.140 180.460 359.800 179.800 C 360.460 179.140 361.000 176.305 361.000 173.500 C 361.000 170.695 360.460 167.860 359.800 167.200 C 359.140 166.540 356.305 166.000 353.500 166.000 C 350.695 166.000 347.860 166.540 347.200 167.200 "/></g>
<g fill="#E54F7EFF" stroke="#E54F7EFF">
<path d="M 213.190 235.935 C 213.163 240.388 213.511 243.802 213.963 243.523 C 214.416 243.243 215.071 244.147 215.419 245.532 C 215.766 246.918 216.956 248.956 218.062 250.062 C 219.168 251.168 219.762 252.576 219.382 253.191 C 218.978 253.844 219.141 254.031 219.773 253.640 C 220.656 253.095 222.228 255.667 222.451 258.020 C 222.478 258.305 224.413 258.677 226.750 258.846 C 230.484 259.116 231.000 258.901 231.000 257.076 C 231.000 255.934 230.100 254.100 229.000 253.000 C 227.900 251.900 227.000 250.502 227.000 249.893 C 227.000 249.284 226.325 249.045 225.500 249.362 C 223.752 250.032 223.518 248.882 225.084 247.316 C 225.863 246.537 225.511 245.771 223.834 244.596 C 222.550 243.697 221.444 242.520 221.375 241.981 C 221.306 241.441 221.194 240.298 221.125 239.441 C 221.056 238.584 220.601 238.129 220.113 238.430 C 219.626 238.731 218.671 238.308 217.991 237.489 C 217.311 236.670 217.051 236.000 217.413 236.000 C 217.774 236.000 217.508 234.988 216.821 233.750 C 216.133 232.513 215.555 231.185 215.535 230.800 C 215.516 230.415 214.991 229.591 214.370 228.970 C 213.529 228.129 213.226 229.915 213.190 235.935 "/></g>
<g fill="#496DB1FF" stroke="#496DB1FF">
<path d="M 347.200 190.200 C 345.950 191.450 345.552 199.668 346.607 202.418 C 347.047 203.566 348.573 204.000 352.166 204.000 C 355.655 204.000 356.907 203.659 356.405 202.845 C 355.984 202.165 356.128 201.961 356.755 202.349 C 357.341 202.710 358.535 202.732 359.410 202.396 C 361.356 201.649 361.663 192.063 359.800 190.200 C 359.140 189.540 356.305 189.000 353.500 189.000 C 350.695 189.000 347.860 189.540 347.200 190.200 "/></g>
<g fill="#AB4EACFF" stroke="#AB4EACFF">
<path d="M 131.291 190.624 C 131.634 190.967 130.922 192.077 129.707 193.091 C 128.493 194.104 127.919 194.948 128.430 194.967 C 128.942 194.985 127.848 196.350 126.000 198.000 C 124.152 199.650 123.197 201.000 123.879 201.000 C 124.560 201.000 124.881 201.384 124.590 201.854 C 124.300 202.323 125.174 203.214 126.531 203.832 C 128.363 204.667 129.000 205.736 129.000 207.979 C 129.000 211.995 130.392 211.801 132.433 207.500 C 133.346 205.575 134.523 204.000 135.047 204.000 C 135.571 204.000 136.000 203.531 136.000 202.958 C 136.000 201.924 136.946 200.576 140.183 196.995 C 141.109 195.971 142.623 193.979 143.548 192.567 L 145.230 190.000 137.948 190.000 C 133.943 190.000 130.948 190.281 131.291 190.624 "/></g>
<g fill="#7E51D2FF" stroke="#7E51D2FF">
<path d="M 207.362 271.500 C 207.712 272.414 207.363 273.000 206.469 273.000 C 205.661 273.000 205.000 273.675 205.000 274.500 C 205.000 275.325 204.298 276.000 203.441 276.000 C 202.584 276.000 202.160 276.450 202.500 277.000 C 202.840 277.550 202.641 278.000 202.059 278.000 C 201.477 278.000 201.000 278.622 201.000 279.381 C 201.000 280.141 199.736 282.054 198.191 283.631 C 195.479 286.402 192.000 291.365 192.000 292.465 C 192.000 293.277 200.353 293.075 201.523 292.235 C 202.897 291.248 206.491 285.661 206.262 284.869 C 206.162 284.522 206.962 283.440 208.040 282.464 C 209.118 281.488 210.000 281.091 210.000 281.580 C 210.000 282.070 210.871 280.846 211.935 278.860 L 213.870 275.250 211.130 272.625 C 208.076 269.699 206.489 269.225 207.362 271.500 "/></g>
<g fill="#944FBFFF" stroke="#944FBFFF">
<path d="M 198.381 194.000 C 196.925 196.200 195.374 198.000 194.935 198.000 C 194.495 198.000 193.847 198.907 193.495 200.015 C 193.144 201.123 192.369 201.728 191.773 201.360 C 191.128 200.961 190.979 201.158 191.405 201.845 C 191.797 202.480 193.351 203.000 194.859 203.000 C 198.483 203.000 200.000 204.682 200.000 208.700 C 200.000 210.515 200.477 212.000 201.059 212.000 C 201.641 212.000 201.840 211.550 201.500 211.000 C 201.160 210.450 201.359 210.000 201.941 210.000 C 202.523 210.000 203.000 209.406 203.000 208.680 C 203.000 207.955 204.125 206.382 205.500 205.187 C 207.688 203.285 208.000 202.201 208.000 196.507 L 208.000 190.000 204.514 190.000 C 201.555 190.000 200.628 190.605 198.381 194.000 "/></g>
<g fill="#8F4FC3FF" stroke="#8F4FC3FF">
<path d="M 205.250 205.455 C 204.013 206.618 203.000 208.117 203.000 208.785 C 203.000 209.453 202.523 210.000 201.941 210.000 C 201.359 210.000 201.160 210.450 201.500 211.000 C 201.840 211.550 201.641 212.000 201.059 212.000 C 200.477 212.000 200.000 212.575 200.000 213.277 C 200.000 213.980 198.721 215.677 197.157 217.049 C 195.594 218.421 193.793 220.519 193.155 221.711 C 192.069 223.739 192.237 223.899 195.743 224.189 C 198.977 224.457 199.560 224.889 199.996 227.342 L 200.500 230.184 202.750 227.133 C 203.988 225.454 205.000 223.635 205.000 223.090 C 205.000 222.545 205.694 221.711 206.542 221.237 C 207.781 220.543 208.026 218.703 207.792 211.856 L 207.500 203.339 205.250 205.455 "/></g>
<g fill="#7A51D5FF" stroke="#7A51D5FF">
<path d="M 212.648 277.415 C 211.742 278.798 211.000 280.422 211.000 281.024 C 211.000 281.626 210.610 281.877 210.134 281.583 C 209.291 281.062 205.235 284.806 205.766 285.616 C 206.120 286.155 202.821 291.303 201.523 292.235 C 200.295 293.117 210.159 293.260 212.418 292.393 C 213.288 292.059 214.000 291.160 214.000 290.396 C 214.000 289.631 215.567 287.271 217.482 285.152 C 219.397 283.032 220.672 281.005 220.315 280.649 C 219.959 280.292 220.267 280.000 221.000 280.000 C 221.733 280.000 222.040 279.707 221.682 279.349 C 221.324 278.991 221.812 278.105 222.766 277.381 C 224.301 276.214 224.080 276.060 220.832 276.032 C 218.814 276.014 216.518 275.752 215.730 275.450 C 214.887 275.126 213.617 275.936 212.648 277.415 "/></g>
<g fill="#548EF2FF" stroke="#548EF2FF">
<path d="M 347.200 144.200 C 345.851 145.549 345.591 154.806 346.845 156.784 C 347.293 157.490 348.409 157.780 349.324 157.429 C 350.240 157.078 350.769 156.435 350.500 156.000 C 350.231 155.565 350.734 154.932 351.617 154.593 C 352.704 154.176 353.055 154.414 352.704 155.329 C 352.336 156.287 352.959 156.611 354.843 156.440 C 356.304 156.307 357.050 156.100 356.500 155.981 C 355.950 155.861 355.163 155.816 354.750 155.882 C 354.338 155.947 354.000 155.336 354.000 154.525 C 354.000 153.383 354.539 153.255 356.389 153.958 C 358.460 154.745 358.711 154.609 358.272 152.933 C 357.994 151.870 358.236 151.000 358.810 151.000 C 359.384 151.000 360.059 151.788 360.311 152.750 C 360.562 153.713 360.820 152.453 360.884 149.950 C 360.948 147.448 360.460 144.860 359.800 144.200 C 359.140 143.540 356.305 143.000 353.500 143.000 C 350.695 143.000 347.860 143.540 347.200 144.200 "/></g>
<g fill="#9B4FB9FF" stroke="#9B4FB9FF">
<path d="M 117.200 225.200 C 115.646 226.754 115.646 234.246 117.200 235.800 C 117.860 236.460 120.245 237.000 122.500 237.000 C 127.658 237.000 129.000 235.658 129.000 230.500 C 129.000 225.342 127.658 224.000 122.500 224.000 C 120.245 224.000 117.860 224.540 117.200 225.200 "/></g>
<g fill="#9B4FB9FF" stroke="#9B4FB9FF">
<path d="M 141.627 204.283 C 140.275 205.272 139.945 206.704 140.186 210.533 L 140.500 215.500 145.328 215.808 C 148.029 215.980 150.782 215.596 151.578 214.936 C 153.491 213.348 153.393 206.536 151.429 204.571 C 149.531 202.674 144.049 202.513 141.627 204.283 "/></g>
<g fill="#9B4FB9FF" stroke="#9B4FB9FF">
<path d="M 188.571 225.571 C 186.778 227.365 186.505 232.206 188.035 235.066 C 189.086 237.029 194.843 237.765 198.418 236.393 C 200.349 235.652 200.643 227.043 198.800 225.200 C 197.078 223.478 190.424 223.719 188.571 225.571 "/></g>
<g fill="#E95A7AFF" stroke="#E95A7AFF">
<path d="M 219.405 157.155 C 218.990 157.825 219.128 158.039 219.732 157.666 C 220.304 157.312 221.101 158.030 221.502 159.261 C 223.033 163.961 225.186 168.000 226.161 168.000 C 226.622 168.000 227.000 168.927 227.000 170.059 C 227.000 171.376 227.421 171.858 228.170 171.395 C 228.949 170.913 229.133 171.211 228.721 172.285 C 228.314 173.345 228.539 173.730 229.378 173.409 C 230.175 173.102 231.149 174.420 231.976 176.926 C 232.703 179.130 233.637 180.724 234.052 180.468 C 234.466 180.212 235.392 181.464 236.110 183.251 L 237.414 186.500 237.753 181.959 C 238.013 178.482 237.475 176.312 235.458 172.704 C 234.009 170.112 232.436 168.230 231.962 168.523 C 231.489 168.816 230.804 167.472 230.441 165.537 C 230.078 163.601 229.454 162.219 229.055 162.466 C 228.656 162.713 227.588 161.359 226.681 159.457 C 225.461 156.900 224.393 156.000 222.575 156.000 C 221.224 156.000 219.797 156.520 219.405 157.155 "/></g>
<g fill="#9B4FB9FF" stroke="#9B4FB9FF">
<path d="M 116.625 205.536 C 115.829 207.609 115.819 212.366 116.607 214.418 C 117.056 215.589 118.610 216.000 122.588 216.000 C 127.402 216.000 128.024 215.754 128.555 213.638 C 128.881 212.339 129.002 209.752 128.824 207.888 C 128.502 204.518 128.470 204.498 122.875 204.204 C 118.418 203.969 117.120 204.246 116.625 205.536 "/></g>
<g fill="#FDB75DFF" stroke="#FDB75DFF">
<path d="M 474.884 256.868 C 473.445 258.005 471.983 258.649 471.634 258.301 C 471.285 257.952 471.000 258.150 471.000 258.742 C 471.000 259.333 468.976 261.095 466.502 262.658 C 464.028 264.221 462.003 265.838 462.002 266.250 C 462.001 266.663 461.395 267.000 460.655 267.000 C 459.915 267.000 458.495 267.900 457.500 269.000 C 455.712 270.975 455.753 271.000 460.815 271.000 C 466.122 271.000 471.338 268.801 475.797 264.684 C 477.575 263.042 478.027 261.688 477.797 258.683 L 477.500 254.802 474.884 256.868 "/></g>
<g fill="#B04EA9FF" stroke="#B04EA9FF">
<path d="M 116.430 193.500 C 115.393 195.425 113.946 197.000 113.214 197.000 C 112.481 197.000 112.160 197.450 112.500 198.000 C 112.840 198.550 112.641 199.000 112.059 199.000 C 111.477 199.000 110.999 199.563 110.998 200.250 C 110.996 200.938 109.672 203.048 108.056 204.939 C 106.439 206.831 105.322 208.711 105.573 209.117 C 105.824 209.524 105.145 210.136 104.066 210.479 C 102.767 210.891 102.312 211.649 102.721 212.715 C 103.148 213.829 102.958 214.092 102.104 213.564 C 101.188 212.998 100.949 213.770 101.184 216.539 L 101.500 220.278 105.457 214.389 C 109.406 208.512 112.901 204.500 114.072 204.500 C 114.412 204.500 114.578 203.729 114.439 202.788 C 114.301 201.846 114.997 200.818 115.986 200.504 C 116.975 200.191 118.019 199.036 118.306 197.938 C 118.593 196.841 119.409 196.068 120.118 196.221 C 120.828 196.375 121.445 196.050 121.490 195.500 C 121.534 194.950 122.133 193.488 122.821 192.250 C 123.988 190.148 123.881 190.000 121.193 190.000 C 118.930 190.000 117.912 190.747 116.430 193.500 "/></g>
<g fill="#FDAA5BFF" stroke="#FDAA5BFF">
<path d="M 448.250 253.507 C 444.813 255.949 441.947 257.847 441.882 257.724 C 441.816 257.601 441.803 257.798 441.852 258.162 C 441.901 258.527 440.605 259.291 438.971 259.860 C 437.337 260.430 436.000 261.369 436.000 261.948 C 436.000 262.527 435.395 263.000 434.655 263.000 C 432.832 263.000 430.000 266.263 430.000 268.364 C 430.000 269.819 430.328 269.895 432.229 268.877 C 433.456 268.221 434.971 267.172 435.597 266.546 C 436.223 265.919 439.720 263.463 443.368 261.086 C 447.016 258.710 450.000 256.368 450.000 255.883 C 450.000 255.397 450.579 255.000 451.288 255.000 C 451.996 255.000 454.134 253.668 456.038 252.041 C 459.433 249.139 459.451 249.081 457.000 249.074 C 455.625 249.070 451.688 251.065 448.250 253.507 "/></g>
<g fill="#B24EA7FF" stroke="#B24EA7FF">
<path d="M 112.200 191.200 C 111.540 191.860 111.000 192.985 111.000 193.700 C 111.000 194.415 110.550 195.000 110.000 195.000 C 109.450 195.000 109.000 195.498 109.000 196.106 C 109.000 196.714 107.848 198.119 106.439 199.226 C 104.993 200.364 104.115 201.858 104.422 202.658 C 104.722 203.438 104.311 204.327 103.510 204.634 C 101.488 205.410 100.391 211.818 102.022 213.325 C 103.022 214.248 103.167 214.136 102.698 212.801 C 102.299 211.663 102.750 210.897 104.066 210.479 C 105.145 210.136 105.824 209.524 105.573 209.117 C 105.322 208.711 106.439 206.831 108.056 204.939 C 109.672 203.048 110.996 200.938 110.998 200.250 C 110.999 199.563 111.477 199.000 112.059 199.000 C 112.641 199.000 112.840 198.550 112.500 198.000 C 112.160 197.450 112.511 197.000 113.280 197.000 C 114.471 197.000 115.344 195.794 117.801 190.750 C 118.405 189.511 113.494 189.906 112.200 191.200 "/></g>
<g fill="#FD9657FF" stroke="#FD9657FF">
<path d="M 439.315 232.016 C 435.268 233.630 433.475 240.490 436.455 242.963 C 437.629 243.937 438.644 243.624 441.705 241.341 C 443.792 239.785 445.775 238.133 446.112 237.670 C 446.448 237.208 447.112 236.901 447.587 236.990 C 449.231 237.295 449.041 235.347 447.274 233.795 C 444.819 231.638 441.900 230.986 439.315 232.016 "/></g>
<g fill="#6497F8FF" stroke="#6497F8FF">
<path d="M 350.442 122.907 C 350.751 123.405 350.169 123.596 349.150 123.329 C 348.132 123.063 346.535 123.608 345.601 124.541 C 344.668 125.475 343.630 125.963 343.294 125.628 C 342.959 125.292 342.127 125.479 341.447 126.044 C 340.767 126.608 339.625 126.942 338.909 126.785 C 337.095 126.388 334.566 133.970 336.029 135.420 C 336.813 136.197 336.931 136.009 336.452 134.750 C 335.820 133.090 336.495 132.700 340.000 132.700 C 340.550 132.700 340.475 132.768 339.833 132.850 C 339.192 132.933 338.964 133.297 339.327 133.661 C 339.690 134.024 340.862 133.530 341.931 132.563 C 343.000 131.595 344.347 131.097 344.926 131.454 C 345.584 131.861 345.731 131.463 345.319 130.388 C 344.861 129.195 345.030 128.901 345.874 129.422 C 346.541 129.835 347.723 129.645 348.500 129.000 C 349.277 128.355 350.452 128.161 351.111 128.568 C 351.869 129.037 352.047 128.885 351.595 128.155 C 351.151 127.435 351.605 127.000 352.802 127.000 C 354.311 127.000 354.620 126.465 354.245 124.500 C 353.930 122.855 353.102 122.000 351.824 122.000 C 350.756 122.000 350.134 122.408 350.442 122.907 "/></g>
<g fill="#FE8C56FF" stroke="#FE8C56FF">
<path d="M 450.279 208.954 C 449.072 210.079 447.615 211.000 447.042 211.000 C 446.469 211.000 446.000 211.450 446.000 212.000 C 446.000 212.550 445.531 213.000 444.957 213.000 C 444.383 213.000 441.530 214.800 438.616 217.000 C 435.702 219.200 432.845 221.000 432.266 221.000 C 431.109 221.000 430.000 223.301 430.000 225.700 C 430.000 226.897 430.719 226.697 433.250 224.795 C 435.038 223.452 437.175 222.048 438.000 221.676 C 438.825 221.303 442.200 218.958 445.500 216.464 C 448.800 213.970 453.075 210.933 455.000 209.715 L 458.500 207.500 455.488 207.204 C 453.522 207.012 451.712 207.620 450.279 208.954 "/></g>
<g fill="#9A4FBAFF" stroke="#9A4FBAFF">
<path d="M 146.973 258.677 C 146.959 259.130 145.153 261.525 142.961 264.000 C 137.251 270.448 137.056 270.723 137.727 271.393 C 138.060 271.727 137.845 272.000 137.248 272.000 C 136.651 272.000 135.131 273.688 133.869 275.750 C 132.607 277.813 130.996 280.095 130.287 280.821 C 129.579 281.548 129.000 282.587 129.000 283.130 C 129.000 283.674 128.480 283.797 127.845 283.405 C 127.128 282.961 126.963 283.130 127.409 283.853 C 127.811 284.503 127.438 285.278 126.563 285.614 C 125.704 285.944 125.000 286.841 125.000 287.607 C 125.000 288.373 124.598 289.000 124.107 289.000 C 123.009 289.000 121.740 292.073 122.517 292.850 C 123.183 293.516 127.264 288.927 130.133 284.284 C 131.250 282.478 132.546 281.000 133.014 281.000 C 133.482 281.000 134.116 280.213 134.422 279.250 C 134.728 278.288 136.126 276.263 137.529 274.750 C 138.933 273.238 139.822 272.000 139.506 272.000 C 139.190 272.000 140.312 270.650 142.000 269.000 C 143.688 267.350 144.716 265.986 144.284 265.968 C 143.853 265.951 144.374 265.276 145.441 264.468 C 146.509 263.661 147.054 263.000 146.652 263.000 C 146.251 263.000 146.869 261.988 148.026 260.750 C 149.792 258.861 149.878 258.448 148.565 258.177 C 147.704 257.999 146.988 258.224 146.973 258.677 "/></g>
<g fill="#B54EA5FF" stroke="#B54EA5FF">
<path d="M 103.068 192.904 C 101.471 195.147 101.018 197.254 101.079 202.154 C 101.122 205.644 101.413 207.825 101.726 207.000 C 102.038 206.175 102.884 205.151 103.605 204.724 C 104.327 204.297 104.683 203.338 104.398 202.594 C 104.112 201.850 105.031 200.334 106.439 199.226 C 107.848 198.119 109.000 196.714 109.000 196.106 C 109.000 195.498 109.338 194.996 109.750 194.992 C 110.163 194.988 111.020 193.863 111.656 192.492 C 112.780 190.068 112.707 190.000 108.974 190.000 C 105.879 190.000 104.736 190.562 103.068 192.904 "/></g>
<g fill="#8A50C7FF" stroke="#8A50C7FF">
<path d="M 156.296 288.750 C 155.334 290.263 154.086 291.831 153.523 292.235 C 152.960 292.639 155.538 292.976 159.250 292.985 C 163.094 292.993 166.000 292.569 166.000 292.000 C 166.000 291.450 166.563 291.113 167.250 291.250 C 167.938 291.388 168.388 290.938 168.250 290.250 C 168.113 289.563 168.627 289.000 169.393 289.000 C 170.159 289.000 171.045 288.325 171.362 287.500 C 171.839 286.255 170.755 286.000 164.992 286.000 C 158.506 286.000 157.930 286.182 156.296 288.750 "/></g>
<g fill="#FD8F56FF" stroke="#FD8F56FF">
<path d="M 454.500 209.968 C 446.445 215.810 439.751 220.524 438.125 221.500 C 433.154 224.483 430.002 227.327 430.015 228.818 C 430.025 229.844 430.317 230.081 430.765 229.427 C 431.169 228.837 432.175 228.052 433.000 227.683 C 435.596 226.523 438.408 224.556 439.695 223.000 C 440.378 222.175 440.958 221.950 440.984 222.500 C 441.011 223.076 441.342 223.029 441.765 222.388 C 442.169 221.776 445.988 218.941 450.250 216.087 C 454.513 213.233 458.000 210.470 458.000 209.949 C 458.000 209.427 458.900 209.000 460.000 209.000 C 461.100 209.000 462.000 208.550 462.000 208.000 C 462.000 206.139 458.520 207.052 454.500 209.968 "/></g>
<g fill="#FDA45AFF" stroke="#FDA45AFF">
<path d="M 442.000 252.159 C 439.525 253.862 437.350 255.648 437.167 256.128 C 436.983 256.607 436.308 257.015 435.667 257.033 C 433.556 257.093 430.000 260.780 430.000 262.908 C 430.000 265.119 431.129 264.452 447.209 252.750 C 452.194 249.122 452.266 249.001 449.431 249.032 C 447.819 249.049 444.475 250.456 442.000 252.159 "/></g>
<g fill="#8950C8FF" stroke="#8950C8FF">
<path d="M 193.889 255.750 C 192.523 257.263 190.787 259.738 190.033 261.250 C 189.279 262.763 188.288 264.000 187.831 264.000 C 187.374 264.000 187.000 264.702 187.000 265.559 C 187.000 266.416 186.550 266.840 186.000 266.500 C 185.450 266.160 185.000 266.390 185.000 267.011 C 185.000 268.144 180.097 275.698 177.754 278.175 C 177.064 278.904 176.050 280.545 175.500 281.823 L 174.500 284.146 177.058 281.823 C 178.464 280.545 180.639 277.813 181.889 275.750 C 183.140 273.688 184.651 272.000 185.248 272.000 C 185.845 272.000 186.060 271.727 185.727 271.393 C 185.049 270.716 185.662 269.868 191.740 263.061 C 194.072 260.450 195.695 258.029 195.347 257.680 C 194.999 257.332 195.453 256.763 196.357 256.417 C 198.016 255.780 198.692 253.000 197.187 253.000 C 196.740 253.000 195.256 254.238 193.889 255.750 "/></g>
<g fill="#FD9D58FF" stroke="#FD9D58FF">
<path d="M 437.138 248.787 C 436.505 248.998 436.242 249.582 436.553 250.085 C 436.864 250.588 436.416 251.000 435.559 251.000 C 434.702 251.000 434.000 251.470 434.000 252.044 C 434.000 252.618 433.243 252.955 432.318 252.794 C 431.041 252.571 430.544 253.401 430.251 256.250 C 429.847 260.177 430.896 261.036 433.000 258.500 C 433.685 257.675 434.865 257.000 435.622 257.000 C 436.380 257.000 437.000 256.640 437.000 256.199 C 437.000 255.759 439.102 254.072 441.672 252.449 L 446.344 249.500 442.316 248.952 C 440.101 248.650 437.771 248.576 437.138 248.787 "/></g>
<g fill="#F07172FF" stroke="#F07172FF">
<path d="M 310.770 213.000 C 312.569 214.676 314.299 215.000 321.458 215.000 C 329.333 215.000 330.000 214.844 330.000 213.000 C 330.000 211.125 329.333 211.000 319.311 211.000 L 308.623 211.000 310.770 213.000 "/></g>
<g fill="#ED6676FF" stroke="#ED6676FF">
<path d="M 273.000 181.553 C 273.000 181.857 274.055 183.659 275.345 185.557 C 277.564 188.822 277.740 188.897 278.611 186.947 C 279.493 184.969 280.381 184.877 300.515 184.689 L 321.500 184.492 301.219 184.246 C 284.270 184.040 280.843 183.754 280.362 182.500 C 279.825 181.100 273.000 180.223 273.000 181.553 "/></g>
<g fill="#FD9D58FF" stroke="#FD9D58FF">
<path d="M 476.628 221.882 C 476.026 223.575 475.555 223.898 474.998 222.997 C 474.421 222.063 473.916 222.289 473.078 223.855 C 472.452 225.024 471.616 225.913 471.220 225.831 C 469.658 225.508 467.000 227.293 467.000 228.666 C 467.000 229.465 466.550 229.840 466.000 229.500 C 464.199 228.387 464.953 230.647 467.000 232.500 C 468.134 233.526 469.000 233.810 469.000 233.155 C 469.000 232.520 469.563 231.993 470.250 231.984 C 470.938 231.975 472.993 230.652 474.818 229.043 C 477.534 226.649 478.076 225.518 477.806 222.809 C 477.495 219.690 477.427 219.637 476.628 221.882 "/></g>
<g fill="#6F52DEFF" stroke="#6F52DEFF">
<path d="M 239.190 280.071 C 239.437 280.812 238.348 282.682 236.770 284.225 C 235.192 285.768 234.154 287.441 234.465 287.943 C 234.775 288.445 234.164 289.131 233.107 289.466 C 232.050 289.802 230.932 290.734 230.624 291.538 C 229.752 293.811 237.241 293.496 239.345 291.171 C 241.256 289.060 241.638 280.512 239.870 279.420 C 239.192 279.001 238.920 279.261 239.190 280.071 "/></g>
<g fill="#FE8855FF" stroke="#FE8855FF">
<path d="M 442.576 208.663 C 440.968 209.534 438.718 211.125 437.576 212.200 C 436.434 213.275 434.245 214.901 432.712 215.815 C 430.969 216.853 430.031 218.174 430.212 219.337 C 430.463 220.957 431.344 220.633 436.999 216.850 C 440.574 214.459 444.213 211.826 445.087 211.001 C 445.961 210.175 447.536 208.964 448.588 208.309 C 450.377 207.194 450.339 207.116 448.000 207.099 C 446.625 207.089 444.184 207.792 442.576 208.663 "/></g>
<g fill="#A64EB0FF" stroke="#A64EB0FF">
<path d="M 138.818 198.500 C 138.192 199.875 137.301 201.000 136.839 201.000 C 136.378 201.000 136.000 201.675 136.000 202.500 C 136.000 203.325 135.571 204.000 135.047 204.000 C 134.523 204.000 133.346 205.575 132.433 207.500 C 131.520 209.425 130.373 211.000 129.886 211.000 C 129.399 211.000 129.000 212.125 129.000 213.500 C 129.000 215.333 128.467 216.000 127.000 216.000 C 125.900 216.000 125.000 216.430 125.000 216.955 C 125.000 217.480 123.879 219.030 122.508 220.401 C 121.138 221.771 120.422 223.143 120.918 223.449 C 122.535 224.448 124.792 222.916 126.000 220.000 C 126.651 218.429 127.817 216.900 128.592 216.603 C 129.366 216.306 130.000 215.378 130.000 214.540 C 130.000 213.703 131.350 211.727 133.000 210.150 C 134.650 208.574 136.000 206.818 136.000 206.249 C 136.000 205.680 136.704 204.944 137.563 204.614 C 138.423 204.284 138.884 203.621 138.587 203.141 C 138.290 202.660 138.937 201.462 140.024 200.479 C 142.127 198.575 142.676 196.000 140.979 196.000 C 140.417 196.000 139.445 197.125 138.818 198.500 "/></g>
<g fill="#FD9958FF" stroke="#FD9958FF">
<path d="M 474.500 218.297 C 472.850 219.484 470.935 220.999 470.244 221.662 C 469.553 222.326 468.091 223.154 466.994 223.502 C 465.897 223.850 465.000 224.554 465.000 225.067 C 465.000 225.580 464.380 226.000 463.622 226.000 C 462.865 226.000 461.685 226.675 461.000 227.500 C 459.970 228.741 460.078 229.013 461.628 229.077 C 462.657 229.119 464.288 229.304 465.250 229.488 C 466.213 229.672 467.000 229.236 467.000 228.519 C 467.000 227.263 469.732 225.524 471.220 225.831 C 471.616 225.913 472.452 225.024 473.078 223.855 C 473.873 222.369 474.438 222.091 474.958 222.932 C 475.445 223.721 476.132 223.096 476.951 221.118 C 478.752 216.770 477.933 215.828 474.500 218.297 "/></g>
<g fill="#ED6676FF" stroke="#ED6676FF">
<path d="M 258.321 158.019 C 258.490 159.129 258.937 159.729 259.314 159.352 C 259.691 158.975 260.000 159.370 260.000 160.231 C 260.000 162.418 265.101 168.000 267.100 168.000 C 268.010 168.000 269.315 167.325 270.000 166.500 C 271.011 165.281 270.967 165.000 269.761 165.000 C 268.945 165.000 267.204 162.975 265.891 160.500 C 263.949 156.839 262.992 156.000 260.758 156.000 C 258.569 156.000 258.075 156.409 258.321 158.019 "/></g>
<g fill="#F17372FF" stroke="#F17372FF">
<path d="M 300.235 158.250 C 301.520 159.488 302.506 161.501 302.424 162.724 C 302.342 163.947 302.664 164.708 303.138 164.415 C 303.612 164.122 304.563 164.239 305.250 164.676 C 306.209 165.284 306.173 165.473 305.096 165.485 C 303.985 165.497 304.024 165.775 305.286 166.822 C 306.162 167.549 308.117 167.999 309.629 167.822 C 312.208 167.520 312.274 167.396 310.689 165.821 C 309.760 164.898 309.000 163.716 309.000 163.194 C 309.000 162.672 308.325 161.685 307.500 161.000 C 306.675 160.315 306.000 158.910 306.000 157.878 C 306.000 156.350 305.245 156.000 301.948 156.000 L 297.897 156.000 300.235 158.250 "/></g>
<g fill="#8351CEFF" stroke="#8351CEFF">
<path d="M 205.174 264.917 C 205.396 266.977 204.840 268.019 203.845 267.405 C 203.153 266.977 202.962 267.129 203.367 267.784 C 203.738 268.385 203.245 269.323 202.271 269.868 C 201.297 270.413 200.612 271.116 200.749 271.429 C 201.131 272.302 193.936 282.000 192.906 282.000 C 192.408 282.000 192.000 282.642 192.000 283.427 C 192.000 284.213 190.814 285.788 189.365 286.927 C 187.916 288.067 187.032 289.000 187.400 289.000 C 187.769 289.000 187.589 289.900 187.000 291.000 C 186.411 292.100 186.203 293.000 186.536 293.000 C 187.286 293.000 190.000 290.341 190.000 289.606 C 190.000 289.311 191.350 287.688 193.000 286.000 C 194.650 284.312 196.000 282.272 196.000 281.466 C 196.000 280.659 196.702 280.000 197.559 280.000 C 198.416 280.000 198.859 279.581 198.542 279.068 C 198.226 278.556 198.871 277.503 199.977 276.729 C 201.083 275.954 201.762 275.096 201.488 274.821 C 201.213 274.546 201.890 273.504 202.994 272.506 C 204.097 271.507 205.000 270.133 205.000 269.452 C 205.000 268.771 205.675 267.955 206.500 267.638 C 208.418 266.902 208.461 264.333 206.556 264.333 C 205.761 264.333 205.139 264.596 205.174 264.917 "/></g>
<g fill="#F07172FF" stroke="#F07172FF">
<path d="M 291.000 181.847 C 291.000 183.539 294.009 184.000 305.050 184.000 C 313.938 184.000 315.839 183.745 315.403 182.609 C 314.993 181.541 312.099 181.182 302.935 181.063 C 296.056 180.974 291.000 181.306 291.000 181.847 "/></g>
</svg>
