<?xml version="1.0" encoding="UTF-8" standalone="no"?>
<!-- Created with Inkscape (http://www.inkscape.org/) -->

<svg
   version="1.1"
   id="svg148"
   width="1024"
   height="1024"
   viewBox="0 0 1024 1024"
   sodipodi:docname="mauros"
   inkscape:version="1.2.2 (732a01da63, 2022-12-09, custom)"
   xmlns:inkscape="http://www.inkscape.org/namespaces/inkscape"
   xmlns:sodipodi="http://sodipodi.sourceforge.net/DTD/sodipodi-0.dtd"
   xmlns="http://www.w3.org/2000/svg"
   xmlns:svg="http://www.w3.org/2000/svg">
  <defs
     id="defs152" />
  <sodipodi:namedview
     id="namedview150"
     pagecolor="#ffffff"
     bordercolor="#000000"
     borderopacity="0.25"
     inkscape:showpageshadow="2"
     inkscape:pageopacity="0.0"
     inkscape:pagecheckerboard="0"
     inkscape:deskcolor="#d1d1d1"
     showgrid="false"
     inkscape:zoom="0.51790047"
     inkscape:cx="-195.01816"
     inkscape:cy="436.37728"
     inkscape:window-width="1920"
     inkscape:window-height="953"
     inkscape:window-x="0"
     inkscape:window-y="27"
     inkscape:window-maximized="1"
     inkscape:current-layer="g2696" />
  <g
     inkscape:groupmode="layer"
     inkscape:label="Image"
     id="g154">
    <g
       id="g2696"
       transform="translate(-44.410074,-19.308729)">
      <g
         id="g12236"
         transform="translate(128.72198,69.830014)">
        <path
           style="fill:#16697a;fill-opacity:1;stroke-width:0.965436"
           d="m 339.78576,590.78468 c 3.34897,-1.44327 1.72999,-2.34064 -1.92446,-1.06669 -4.48983,1.56517 -9.41171,1.28641 -24.04113,-1.3616 -15.65912,-2.8344 -14.85956,-2.63003 -16.89395,-4.31841 -0.96853,-0.8038 -3.21539,-1.24891 -5.47928,-1.08545 -4.21481,0.30432 -12.46249,-1.36605 -16.24423,-3.28988 -1.32747,-0.6753 -4.3686,-1.74293 -6.75805,-2.37249 -2.38946,-0.62957 -6.73392,-2.13229 -9.65437,-3.33938 -2.92044,-1.20708 -7.91658,-3.00041 -11.10252,-3.98518 -11.37952,-3.51737 -55.50812,-26.94306 -58.64313,-31.13074 -0.66765,-0.89184 -1.8656,-1.75402 -2.66208,-1.91595 -0.79649,-0.16193 -1.9305,-0.92221 -2.52003,-1.68952 -0.58952,-0.7673 -1.75962,-1.39509 -2.6002,-1.39509 -0.84059,0 -2.09603,-0.78889 -2.78988,-1.75309 -0.69385,-0.9642 -1.91321,-1.99611 -2.70969,-2.29312 -2.15636,-0.80411 -16.28309,-12.39288 -22.31266,-18.30402 -7.85418,-7.69992 -21.5155,-22.90717 -27.31665,-30.40784 -6.05727,-7.83182 -8.71733,-13.11041 -7.99628,-15.8677 0.39877,-1.52492 0.16556,-1.86609 -0.97613,-1.42798 -2.03033,0.77912 -4.15165,-1.14758 -4.15165,-3.77072 0,-1.18016 -0.85165,-2.91648 -1.89256,-3.85849 -1.0409,-0.942 -1.80118,-1.99524 -1.68951,-2.3405 0.11167,-0.34528 -0.77446,-1.67881 -1.96919,-2.9634 -2.33354,-2.50907 -2.75688,-4.39257 -1.20313,-5.35285 0.53667,-0.33167 -0.31784,-1.68182 -1.91499,-3.02573 -1.80828,-1.52158 -3.4302,-4.26575 -4.348126,-7.35676 -1.83071,-6.16467 -1.83325,-7.05322 -0.0159,-5.54494 1.211036,1.00508 1.448146,0.86127 1.448146,-0.87833 0,-1.25492 -0.8618,-2.4266 -2.172226,-2.95333 -1.2168,-0.48909 -1.53962,-0.90005 -0.73394,-0.93432 0.97218,-0.0414 0.55023,-0.88465 -1.30201,-2.60214 -2.18399,-2.02511 -2.62785,-3.10316 -2.18642,-5.31032 0.30463,-1.52316 0.0619,-3.96392 -0.53946,-5.42391 -0.98123,-2.38236 -1.14312,-2.45656 -1.57895,-0.72366 -0.82848,3.2942 -2.94887,-10.02039 -3.0127,-18.91774 -0.0715,-9.96796 0.78834,-11.13045 8.6294,-11.6666 4.331726,-0.2962 6.288066,0.12743 10.619796,2.29962 4.29726,2.15491 5.36943,2.39015 5.62205,1.23353 0.17168,-0.78605 0.74038,-1.42918 1.26377,-1.42918 0.5234,0 0.68313,-0.43445 0.35495,-0.96544 -0.84287,-1.3638 1.78854,-1.20432 3.18595,0.19309 0.88147,0.88147 1.15852,0.88562 1.15852,0.0174 0,-2.50769 19.01049,-0.48279 21.29351,2.26808 0.88124,1.06184 1.48896,1.1404 2.47719,0.32024 1.67931,-1.39369 5.65527,-0.66134 19.67394,3.62383 23.95905,7.32374 44.23067,16.49538 68.3097,30.90591 13.29192,7.9548 31.75872,20.19521 32.26546,21.38664 0.17212,0.40468 3.41467,3.22675 7.20565,6.27127 3.79099,3.04452 7.09835,6.32184 7.34968,7.28293 0.25133,0.96109 1.05962,1.76531 1.79622,1.78716 0.73659,0.0218 2.5829,0.37084 4.10291,0.77556 2.75216,0.73279 2.75717,0.72594 1.20341,-1.64539 -0.85814,-1.30969 -1.26909,-2.6724 -0.91323,-3.02826 0.35585,-0.35585 -0.10563,-0.64701 -1.02552,-0.64701 -0.9199,0 -2.49978,-0.44273 -3.51086,-0.98383 -1.56631,-0.83827 -1.67508,-1.34211 -0.73506,-3.40522 1.43589,-3.15144 -0.0619,-4.95627 -2.86713,-3.45494 -1.5056,0.80577 -2.25224,0.64894 -3.50595,-0.73638 -0.89089,-0.98443 -1.32442,-2.45996 -0.98366,-3.34796 0.39418,-1.02725 0.11096,-1.58778 -0.80228,-1.58778 -4.73703,0 -32.5853,-54.43518 -32.5853,-63.69469 0,-1.07524 -0.39626,-1.95499 -0.88057,-1.95499 -0.48432,0 -1.16247,-1.66851 -1.50701,-3.7078 -0.34453,-2.0393 -1.21353,-4.83946 -1.93109,-6.22256 -0.71757,-1.38311 -2.73157,-8.6509 -4.47555,-16.15063 -2.42035,-10.40833 -2.89063,-13.8091 -1.98683,-14.36767 0.88847,-0.54911 0.72334,-1.31749 -0.66149,-3.07802 -1.2771,-1.62355 -2.20564,-5.31764 -3.01461,-11.99325 -0.64297,-5.30586 -1.5488,-12.68815 -2.01294,-16.40508 -1.89358,-15.16415 -0.42749,-43.68796 3.07658,-59.85706 1.03566,-4.77891 2.30662,-10.96945 2.82436,-13.75675 1.34686,-7.25094 4.69397,-15.69426 7.22479,-18.2251 1.19578,-1.19577 1.97095,-2.3773 1.72262,-2.62564 -0.71051,-0.71051 2.38599,-6.16091 4.75298,-8.36609 1.26888,-1.18214 3.13795,-1.88374 4.5755,-1.71752 2.16058,0.24983 2.43632,-0.0781 2.48422,-2.95408 0.042,-2.51959 0.87782,-3.94714 3.7793,-6.45457 4.12639,-3.56597 7.6936,-5.02478 22.75374,-9.30519 1.87904,-0.53406 6.65795,-0.73665 10.6198,-0.4502 3.96185,0.28646 8.1962,0.54653 9.40967,0.57794 1.34964,0.0349 2.54416,0.89742 3.07647,2.22134 0.47859,1.19033 0.89771,1.57364 0.93136,0.85181 0.10007,-2.14607 10.69497,-0.13638 14.74502,2.79689 1.43872,1.04201 3.07652,1.89456 3.63957,1.89456 1.89515,0 8.54657,4.73608 12.2626,8.73148 11.34768,12.20074 19.7276,29.80254 22.2717,46.78112 1.29024,8.61062 0.68152,34.17402 -1.09198,45.85823 -2.16851,14.28657 -8.2416,39.31497 -12.53299,51.65085 -4.18477,12.0294 -5.63583,17.37779 -5.91544,21.8034 -0.12024,1.90306 -1.31408,7.11641 -2.653,11.58524 -3.96223,13.22452 -4.64956,17.01162 -5.75718,31.72107 -1.21249,16.10231 -0.26717,29.26843 3.52524,49.09828 3.24567,16.971 4.6566,29.55025 3.36307,29.98353 -0.64432,0.21582 -0.51886,0.92636 0.34095,1.93087 1.94041,2.26698 2.68913,4.81134 1.61176,5.47719 -1.38278,0.85461 -1.1121,2.38754 0.42158,2.38754 1.8582,0 2.78566,2.85733 1.4499,4.46683 -0.85479,1.02995 -0.75633,1.32578 0.44127,1.32578 1.50568,0 4.48746,4.55297 4.48746,6.85204 0,0.63543 1.45644,2.93784 3.23652,5.11649 1.78009,2.17864 3.94349,5.33447 4.80756,7.01294 0.86406,1.67847 6.14154,7.31978 11.72774,12.53626 5.58619,5.21648 10.15671,9.99338 10.15671,10.61533 0,0.62759 0.80001,0.92161 1.79773,0.6607 1.07869,-0.28208 2.03195,0.14022 2.3833,1.05582 0.32206,0.83926 1.25086,1.52594 2.06401,1.52594 0.81315,0 1.47845,0.43444 1.47845,0.96543 0,0.53099 1.05509,0.96544 2.34463,0.96544 1.28956,0 2.9226,0.57797 3.62901,1.28438 0.70641,0.7064 1.76824,1.12308 2.35962,0.92596 0.59139,-0.19713 1.31856,0.57194 1.61592,1.70906 0.29879,1.14257 1.00163,1.78259 1.57108,1.43066 0.56673,-0.35026 1.03042,-0.22741 1.03042,0.27298 0,1.34144 4.17022,2.198 4.90588,1.00767 0.41983,-0.67929 1.7066,-0.4637 3.85094,0.64518 1.77124,0.91595 5.19586,1.81357 7.61025,1.99471 7.19607,0.53992 11.63058,1.46182 11.63058,2.41789 0,0.49443 1.03873,0.63827 2.30828,0.31963 1.33604,-0.33533 2.60676,-0.0964 3.01699,0.5674 0.53191,0.86067 0.91209,0.81998 1.52401,-0.16313 0.62273,-1.00048 1.22509,-1.05614 2.55021,-0.23567 1.31974,0.81714 2.02901,0.75938 2.96384,-0.24136 0.6759,-0.72355 2.67664,-1.31556 4.44608,-1.31556 4.45828,0 19.77016,-4.00385 29.101,-7.60952 8.48877,-3.28027 17.84831,-8.5569 21.72298,-12.24675 1.35652,-1.29182 2.8292,-2.34877 3.27259,-2.34877 0.4434,0 1.38331,-0.76028 2.0887,-1.68951 1.13841,-1.49967 1.28598,-1.51296 1.31323,-0.11821 0.0169,0.86421 -0.62097,2.11213 -1.41745,2.77316 -0.79649,0.66102 -1.44816,1.80034 -1.44816,2.5318 0,0.73147 -0.43444,1.32995 -0.96543,1.32995 -0.53099,0 -0.96544,0.85377 -0.96544,1.89727 0,1.04351 -1.33698,3.42002 -2.97106,5.28114 -1.63409,1.86112 -2.71701,3.79493 -2.4065,4.29734 0.89903,1.45465 -15.96089,15.02879 -24.06825,19.37764 -2.12396,1.13932 -4.51342,2.47122 -5.3099,2.95979 -4.06739,2.49498 -18.47266,8.73039 -21.33759,9.23612 -1.80457,0.31855 -5.49393,1.58613 -8.19856,2.81685 -7.83241,3.56406 -13.21512,4.96853 -13.68136,3.56978 -0.21563,-0.64688 -0.79634,-0.92628 -1.29047,-0.62089 -0.49413,0.30539 -5.56177,1.41744 -11.26142,2.47121 -8.02046,1.48285 -16.03712,2.01574 -35.46435,2.35744 -17.75021,0.3122 -24.42414,0.14965 -22.78895,-0.55506 z"
           id="path3182" />
        <path
           style="fill:#489fb5;fill-opacity:1;stroke-width:0.965436"
           d="m 261.6866,745.87932 c -16.24286,-4.76291 -29.76702,-20.4661 -35.91364,-41.70012 -1.90405,-6.57772 -2.21999,-9.86668 -2.2205,-23.11584 -6.8e-4,-17.47037 0.85881,-22.10899 6.26101,-33.79028 6.03104,-13.04104 14.4265,-21.80587 28.97682,-30.25167 19.66238,-11.41311 43.5915,-16.82183 88.33744,-19.96698 22.19839,-1.56031 46.11207,-4.35846 57.22287,-6.69569 6.48657,-1.3645 19.46503,-5.55707 22.63635,-7.31248 0.91238,-0.50502 3.611,-1.3557 5.99692,-1.8904 2.38592,-0.5347 6.85279,-2.14597 9.92636,-3.58061 3.07358,-1.43464 6.13138,-2.57092 6.79512,-2.52508 0.66374,0.0458 1.2068,-0.25215 1.2068,-0.66221 0,-0.41006 0.76028,-1.00041 1.68951,-1.31189 2.80269,-0.93945 16.71704,-10.39407 24.07559,-16.35906 8.87959,-7.19796 16.09868,-15.4675 25.28162,-28.96032 4.0492,-5.94964 7.99039,-10.81753 8.7582,-10.81753 0.76782,0 2.99323,-2.76238 4.94538,-6.13862 1.95215,-3.37624 4.6909,-7.43954 6.08611,-9.02956 1.39522,-1.59002 2.53676,-3.34719 2.53676,-3.90482 0,-0.55764 0.91995,0.0301 2.04434,1.30607 1.88691,2.14129 1.99975,3.06341 1.4653,11.97431 -1.01165,16.86729 -5.14203,36.07475 -12.87168,59.85706 -10.55013,32.46022 -28.52761,61.73222 -51.6182,84.04782 -21.13324,20.42394 -30.49994,27.93435 -55.34135,44.37377 -29.59195,19.58322 -72.14308,37.73815 -104.28064,44.49253 -14.108,2.96509 -35.21253,3.95085 -41.99649,1.9616 z"
           id="path3253" />
        <path
           style="fill:#82c0cc;fill-opacity:1;stroke-width:0.965436"
           d="m 557.11016,745.70428 c -28.4184,-6.05912 -46.75082,-24.85467 -53.63171,-54.98656 -5.14099,-22.51272 -2.71456,-46.84204 9.21457,-92.39282 2.12752,-8.12383 6.30334,-24.11122 9.27958,-35.52751 2.97625,-11.41628 5.89899,-22.49467 6.49499,-24.61863 1.57696,-5.6198 1.47448,-56.6369 -0.13478,-67.09783 -2.63452,-17.12561 -7.86726,-33.6074 -12.96781,-40.84528 -1.05057,-1.49079 -1.7213,-2.89935 -1.49053,-3.13013 1.36487,-1.36487 41.12565,29.69172 55.62102,43.44481 7.82356,7.42293 10.13976,10.98722 9.30393,14.31742 -0.76109,3.03241 0.95997,7.15723 3.29562,7.89853 1.05875,0.33604 2.06114,1.56794 2.22753,2.73757 0.16639,1.16962 1.25329,2.54392 2.41534,3.05401 1.16204,0.51008 2.32466,1.73755 2.58359,2.72772 0.26969,1.03129 1.22295,1.72173 2.23166,1.61635 3.18594,-0.33282 4.17446,0.0192 4.17446,1.48656 0,0.79648 0.41116,1.44815 0.91368,1.44815 1.32085,0 12.74539,23.63518 17.89754,37.02658 21.7349,56.4931 22.51736,138.99033 1.69415,178.61699 -4.15296,7.90308 -12.07825,16.83044 -18.04613,20.32785 -2.31851,1.35874 -6.73551,3.12682 -9.81554,3.92907 -6.94493,1.80893 -22.70056,1.79237 -31.26116,-0.0328 z"
           id="path3255" />
        <path
           style="fill:#ffa62b;fill-opacity:1;stroke-width:0.965436"
           d="m 329.45744,453.13745 c -0.66292,-4.20232 -1.8471,-11.76783 -2.6315,-16.81223 -1.54595,-9.9418 -1.70712,-30.7397 -0.32919,-42.47921 1.11895,-9.53307 3.85586,-20.36354 9.7588,-38.61746 6.12547,-18.94203 10.58524,-27.76675 26.34689,-52.13356 19.92558,-30.80408 52.8165,-61.26278 89.64439,-83.01536 20.77519,-12.27097 51.31365,-25.91284 72.03849,-32.18039 42.48238,-12.8474 73.87609,-11.64088 88.51129,3.40165 4.5378,4.6641 10.69969,16.39374 13.64796,25.97996 4.46536,14.51898 5.09971,33.3557 1.57316,46.71396 -6.02121,22.80777 -23.55533,39.43417 -51.38402,48.72393 -11.74908,3.92206 -22.40648,5.93364 -63.93363,12.06742 -42.52295,6.28086 -59.75713,9.65533 -76.81325,15.0401 -16.15302,5.09965 -37.06924,15.41246 -48.21077,23.77049 -17.6219,13.21938 -37.97594,36.51117 -45.38482,51.93532 -4.1157,8.56826 -7.71445,21.1652 -9.91584,34.70907 l -1.71264,10.53689 z"
           id="path3395" />
        <path
           style="fill:#ede7e3;fill-opacity:1;stroke-width:0.965436"
           d="m 721.75463,533.34564 c -29.3385,-4.15651 -60.95274,-13.80055 -87.40955,-26.66463 -32.31199,-15.71102 -42.90575,-23.17306 -105.07946,-74.01595 -9.25872,-7.57137 -17.54658,-16.69751 -22.17195,-24.41456 -2.56384,-4.27754 -15.28723,-16.92299 -22.31545,-22.17875 -9.47257,-7.08366 -23.77144,-12.95979 -40.14141,-16.49615 -3.44083,-0.74332 -11.86806,-1.22495 -20.75688,-1.1863 -12.92383,0.0562 -16.25312,0.40774 -24.41652,2.57815 -10.67054,2.837 -21.11032,7.79861 -28.10389,13.35665 -7.48849,5.95137 -6.60766,3.22075 1.35227,-4.19214 44.5662,-41.50337 107.37369,-56.46887 182.95021,-43.59258 40.77472,6.94697 80.24058,22.2752 113.92151,44.24624 25.45985,16.6082 51.46318,43.03901 67.78989,68.90433 15.49146,24.54207 28.82975,59.80406 28.07841,74.22997 l -0.29009,5.56992 -4.81521,2.3852 c -4.24081,2.10069 -6.25619,2.41192 -16.89513,2.60913 -6.64397,0.12316 -16.4075,-0.38917 -21.69675,-1.13853 z"
           id="path7096" />
      </g>
    </g>
  </g>
</svg>
