<?xml version="1.0" encoding="UTF-8" standalone="no"?>
<!-- Created with Inkscape (http://www.inkscape.org/) -->

<svg
   version="1.1"
   id="svg148"
   width="1024"
   height="1024"
   viewBox="0 0 1024 1024"
   sodipodi:docname="mos.svg"
   inkscape:version="1.1.2 (0a00cf5339, 2022-02-04)"
   xmlns:inkscape="http://www.inkscape.org/namespaces/inkscape"
   xmlns:sodipodi="http://sodipodi.sourceforge.net/DTD/sodipodi-0.dtd"
   xmlns:xlink="http://www.w3.org/1999/xlink"
   xmlns="http://www.w3.org/2000/svg"
   xmlns:svg="http://www.w3.org/2000/svg">
  <defs
     id="defs152">
    <inkscape:path-effect
       effect="spiro"
       id="path-effect43082"
       is_visible="true"
       lpeversion="1" />
    <inkscape:path-effect
       effect="spiro"
       id="path-effect42158"
       is_visible="true"
       lpeversion="1" />
    <inkscape:path-effect
       effect="spiro"
       id="path-effect41700"
       is_visible="true"
       lpeversion="1" />
    <inkscape:path-effect
       effect="spiro"
       id="path-effect41503"
       is_visible="true"
       lpeversion="1" />
    <inkscape:path-effect
       effect="spiro"
       id="path-effect41185"
       is_visible="true"
       lpeversion="1" />
    <inkscape:path-effect
       effect="spiro"
       id="path-effect39974"
       is_visible="true"
       lpeversion="1" />
    <linearGradient
       inkscape:collect="always"
       id="linearGradient37897">
      <stop
         style="stop-color:#82c0cc;stop-opacity:1;"
         offset="0"
         id="stop37893" />
      <stop
         style="stop-color:#82c0cc;stop-opacity:0;"
         offset="1"
         id="stop37895" />
    </linearGradient>
    <linearGradient
       inkscape:collect="always"
       xlink:href="#linearGradient37897"
       id="linearGradient37891"
       x1="667.73157"
       y1="543.1261"
       x2="667.54968"
       y2="541.85297"
       gradientUnits="userSpaceOnUse" />
  </defs>
  <sodipodi:namedview
     id="namedview150"
     pagecolor="#ffffff"
     bordercolor="#000000"
     borderopacity="0.25"
     inkscape:showpageshadow="2"
     inkscape:pageopacity="0.0"
     inkscape:pagecheckerboard="0"
     inkscape:deskcolor="#d1d1d1"
     showgrid="false"
     inkscape:zoom="0.68111408"
     inkscape:cx="228.30243"
     inkscape:cy="479.36169"
     inkscape:window-width="1920"
     inkscape:window-height="1016"
     inkscape:window-x="0"
     inkscape:window-y="0"
     inkscape:window-maximized="1"
     inkscape:current-layer="g2696"
     inkscape:pageshadow="2" />
  <g
     inkscape:groupmode="layer"
     inkscape:label="Image"
     id="g154">
    <g
       id="g2696"
       transform="translate(-44.410074,-19.308729)">
      <g
         id="g12236"
         transform="translate(128.72198,69.830014)">
        <path
           style="fill:#16697a;fill-opacity:1;stroke-width:0.965436"
           d="m 339.78576,590.78468 c 3.34897,-1.44327 1.72999,-2.34064 -1.92446,-1.06669 -4.48983,1.56517 -9.41171,1.28641 -24.04113,-1.3616 -15.65912,-2.8344 -14.85956,-2.63003 -16.89395,-4.31841 -0.96853,-0.8038 -3.21539,-1.24891 -5.47928,-1.08545 -4.21481,0.30432 -12.46249,-1.36605 -16.24423,-3.28988 -1.32747,-0.6753 -4.3686,-1.74293 -6.75805,-2.37249 -2.38946,-0.62957 -6.73392,-2.13229 -9.65437,-3.33938 -2.92044,-1.20708 -7.91658,-3.00041 -11.10252,-3.98518 -11.37952,-3.51737 -55.50812,-26.94306 -58.64313,-31.13074 -0.66765,-0.89184 -1.8656,-1.75402 -2.66208,-1.91595 -0.79649,-0.16193 -1.9305,-0.92221 -2.52003,-1.68952 -0.58952,-0.7673 -1.75962,-1.39509 -2.6002,-1.39509 -0.84059,0 -2.09603,-0.78889 -2.78988,-1.75309 -0.69385,-0.9642 -1.91321,-1.99611 -2.70969,-2.29312 -2.15636,-0.80411 -16.28309,-12.39288 -22.31266,-18.30402 -7.85418,-7.69992 -21.5155,-22.90717 -27.31665,-30.40784 -6.05727,-7.83182 -8.71733,-13.11041 -7.99628,-15.8677 0.39877,-1.52492 0.16556,-1.86609 -0.97613,-1.42798 -2.03033,0.77912 -4.15165,-1.14758 -4.15165,-3.77072 0,-1.18016 -0.85165,-2.91648 -1.89256,-3.85849 -1.0409,-0.942 -1.80118,-1.99524 -1.68951,-2.3405 0.11167,-0.34528 -0.77446,-1.67881 -1.96919,-2.9634 -2.33354,-2.50907 -2.75688,-4.39257 -1.20313,-5.35285 0.53667,-0.33167 -0.31784,-1.68182 -1.91499,-3.02573 -1.80828,-1.52158 -3.4302,-4.26575 -4.348126,-7.35676 -1.83071,-6.16467 -1.83325,-7.05322 -0.0159,-5.54494 1.211036,1.00508 1.448146,0.86127 1.448146,-0.87833 0,-1.25492 -0.8618,-2.4266 -2.172226,-2.95333 -1.2168,-0.48909 -1.53962,-0.90005 -0.73394,-0.93432 0.97218,-0.0414 0.55023,-0.88465 -1.30201,-2.60214 -2.18399,-2.02511 -2.62785,-3.10316 -2.18642,-5.31032 0.30463,-1.52316 0.0619,-3.96392 -0.53946,-5.42391 -0.98123,-2.38236 -1.14312,-2.45656 -1.57895,-0.72366 -0.82848,3.2942 -2.94887,-10.02039 -3.0127,-18.91774 -0.0715,-9.96796 0.78834,-11.13045 8.6294,-11.6666 4.331726,-0.2962 6.288066,0.12743 10.619796,2.29962 4.29726,2.15491 5.36943,2.39015 5.62205,1.23353 0.17168,-0.78605 0.74038,-1.42918 1.26377,-1.42918 0.5234,0 0.68313,-0.43445 0.35495,-0.96544 -0.84287,-1.3638 1.78854,-1.20432 3.18595,0.19309 0.88147,0.88147 1.15852,0.88562 1.15852,0.0174 0,-2.50769 19.01049,-0.48279 21.29351,2.26808 0.88124,1.06184 1.48896,1.1404 2.47719,0.32024 1.67931,-1.39369 5.65527,-0.66134 19.67394,3.62383 23.95905,7.32374 44.23067,16.49538 68.3097,30.90591 13.29192,7.9548 31.75872,20.19521 32.26546,21.38664 0.17212,0.40468 3.41467,3.22675 7.20565,6.27127 3.79099,3.04452 7.09835,6.32184 7.34968,7.28293 0.25133,0.96109 1.05962,1.76531 1.79622,1.78716 0.73659,0.0218 2.5829,0.37084 4.10291,0.77556 2.75216,0.73279 2.75717,0.72594 1.20341,-1.64539 -0.85814,-1.30969 -1.26909,-2.6724 -0.91323,-3.02826 0.35585,-0.35585 -0.10563,-0.64701 -1.02552,-0.64701 -0.9199,0 -2.49978,-0.44273 -3.51086,-0.98383 -1.56631,-0.83827 -1.67508,-1.34211 -0.73506,-3.40522 1.43589,-3.15144 -0.0619,-4.95627 -2.86713,-3.45494 -1.5056,0.80577 -2.25224,0.64894 -3.50595,-0.73638 -0.89089,-0.98443 -1.32442,-2.45996 -0.98366,-3.34796 0.39418,-1.02725 0.11096,-1.58778 -0.80228,-1.58778 -4.73703,0 -32.5853,-54.43518 -32.5853,-63.69469 0,-1.07524 -0.39626,-1.95499 -0.88057,-1.95499 -0.48432,0 -1.16247,-1.66851 -1.50701,-3.7078 -0.34453,-2.0393 -1.21353,-4.83946 -1.93109,-6.22256 -0.71757,-1.38311 -2.73157,-8.6509 -4.47555,-16.15063 -2.42035,-10.40833 -2.89063,-13.8091 -1.98683,-14.36767 0.88847,-0.54911 0.72334,-1.31749 -0.66149,-3.07802 -1.2771,-1.62355 -2.20564,-5.31764 -3.01461,-11.99325 -0.64297,-5.30586 -1.5488,-12.68815 -2.01294,-16.40508 -1.89358,-15.16415 -0.42749,-43.68796 3.07658,-59.85706 1.03566,-4.77891 2.30662,-10.96945 2.82436,-13.75675 1.34686,-7.25094 4.69397,-15.69426 7.22479,-18.2251 1.19578,-1.19577 1.97095,-2.3773 1.72262,-2.62564 -0.71051,-0.71051 2.38599,-6.16091 4.75298,-8.36609 1.26888,-1.18214 3.13795,-1.88374 4.5755,-1.71752 2.16058,0.24983 2.43632,-0.0781 2.48422,-2.95408 0.042,-2.51959 0.87782,-3.94714 3.7793,-6.45457 4.12639,-3.56597 7.6936,-5.02478 22.75374,-9.30519 1.87904,-0.53406 6.65795,-0.73665 10.6198,-0.4502 3.96185,0.28646 8.1962,0.54653 9.40967,0.57794 1.34964,0.0349 2.54416,0.89742 3.07647,2.22134 0.47859,1.19033 0.89771,1.57364 0.93136,0.85181 0.10007,-2.14607 10.69497,-0.13638 14.74502,2.79689 1.43872,1.04201 3.07652,1.89456 3.63957,1.89456 1.89515,0 8.54657,4.73608 12.2626,8.73148 11.34768,12.20074 19.7276,29.80254 22.2717,46.78112 1.29024,8.61062 0.68152,34.17402 -1.09198,45.85823 -2.16851,14.28657 -8.2416,39.31497 -12.53299,51.65085 -4.18477,12.0294 -5.63583,17.37779 -5.91544,21.8034 -0.12024,1.90306 -1.31408,7.11641 -2.653,11.58524 -3.96223,13.22452 -4.64956,17.01162 -5.75718,31.72107 -1.21249,16.10231 -0.26717,29.26843 3.52524,49.09828 3.24567,16.971 4.6566,29.55025 3.36307,29.98353 -0.64432,0.21582 -0.51886,0.92636 0.34095,1.93087 1.94041,2.26698 2.68913,4.81134 1.61176,5.47719 -1.38278,0.85461 -1.1121,2.38754 0.42158,2.38754 1.8582,0 2.78566,2.85733 1.4499,4.46683 -0.85479,1.02995 -0.75633,1.32578 0.44127,1.32578 1.50568,0 4.48746,4.55297 4.48746,6.85204 0,0.63543 1.45644,2.93784 3.23652,5.11649 1.78009,2.17864 3.94349,5.33447 4.80756,7.01294 0.86406,1.67847 6.14154,7.31978 11.72774,12.53626 5.58619,5.21648 10.15671,9.99338 10.15671,10.61533 0,0.62759 0.80001,0.92161 1.79773,0.6607 1.07869,-0.28208 2.03195,0.14022 2.3833,1.05582 0.32206,0.83926 1.25086,1.52594 2.06401,1.52594 0.81315,0 1.47845,0.43444 1.47845,0.96543 0,0.53099 1.05509,0.96544 2.34463,0.96544 1.28956,0 2.9226,0.57797 3.62901,1.28438 0.70641,0.7064 1.76824,1.12308 2.35962,0.92596 0.59139,-0.19713 1.31856,0.57194 1.61592,1.70906 0.29879,1.14257 1.00163,1.78259 1.57108,1.43066 0.56673,-0.35026 1.03042,-0.22741 1.03042,0.27298 0,1.34144 4.17022,2.198 4.90588,1.00767 0.41983,-0.67929 1.7066,-0.4637 3.85094,0.64518 1.77124,0.91595 5.19586,1.81357 7.61025,1.99471 7.19607,0.53992 11.63058,1.46182 11.63058,2.41789 0,0.49443 1.03873,0.63827 2.30828,0.31963 1.33604,-0.33533 2.60676,-0.0964 3.01699,0.5674 0.53191,0.86067 0.91209,0.81998 1.52401,-0.16313 0.62273,-1.00048 1.22509,-1.05614 2.55021,-0.23567 1.31974,0.81714 2.02901,0.75938 2.96384,-0.24136 0.6759,-0.72355 2.67664,-1.31556 4.44608,-1.31556 4.45828,0 19.77016,-4.00385 29.101,-7.60952 8.48877,-3.28027 17.84831,-8.5569 21.72298,-12.24675 1.35652,-1.29182 2.8292,-2.34877 3.27259,-2.34877 0.4434,0 1.38331,-0.76028 2.0887,-1.68951 1.13841,-1.49967 1.28598,-1.51296 1.31323,-0.11821 0.0169,0.86421 -0.62097,2.11213 -1.41745,2.77316 -0.79649,0.66102 -1.44816,1.80034 -1.44816,2.5318 0,0.73147 -0.43444,1.32995 -0.96543,1.32995 -0.53099,0 -0.96544,0.85377 -0.96544,1.89727 0,1.04351 -1.33698,3.42002 -2.97106,5.28114 -1.63409,1.86112 -2.71701,3.79493 -2.4065,4.29734 0.89903,1.45465 -15.96089,15.02879 -24.06825,19.37764 -2.12396,1.13932 -4.51342,2.47122 -5.3099,2.95979 -4.06739,2.49498 -18.47266,8.73039 -21.33759,9.23612 -1.80457,0.31855 -5.49393,1.58613 -8.19856,2.81685 -7.83241,3.56406 -13.21512,4.96853 -13.68136,3.56978 -0.21563,-0.64688 -0.79634,-0.92628 -1.29047,-0.62089 -0.49413,0.30539 -5.56177,1.41744 -11.26142,2.47121 -8.02046,1.48285 -16.03712,2.01574 -35.46435,2.35744 -17.75021,0.3122 -24.42414,0.14965 -22.78895,-0.55506 z"
           id="path3182" />
        <path
           style="fill:#489fb5;fill-opacity:1;stroke-width:0.965436"
           d="m 261.6866,745.87932 c -16.24286,-4.76291 -29.76702,-20.4661 -35.91364,-41.70012 -1.90405,-6.57772 -2.21999,-9.86668 -2.2205,-23.11584 -6.8e-4,-17.47037 0.85881,-22.10899 6.26101,-33.79028 6.03104,-13.04104 14.4265,-21.80587 28.97682,-30.25167 19.66238,-11.41311 43.5915,-16.82183 88.33744,-19.96698 22.19839,-1.56031 46.11207,-4.35846 57.22287,-6.69569 6.48657,-1.3645 19.46503,-5.55707 22.63635,-7.31248 0.91238,-0.50502 3.611,-1.3557 5.99692,-1.8904 2.38592,-0.5347 6.85279,-2.14597 9.92636,-3.58061 3.07358,-1.43464 6.13138,-2.57092 6.79512,-2.52508 0.66374,0.0458 1.2068,-0.25215 1.2068,-0.66221 0,-0.41006 0.76028,-1.00041 1.68951,-1.31189 2.80269,-0.93945 16.71704,-10.39407 24.07559,-16.35906 8.87959,-7.19796 16.09868,-15.4675 25.28162,-28.96032 4.0492,-5.94964 7.99039,-10.81753 8.7582,-10.81753 0.76782,0 2.99323,-2.76238 4.94538,-6.13862 1.95215,-3.37624 4.6909,-7.43954 6.08611,-9.02956 1.39522,-1.59002 2.53676,-3.34719 2.53676,-3.90482 0,-0.55764 0.91995,0.0301 2.04434,1.30607 1.88691,2.14129 1.99975,3.06341 1.4653,11.97431 -1.01165,16.86729 -5.14203,36.07475 -12.87168,59.85706 -10.55013,32.46022 -28.52761,61.73222 -51.6182,84.04782 -21.13324,20.42394 -30.49994,27.93435 -55.34135,44.37377 -29.59195,19.58322 -72.14308,37.73815 -104.28064,44.49253 -14.108,2.96509 -35.21253,3.95085 -41.99649,1.9616 z"
           id="path3253" />
        <path
           style="fill:#82c0cc;fill-opacity:1;stroke-width:0.965436"
           d="m 557.11016,745.70428 c -28.4184,-6.05912 -46.75082,-24.85467 -53.63171,-54.98656 -5.14099,-22.51272 -2.71456,-46.84204 9.21457,-92.39282 2.12752,-8.12383 6.30334,-24.11122 9.27958,-35.52751 2.97625,-11.41628 5.89899,-22.49467 6.49499,-24.61863 1.57696,-5.6198 1.47448,-56.6369 -0.13478,-67.09783 -2.63452,-17.12561 -7.86726,-33.6074 -12.96781,-40.84528 -1.05057,-1.49079 -1.7213,-2.89935 -1.49053,-3.13013 1.36487,-1.36487 41.12565,29.69172 55.62102,43.44481 7.82356,7.42293 10.13976,10.98722 9.30393,14.31742 -0.76109,3.03241 0.95997,7.15723 3.29562,7.89853 1.05875,0.33604 2.06114,1.56794 2.22753,2.73757 0.16639,1.16962 1.25329,2.54392 2.41534,3.05401 1.16204,0.51008 2.32466,1.73755 2.58359,2.72772 0.26969,1.03129 1.22295,1.72173 2.23166,1.61635 3.18594,-0.33282 4.17446,0.0192 4.17446,1.48656 0,0.79648 0.41116,1.44815 0.91368,1.44815 1.32085,0 12.74539,23.63518 17.89754,37.02658 21.7349,56.4931 22.51736,138.99033 1.69415,178.61699 -4.15296,7.90308 -12.07825,16.83044 -18.04613,20.32785 -2.31851,1.35874 -6.73551,3.12682 -9.81554,3.92907 -6.94493,1.80893 -22.70056,1.79237 -31.26116,-0.0328 z"
           id="path3255" />
        <path
           style="fill:#ffa62b;fill-opacity:1;stroke-width:0.965436"
           d="m 329.45744,453.13745 c -0.66292,-4.20232 -1.8471,-11.76783 -2.6315,-16.81223 -1.54595,-9.9418 -1.70712,-30.7397 -0.32919,-42.47921 1.11895,-9.53307 3.85586,-20.36354 9.7588,-38.61746 6.12547,-18.94203 10.58524,-27.76675 26.34689,-52.13356 19.92558,-30.80408 52.8165,-61.26278 89.64439,-83.01536 20.77519,-12.27097 51.31365,-25.91284 72.03849,-32.18039 42.48238,-12.8474 73.87609,-11.64088 88.51129,3.40165 4.5378,4.6641 10.69969,16.39374 13.64796,25.97996 4.46536,14.51898 5.09971,33.3557 1.57316,46.71396 -6.02121,22.80777 -23.55533,39.43417 -51.38402,48.72393 -11.74908,3.92206 -22.40648,5.93364 -63.93363,12.06742 -42.52295,6.28086 -59.75713,9.65533 -76.81325,15.0401 -16.15302,5.09965 -37.06924,15.41246 -48.21077,23.77049 -17.6219,13.21938 -37.97594,36.51117 -45.38482,51.93532 -4.1157,8.56826 -7.71445,21.1652 -9.91584,34.70907 l -1.71264,10.53689 z"
           id="path3395" />
        <path
           style="fill:#ede7e3;fill-opacity:1;stroke-width:0.965436"
           d="m 721.75463,533.34564 c -29.3385,-4.15651 -60.95274,-13.80055 -87.40955,-26.66463 -32.31199,-15.71102 -42.90575,-23.17306 -105.07946,-74.01595 -9.25872,-7.57137 -17.54658,-16.69751 -22.17195,-24.41456 -2.56384,-4.27754 -15.28723,-16.92299 -22.31545,-22.17875 -9.47257,-7.08366 -23.77144,-12.95979 -40.14141,-16.49615 -3.44083,-0.74332 -11.86806,-1.22495 -20.75688,-1.1863 -12.92383,0.0562 -16.25312,0.40774 -24.41652,2.57815 -10.67054,2.837 -21.11032,7.79861 -28.10389,13.35665 -7.48849,5.95137 -6.60766,3.22075 1.35227,-4.19214 44.5662,-41.50337 107.37369,-56.46887 182.95021,-43.59258 40.77472,6.94697 80.24058,22.2752 113.92151,44.24624 25.45985,16.6082 51.46318,43.03901 67.78989,68.90433 15.49146,24.54207 28.82975,59.80406 28.07841,74.22997 l -0.29009,5.56992 -4.81521,2.3852 c -4.24081,2.10069 -6.25619,2.41192 -16.89513,2.60913 -6.64397,0.12316 -16.4075,-0.38917 -21.69675,-1.13853 z"
           id="path7096" />
      </g>
      <path
         style="fill:#000fff;stroke-width:0.833;stroke:none;stroke-opacity:1;stroke-miterlimit:4;stroke-dasharray:none;fill-opacity:1"
         d="m 426.24396,640.47447 c -0.70197,-1.25433 -1.27505,-1.29251 -5.43304,-0.362 -2.61347,0.58487 -6.39074,0.81002 -8.62865,0.51432 -10.89393,-1.43942 -28.3067,-4.92578 -29.93687,-5.99391 -1.01253,-0.66343 -5.14595,-1.53035 -9.18537,-1.92648 -10.21457,-1.00171 -40.44176,-11.72497 -59.82753,-21.22415 -15.15052,-7.42387 -33.20597,-17.51777 -37.79537,-21.12949 -3.9719,-3.12578 -6.77648,-4.93559 -9.89761,-6.387 -1.4891,-0.69246 -2.70746,-1.54806 -2.70746,-1.9013 0,-0.35325 -1.19024,-1.34537 -2.64498,-2.2047 -6.17175,-3.64574 -23.10764,-18.90565 -32.73654,-29.4969 -18.21163,-20.03179 -24.57651,-28.86815 -24.59135,-34.14014 -0.005,-1.86296 -0.35054,-2.654 -1.04915,-2.4035 -1.76998,0.63465 -3.95706,-1.03059 -3.95706,-3.0129 0,-1.03766 -1.71828,-4.24809 -3.8184,-7.13426 -2.79395,-3.83971 -3.69158,-5.75285 -3.34573,-7.13081 0.32414,-1.29147 -0.0838,-2.37807 -1.29807,-3.45801 -1.97987,-1.76078 -5.67922,-9.12934 -5.69177,-11.33716 -0.005,-0.93186 0.42813,-1.2643 1.24146,-0.95221 1.67872,0.64419 1.67872,-2.47085 0,-3.86406 -0.68728,-0.57039 -1.2496,-1.48815 -1.2496,-2.03945 0,-0.55131 -0.9372,-1.88283 -2.08266,-2.95894 -1.70398,-1.60081 -2.08267,-2.74471 -2.08267,-6.2912 0,-3.98017 -1.43277,-6.99351 -2.7154,-5.71088 -0.80624,0.80624 -1.82862,-8.78205 -1.84806,-17.33179 -0.0225,-9.90026 0.59522,-10.79695 7.79682,-11.31787 4.06135,-0.29377 5.80377,0.0328 9.70615,1.81941 5.86067,2.6831 6.49626,2.69365 7.86797,0.13058 0.86819,-1.62222 1.40602,-1.88068 2.59236,-1.24577 0.99631,0.53321 2.20711,0.47752 3.62058,-0.16649 2.58636,-1.17843 14.27068,0.24166 18.22685,2.21525 1.54417,0.77034 3.55312,1.07257 5.1447,0.77398 2.98788,-0.56052 9.01466,0.86746 23.53308,5.57591 26.68016,8.65261 51.18079,20.93203 81.44161,40.81753 11.06456,7.27094 27.55779,20.80608 28.33424,23.25246 0.37992,1.19703 7.80241,3.68005 8.60414,2.87833 0.15729,-0.15729 -0.18547,-1.58971 -0.76167,-3.18317 -0.76329,-2.11082 -1.74502,-3.09899 -3.617,-3.64065 -2.43083,-0.70339 -2.55363,-0.93894 -2.27748,-4.36881 l 0.2919,-3.62533 -2.90106,0.47077 c -3.17656,0.51549 -4.76378,-0.47733 -4.76378,-2.97981 0,-0.87334 -0.92576,-2.31609 -2.05725,-3.20612 -6.17438,-4.85678 -31.26536,-54.34229 -31.26536,-61.66292 0,-1.11156 -0.35545,-2.37717 -0.78989,-2.81244 -2.45729,-2.46199 -11.31124,-37.07631 -10.40614,-40.68252 0.30618,-1.21993 -0.0153,-2.81961 -0.81074,-4.03352 -1.423,-2.17178 -3.06191,-11.84181 -4.69789,-27.71898 -3.10514,-30.13516 4.39333,-81.77313 13.30562,-91.62876 0.83284,-0.921 1.75876,-2.70835 2.0576,-3.97189 0.81455,-3.44402 4.70789,-7.3304 8.01795,-8.00361 2.26604,-0.46088 2.95709,-1.04119 3.14667,-2.64239 0.7056,-5.95984 5.56992,-9.62919 18.26737,-13.77981 8.53376,-2.78957 9.47191,-2.92323 18.84479,-2.68492 8.98121,0.22836 9.99591,0.414 11.3388,2.07443 1.08553,1.34222 1.72032,1.57818 2.40466,0.89384 2.21398,-2.21398 18.41678,4.23905 26.07923,10.38648 7.36014,5.9049 17.1392,21.40108 21.87405,34.66226 4.52425,12.67135 5.72101,28.90563 3.7868,51.36855 -1.39788,16.23437 -7.14224,41.74331 -14.53883,64.56255 -2.00497,6.18551 -4.07226,13.68309 -4.594,16.6613 -0.52174,2.97821 -2.38767,11.03811 -4.14652,17.9109 -6.25501,24.44175 -6.46701,44.35123 -0.82496,77.47506 2.01766,11.84547 3.32174,22.0306 3.19992,24.99196 -0.14096,3.42621 0.23809,5.83511 1.20507,7.65857 0.87773,1.65516 1.09712,2.85399 0.58069,3.17317 -1.42661,0.88169 -0.90855,2.77663 0.91756,3.35622 1.31282,0.41667 1.65103,1.05972 1.35948,2.58486 -0.27441,1.43551 0.31178,2.77942 2.00122,4.58797 1.31412,1.40677 2.38931,3.18387 2.38931,3.9491 0,2.92202 10.76218,16.71258 21.04349,26.96495 5.85836,5.84187 11.04278,10.62158 11.52092,10.62158 0.47816,0 2.0981,0.9372 3.59988,2.08266 1.50178,1.14547 3.38704,2.08266 4.18947,2.08266 1.90221,0 6.27768,2.46857 8.12125,4.58186 0.79941,0.91637 1.46594,1.3582 1.48119,0.98183 0.0152,-0.37636 0.6514,-0.0607 1.41368,0.70166 0.93484,0.93484 2.15517,1.23212 3.74915,0.91333 1.29976,-0.25996 3.39395,-0.0726 4.65376,0.41635 1.25981,0.48896 5.82633,1.42745 10.14782,2.08555 4.32148,0.65811 8.33883,1.59623 8.92743,2.08474 0.58861,0.4885 1.55141,0.71596 2.13954,0.50546 0.58814,-0.2105 1.73313,-0.0412 2.54443,0.3763 0.81129,0.41746 1.89909,0.49696 2.41734,0.17667 0.51824,-0.3203 2.10373,-0.67144 3.5233,-0.78032 1.41958,-0.10889 5.39265,-0.76022 8.82904,-1.4474 20.46767,-4.09294 35.97238,-10.19468 47.0518,-18.51679 2.74009,-2.05818 5.27371,-3.74215 5.63025,-3.74215 0.6315,0 -0.93816,3.334 -1.96106,4.16533 -0.28188,0.22909 -0.77566,1.25976 -1.09729,2.29037 -0.90508,2.90021 -5.84396,10.31604 -8.93422,13.41491 -4.232,4.24378 -13.74946,11.27487 -21.51019,15.89081 -10.78113,6.41242 -43.34421,19.02699 -46.51674,18.02006 -0.94471,-0.29984 -5.77059,0.24077 -10.72418,1.20133 -5.86974,1.13822 -15.0995,2.01378 -26.50092,2.51397 -26.60433,1.16714 -31.00672,1.08658 -31.94188,-0.58446 z"
         id="path37430"
         transform="translate(44.410074,19.308729)" />
      <path
         style="fill:#0000ff;stroke-width:0.833065"
         d="m 412.84276,495.43573 c -3.82185,-24.09365 -3.22349,-48.5051 1.65247,-67.41595 8.70942,-33.77852 21.05371,-59.44351 41.5868,-86.46306 24.11372,-31.73132 58.92718,-60.03751 98.32284,-79.94451 41.60907,-21.02546 75.9539,-31.29282 104.54968,-31.25506 12.99891,0.0172 20.3623,1.41465 28.46718,5.40272 7.80828,3.84213 12.55383,9.15418 17.81724,19.94413 11.26229,23.08764 11.92166,51.37486 1.65726,71.0964 -9.10822,17.50011 -24.95827,29.33713 -49.68202,37.10316 -9.22349,2.89721 -18.34912,4.56552 -59.90648,10.95188 -56.25895,8.64564 -72.6877,12.38911 -93.45649,21.29511 -21.30211,9.1347 -33.16778,17.05451 -48.62779,32.4569 -13.19166,13.14248 -23.562,26.53485 -28.70971,37.07598 -4.00836,8.20805 -7.93144,21.4225 -10.01367,33.72988 -0.73557,4.34766 -1.42188,7.98933 -1.52515,8.0926 -0.10326,0.10327 -1.06274,-5.32832 -2.13216,-12.07018 z"
         id="path37469"
         transform="translate(44.410074,19.308729)" />
      <path
         style="fill:#0000ff;stroke-width:0.833065"
         d="m 805.57402,583.45624 c -34.17568,-5.38492 -64.64974,-15.25061 -95.0073,-30.75772 -21.01086,-10.73267 -34.43914,-19.75316 -61.57802,-41.3652 -38.20935,-30.42801 -48.89165,-40.13629 -56.2589,-51.12917 -4.1626,-6.21113 -16.22042,-18.37657 -23.61938,-23.83019 -8.75231,-6.45114 -19.79955,-11.33014 -34.90902,-15.41752 -6.08315,-1.6456 -8.9252,-1.86254 -24.78205,-1.89171 -16.20118,-0.0298 -18.58684,0.15143 -24.99195,1.8986 -9.14127,2.49353 -18.72701,6.66507 -25.10977,10.92731 -2.78874,1.86225 -5.29124,3.38591 -5.56111,3.38591 -0.92,0 6.08109,-6.81735 12.02053,-11.70507 25.9465,-21.35203 57.64865,-34.23018 96.54194,-39.21759 12.49734,-1.60257 44.92717,-1.37062 59.14763,0.42305 50.67407,6.39166 93.44453,21.58283 132.36358,47.01275 24.13377,15.76914 49.17438,40.87121 65.56187,65.72279 15.80163,23.96312 29.91787,60.02208 29.91787,76.42314 v 6.0891 l -4.37359,1.97698 c -4.03652,1.82462 -5.52928,1.9872 -19.36877,2.10955 -8.24734,0.0729 -17.24444,-0.22184 -19.99356,-0.65501 z"
         id="path37508"
         transform="translate(44.410074,19.308729)" />
      <path
         style="fill:url(#linearGradient37891);stroke-width:0.833065;fill-opacity:1"
         d="m 640.54355,795.58877 c -23.42763,-5.09683 -41.75046,-21.70772 -49.55119,-44.92153 -3.70988,-11.04008 -4.99846,-19.5739 -4.99545,-33.08337 0.005,-20.91118 3.07666,-36.82127 18.098,-93.73067 l 9.86529,-37.37532 -0.0377,-30.40688 c -0.031,-24.97559 -0.29299,-31.8205 -1.46701,-38.321 -2.05335,-11.36944 -6.09755,-24.72602 -9.76051,-32.23558 -1.74327,-3.57396 -3.07227,-6.59543 -2.95333,-6.71438 0.65958,-0.65957 30.45609,22.28526 43.38465,33.4084 16.07452,13.82977 19.57703,18.12676 19.57703,24.01766 0,3.34096 0.43798,4.54149 2.46173,6.74779 7.02988,7.66406 8.36812,9.24609 8.36812,9.89264 0,0.3879 1.31208,0.70528 2.91573,0.70528 1.9212,0 2.91573,0.39143 2.91573,1.14759 0,0.63118 0.5954,1.64173 1.3231,2.24567 1.4765,1.22539 6.57733,11.11174 12.4819,24.19228 15.38452,34.08164 23.00475,75.79293 21.74631,119.03393 -1.54892,53.22231 -16.11623,87.49077 -40.3772,94.98422 -4.32375,1.33547 -7.6003,1.63867 -17.12982,1.58511 -6.48089,-0.0364 -14.07031,-0.56375 -16.86539,-1.17184 z"
         id="path37547"
         transform="translate(44.410074,19.308729)" />
      <path
         style="fill:#0000ff;stroke-width:0.833065"
         d="m 345.28148,795.68293 c -16.7915,-6.5144 -28.61937,-20.54744 -34.54057,-40.98027 -1.90824,-6.58493 -2.09026,-8.60433 -2.09026,-23.18961 0,-18.19173 0.67205,-21.97886 5.81837,-32.78748 5.84296,-12.27173 12.27798,-19.80965 23.06477,-27.01785 21.50814,-14.37267 41.70494,-19.37094 96.9097,-23.98302 40.27291,-3.3646 56.88194,-6.12026 72.78189,-12.07549 4.3117,-1.61492 8.08579,-2.93621 8.38689,-2.93621 1.30438,0 19.40955,-7.09383 21.29823,-8.34491 1.14547,-0.75876 5.86186,-3.83747 10.48088,-6.84157 16.44066,-10.69262 25.12126,-19.15569 37.63204,-36.68899 3.6713,-5.14515 8.02659,-10.6669 9.67843,-12.27055 1.65184,-1.60365 5.53808,-6.77344 8.63607,-11.48843 5.58965,-8.50716 5.64387,-8.559 7.09058,-6.7805 3.64331,4.47885 -0.0486,31.58386 -8.07816,59.30775 -11.88179,41.02455 -29.98988,71.63104 -58.50775,98.89049 -17.50069,16.72842 -28.77253,25.68794 -49.83494,39.61177 -32.98204,21.80358 -77.47269,40.64077 -110.28123,46.69269 -9.93893,1.83335 -34.53822,2.39782 -38.44494,0.88218 z"
         id="path37586"
         transform="translate(44.410074,19.308729)" />
      <path
         style="fill:#0000ff;stroke-width:0.833065"
         d="m 681.67517,814.30356 c -13.22636,-3.46499 -25.42326,-11.15716 -33.91245,-21.38746 -5.62629,-6.78024 -12.04112,-19.6679 -14.51213,-29.15554 -2.60879,-10.01663 -3.55603,-23.31501 -2.57705,-36.17924 1.45415,-19.10812 4.56493,-33.64426 18.84868,-88.07666 l 8.84805,-33.71805 -0.41972,-32.56244 c -0.44669,-34.65515 -0.54195,-35.59437 -5.27633,-52.02213 -1.14099,-3.95912 -3.35629,-10.17616 -4.92288,-13.81565 -1.56659,-3.63949 -2.72328,-6.74232 -2.57043,-6.89517 0.84641,-0.84641 40.00215,30.36663 50.21106,40.02579 8.22657,7.78358 9.98491,10.42876 10.74596,16.16579 0.50345,3.79519 1.26359,5.12702 6.05706,10.61242 3.1079,3.55651 6.1462,6.27259 7.01677,6.27259 3.44903,0 8.75378,8.51957 17.11747,27.49115 15.94256,36.16295 22.58796,72.26282 21.58199,117.24007 -0.5963,26.66087 -2.67628,40.8795 -8.5462,58.42151 -6.93217,20.71652 -17.90228,33.99446 -31.39676,38.0019 -6.49154,1.92778 -28.29615,1.67612 -36.29309,-0.41888 z"
         id="path37662" />
      <path
         style="fill:none;stroke:#000000;stroke-width:1px;stroke-linecap:butt;stroke-linejoin:miter;stroke-opacity:1"
         d="m 711.25286,557.61224 14.80954,23.03667 z"
         id="path37981" />
      <path
         style="fill:#0000ff;stroke:#000000;stroke-width:1px;stroke-linecap:butt;stroke-linejoin:miter;stroke-opacity:1"
         d="m 700.8773,546.55606 10.37556,11.05618 z"
         id="path37983" />
      <path
         style="fill:#0000ff;stroke-width:0.181878"
         d="m 675.94875,554.46974 c -0.15004,-0.0855 -0.55927,-0.21643 -0.90938,-0.29093 -1.31547,-0.27994 -3.81662,-2.47957 -7.23518,-6.36295 -4.43777,-5.04118 -5.28496,-6.51334 -5.95838,-10.35391 -0.23762,-1.35517 -0.52269,-2.8006 -0.63349,-3.21208 -0.1108,-0.41147 -0.15326,-0.79632 -0.0944,-0.85522 0.0589,-0.0589 0.50606,0.28589 0.99369,0.76619 l 0.88661,0.87328 -0.0949,1.38923 c -0.21164,3.09896 1.10835,5.77673 3.42377,6.94555 1.24482,0.62838 1.83705,1.35432 2.23121,2.73498 0.36059,1.26302 1.38626,2.47106 2.75284,3.24232 0.96666,0.54554 1.94959,1.63764 2.19968,2.44396 0.24902,0.80289 0.8235,1.38317 1.5831,1.5991 0.42012,0.11943 0.90525,0.38748 1.07809,0.59567 0.49379,0.59482 0.38484,0.83138 -0.22331,0.48481 z"
         id="path38291"
         transform="translate(44.410074,19.308729)" />
      <path
         style="fill:#0000ff;stroke-width:0.181878"
         d="m 674.94843,553.19119 c -0.52147,-0.21343 -0.92272,-0.70993 -1.33091,-1.64683 -0.40779,-0.93599 -1.2753,-1.82764 -2.45315,-2.52139 -1.09662,-0.64592 -2.26222,-2.04076 -2.41622,-2.89144 -0.0677,-0.37405 -0.22965,-0.89084 -0.35986,-1.14844 -0.30399,-0.60143 -1.63276,-1.80511 -1.99271,-1.80511 -0.46141,0 -1.90849,-1.47391 -2.40347,-2.44805 -0.25619,-0.50418 -0.57527,-1.32592 -0.70908,-1.82608 -0.27537,-1.02936 -0.3304,-3.11022 -0.0862,-3.26112 0.0888,-0.0548 0.78555,0.5337 1.54845,1.30788 1.1372,1.15402 2.23038,2.71524 6.06796,8.66594 2.57447,3.99208 4.74631,7.36819 4.82631,7.50246 0.16468,0.27641 -0.11956,0.30611 -0.69108,0.0722 z"
         id="path38330"
         transform="translate(44.410074,19.308729)" />
      <path
         style="fill:#0000ff;stroke-width:0.181878"
         d="m 674.9848,554.00696 c -1.36955,-0.55662 -2.60702,-1.5289 -4.70148,-3.69395 -3.65954,-3.78288 -6.28073,-7.1028 -7.25983,-9.1951 -0.54534,-1.16536 -1.93798,-7.14518 -1.71579,-7.36737 0.0536,-0.0536 0.41502,0.21253 0.80308,0.59146 l 0.70557,0.68897 0.07,2.11832 c 0.0609,1.84421 0.13569,2.26212 0.57768,3.22966 0.56553,1.23797 1.73954,2.47532 3.06067,3.22581 0.98959,0.56215 1.43564,1.12868 1.94584,2.4714 0.56005,1.47393 1.20279,2.26753 2.64272,3.26295 1.20838,0.83535 2.28922,2.02485 2.28922,2.51935 0,0.40239 0.95326,1.32518 1.71871,1.66378 0.72241,0.31955 1.14064,0.67973 0.97807,0.8423 -0.0373,0.0373 -0.5388,-0.12361 -1.11445,-0.35758 z"
         id="path38369"
         transform="translate(44.410074,19.308729)" />
      <path
         style="fill:#0000ff;stroke-width:0.181878"
         d="m 594.10376,663.78179 c 0,-0.0897 1.34384,-5.5119 2.98632,-12.0494 2.94399,-11.71792 4.07595,-16.08741 12.64403,-48.80756 l 4.334,-16.55088 -0.24004,-18.55153 c -0.29184,-22.55457 -0.58017,-37.08041 -0.81681,-41.15018 -0.49287,-8.4764 -1.26238,-12.83877 -3.92206,-22.23423 -1.74382,-6.16012 -3.69448,-11.74807 -6.15856,-17.64214 -1.33926,-3.20352 -2.1302,-5.45634 -1.91565,-5.45634 1.18472,0 25.95975,19.41693 40.83168,32.00102 6.23664,5.27721 12.52869,11.04259 13.96715,12.79805 0.59404,0.72493 0.65647,0.88528 0.46446,1.19274 -0.19896,0.31859 -0.005,0.58656 1.88047,2.59912 1.89838,2.02625 2.14908,2.37405 2.58448,3.5855 0.2652,0.73787 0.64854,2.36511 0.85186,3.61608 0.37041,2.27892 0.69467,3.48022 1.21468,4.49998 1.359,2.66504 8.23713,10.43658 10.65315,12.03688 0.47732,0.31617 1.19492,0.6301 1.59467,0.69764 1.27693,0.21574 2.06885,1.03704 4.14594,4.29979 1.47138,2.31129 2.01227,3.02291 2.281,3.00098 0.49176,-0.0401 1.72674,2.09322 4.82661,8.33764 14.35929,28.92554 22.70519,57.83333 25.72964,89.12011 0.15472,1.60053 0.32862,3.33973 0.38645,3.8649 l 0.10513,0.95486 h -59.2143 c -34.7922,0 -59.2143,-0.0672 -59.2143,-0.16303 z"
         id="path38408"
         transform="translate(44.410074,19.308729)" />
      <path
         style="fill:#0000ff;stroke-width:0.181878"
         d="m 661.35039,533.03763 c -4.52001,-4.82618 -5.02076,-5.42088 -4.77312,-5.66853 0.24765,-0.24765 0.32229,-0.22953 0.71143,0.1727 0.23911,0.24716 2.532,2.6896 5.09533,5.42765 3.73223,3.98663 4.61913,5.0282 4.4525,5.22898 -0.11444,0.1379 -0.25944,0.2463 -0.32222,0.24089 -0.0628,-0.005 -2.38654,-2.43616 -5.16392,-5.40169 z"
         id="path38410"
         transform="translate(44.410074,19.308729)" />
      <path
         style="fill:#0000ff;stroke-width:0.181878"
         d=""
         id="path38449"
         transform="translate(44.410074,19.308729)" />
      <path
         style="fill:#0000ff;stroke-width:0.181878"
         d="m 680.71692,560.59278 c -1.16698,-1.72223 -13.86153,-21.56687 -13.95938,-21.82187 -0.0873,-0.22756 0.40683,-0.63955 0.55467,-0.46244 0.0228,0.0274 3.29152,5.10932 7.26373,11.29324 4.19748,6.53464 7.18037,11.35251 7.12232,11.50377 -0.16715,0.43558 -0.43285,0.29677 -0.98134,-0.5127 z"
         id="path38488"
         transform="translate(44.410074,19.308729)" />
      <path
         style="fill:#0000ff;stroke-width:0.181878"
         d="m 674.71364,552.89642 c -0.22366,-0.15666 -0.58106,-0.62727 -0.79422,-1.0458 -0.62106,-1.21943 -1.2416,-1.92766 -2.34619,-2.67778 -1.4592,-0.99092 -2.46287,-2.19511 -2.80206,-3.36188 -0.34326,-1.18079 -0.95218,-1.93781 -2.07188,-2.57583 -1.5638,-0.89107 -2.41427,-1.92189 -3.09143,-3.747 -0.39854,-1.07415 -0.56012,-3.58526 -0.2307,-3.58526 0.41282,0 2.69355,2.76932 4.50408,5.46896 2.46914,3.6817 7.52188,11.5371 7.52188,11.69414 0,0.194 -0.26264,0.12942 -0.68948,-0.16955 z"
         id="path38527"
         transform="translate(44.410074,19.308729)" />
      <path
         style="fill:#0000ff;stroke-width:0.181878"
         d="m 674.71364,552.89642 c -0.22366,-0.15666 -0.58106,-0.62727 -0.79422,-1.0458 -0.21316,-0.41853 -0.58481,-1.02005 -0.8259,-1.33672 -0.44309,-0.582 -2.10921,-1.81537 -2.5882,-1.91595 -0.41681,-0.0875 -0.92229,-0.56598 -0.92229,-0.87298 0,-0.15558 -0.12701,-0.4642 -0.28224,-0.68583 -0.15524,-0.22162 -0.40528,-0.81726 -0.55566,-1.32363 -0.30649,-1.03208 -1.27161,-2.1237 -2.38288,-2.69521 -1.79594,-0.92362 -3.14494,-3.43341 -3.14494,-5.85111 0,-0.69648 0.0719,-1.26632 0.15985,-1.26632 0.41152,0 2.69248,2.76716 4.50804,5.46896 2.26542,3.37126 7.33527,11.23203 7.4691,11.58079 0.11936,0.31105 -0.15008,0.28741 -0.64066,-0.0562 z"
         id="path38566"
         transform="translate(44.410074,19.308729)" />
      <path
         style="fill:#0000ff;stroke-width:0.181878"
         d="m 594.10376,663.76342 c 0,-0.0998 1.38495,-5.6857 3.07767,-12.41316 2.92929,-11.642 4.58561,-18.03211 13.16482,-50.78984 l 3.71541,-14.18647 -0.14844,-11.00361 c -0.6124,-45.39779 -0.7111,-49.16318 -1.45165,-55.38178 -0.98474,-8.26902 -4.45724,-20.64061 -8.7551,-31.19204 -1.9005,-4.66582 -2.90847,-7.45699 -2.69292,-7.45699 0.92545,0 17.05941,12.42224 31.64829,24.3674 9.87729,8.08737 14.96779,12.47205 19.69439,16.96369 3.39212,3.22349 4.28298,4.24161 3.97815,4.54644 -0.11567,0.11567 -0.2103,0.27835 -0.2103,0.36153 0,0.0832 0.92846,1.15125 2.06324,2.3735 1.58792,1.71033 2.14701,2.44767 2.42688,3.20063 0.24265,0.65284 0.40027,0.88286 0.47376,0.69135 0.0993,-0.25883 0.1646,-0.25982 0.66505,-0.0102 0.3052,0.15226 0.55491,0.3876 0.55491,0.52299 0,0.13539 0.14323,0.27374 0.31829,0.30745 0.28229,0.0544 0.31928,0.31813 0.32704,2.33228 0.008,2.03974 0.056,2.37369 0.47309,3.27961 0.4585,0.99598 1.49995,2.35612 1.80405,2.35612 0.0861,0 0.34366,0.16895 0.57226,0.37544 0.22861,0.2065 0.78137,0.63838 1.22837,0.95975 0.67339,0.48412 0.91485,0.83186 1.40833,2.02815 0.32757,0.79412 0.76432,1.61037 0.97055,1.81389 l 0.37495,0.37004 -0.17538,-0.46869 c -0.0965,-0.25778 -0.34617,-0.74885 -0.55492,-1.09127 -0.20875,-0.34242 -0.37985,-0.81045 -0.38023,-1.04007 -3.6e-4,-0.22962 -0.22203,-0.63884 -0.49257,-0.90939 -0.27055,-0.27054 -0.46533,-0.53282 -0.43286,-0.58283 0.0325,-0.05 -0.3351,-0.33648 -0.81681,-0.63657 -1.52531,-0.95023 -2.72047,-2.30999 -3.19614,-3.63631 -0.23344,-0.6509 -0.46609,-1.18327 -0.517,-1.18303 -0.0509,1.8e-4 -0.0656,-0.61361 -0.0327,-1.36409 0.0329,-0.75047 0.1253,-1.3645 0.20532,-1.3645 0.08,0 0.69412,0.58159 1.36468,1.29242 1.53494,1.62712 10.8569,15.65472 10.58437,15.92726 -0.2406,0.2406 -0.99972,-0.51944 -1.67588,-1.67793 -0.47675,-0.81682 -1.03843,-1.4714 -1.67661,-1.95387 -0.99216,-0.7501 -1.57261,-0.82858 -0.66898,-0.0905 1.05451,0.86137 1.77376,1.69462 2.08053,2.41029 0.35914,0.83784 0.62064,1.09134 1.78912,1.73443 0.84487,0.46499 1.26698,0.99915 0.63878,0.80835 -0.22008,-0.0668 -0.17886,0.009 0.12121,0.22228 0.96955,0.68993 1.79237,1.72263 3.4824,4.37061 1.25163,1.96109 1.84722,2.74096 2.07782,2.72071 0.95541,-0.0839 7.81864,13.8785 13.05871,26.56636 6.73939,16.31816 11.89321,34.15474 14.84051,51.36073 1.1953,6.97805 2.20873,14.56962 2.72868,20.4404 0.10631,1.20039 0.24058,2.5713 0.29837,3.04645 l 0.10508,0.86392 h -59.21828 c -39.25434,0 -59.21828,-0.0611 -59.21828,-0.1814 z m 81.29936,-109.4909 c 0,-0.10003 -0.0818,-0.18188 -0.18188,-0.18188 -0.10003,0 -0.18187,0.0819 -0.18187,0.18188 0,0.10004 0.0818,0.18188 0.18187,0.18188 0.10004,0 0.18188,-0.0818 0.18188,-0.18188 z m -1.75601,-0.82629 c -0.0592,-0.15436 -0.14219,-0.24618 -0.18434,-0.20403 -0.0421,0.0421 -0.30143,-0.13847 -0.57619,-0.40138 -3.18751,-3.04996 -4.21294,-4.07334 -4.21294,-4.20453 0,-0.0855 -0.34784,-0.45325 -0.77298,-0.81715 -0.42514,-0.36391 -0.77298,-0.73886 -0.77298,-0.83323 0,-0.0944 -0.2378,-0.37593 -0.52845,-0.62568 -0.29065,-0.24975 -0.46053,-0.45408 -0.37752,-0.45408 0.083,0 -0.0413,-0.20462 -0.27623,-0.4547 -0.23494,-0.25008 -0.51521,-0.45209 -0.62281,-0.44891 -0.1076,0.003 -0.0524,0.11451 0.12264,0.2474 0.17506,0.13289 0.31829,0.30561 0.31829,0.38383 0,0.3701 4.33299,5.09539 6.21208,6.77451 1.47506,1.31808 1.87398,1.56581 1.67143,1.03795 z m -9.63953,-10.18516 c -0.0592,-0.15436 -0.1467,-0.24165 -0.19438,-0.19398 -0.0477,0.0477 -0.0327,0.17398 0.0332,0.28067 0.17934,0.29017 0.28417,0.2338 0.16118,-0.0867 z m -0.59813,-0.88918 c -0.1229,-0.14808 -0.17909,-0.34103 -0.12486,-0.42878 0.0542,-0.0877 -0.0171,-0.15953 -0.15859,-0.15953 -0.21123,0 -0.20338,0.0911 0.0439,0.50973 0.16561,0.28034 0.33753,0.4733 0.38205,0.42877 0.0445,-0.0445 -0.0196,-0.2021 -0.1425,-0.35019 z m -1.00375,-2.91804 c -0.60626,-2.10195 -0.90993,-2.10436 -0.36257,-0.003 0.22496,0.86367 0.47113,1.3178 0.73712,1.35981 0.01,10e-4 -0.15885,-0.60909 -0.37455,-1.35693 z m -0.57331,-2.41228 c -0.0464,-0.37404 -0.16453,-0.76025 -0.26252,-0.85823 -0.16265,-0.16265 -0.0947,0.63639 0.11151,1.31096 0.14341,0.46918 0.2323,0.2027 0.15101,-0.45273 z m -0.55297,-2.51063 c -0.0592,-0.15436 -0.14671,-0.24165 -0.19438,-0.19398 -0.0477,0.0477 -0.0327,0.17397 0.0332,0.28066 0.17934,0.29018 0.28416,0.23381 0.16118,-0.0867 z"
         id="path38605"
         transform="translate(44.410074,19.308729)" />
      <path
         style="fill:#0000ff;stroke-width:0.181878"
         d="m 594.10376,663.78419 c 0,-0.0884 1.18459,-4.89675 2.63243,-10.68532 2.60579,-10.41814 5.06988,-19.9373 13.15263,-50.81061 l 4.16643,-15.91431 -0.14422,-11.00361 c -0.58318,-44.49595 -0.72242,-49.55863 -1.54321,-56.10929 -0.98318,-7.84664 -4.51064,-20.25377 -8.66136,-30.46453 -1.55283,-3.81996 -2.69135,-6.82441 -2.69135,-7.10225 0,-0.37535 0.55642,-0.1254 2.10813,0.94699 8.10052,5.59835 34.40429,26.67486 44.54315,35.69125 2.80796,2.49709 7.48706,6.97643 8.21308,7.86244 0.53963,0.65855 0.61339,0.84351 0.4263,1.06894 -0.27633,0.33296 -0.32966,0.2593 2.10696,2.90983 1.23273,1.34095 1.94356,2.27803 2.15571,2.84184 0.25803,0.68576 0.39896,0.84118 0.76276,0.84118 0.24667,0 0.68462,0.23386 0.97925,0.5229 0.51294,0.50322 0.53319,0.58668 0.53805,2.21792 0.005,1.65076 -0.006,1.6935 -0.40061,1.6369 -0.33274,-0.0477 -0.43279,-0.22161 -0.55654,-0.96751 -0.083,-0.50016 -0.22935,-0.98868 -0.32525,-1.08558 -0.11148,-0.11264 -0.13891,0.0186 -0.0761,0.36375 0.7636,4.1929 0.80196,4.29891 1.50496,4.15831 0.44975,-0.09 0.57873,-0.01 0.99415,0.61798 0.46071,0.69618 1.50766,1.63366 2.54742,2.28105 0.6508,0.40521 0.6508,0.13202 0,-0.3277 -1.26993,-0.89707 -2.36175,-2.26316 -2.84001,-3.55343 -0.60675,-1.63693 -0.67783,-3.45471 -0.13509,-3.45471 0.58189,0 2.25037,2.0142 4.70537,5.68035 2.72684,4.0721 4.91686,7.47088 5.06845,7.86592 0.16729,0.43593 -0.55528,0.34063 -1.14655,-0.15123 -0.66781,-0.55552 -1.33257,-0.90209 -1.33257,-0.69473 0,0.0899 0.32963,0.39198 0.73252,0.67118 0.75579,0.52376 1.81377,1.80758 1.81377,2.20094 0,0.37119 0.86665,1.28037 1.45134,1.52256 0.51279,0.2124 0.77317,0.72903 0.36743,0.72903 -0.10003,0 -0.18187,0.0906 -0.18187,0.20134 0,0.11074 0.10707,0.16025 0.23795,0.11003 0.13087,-0.0502 0.61533,0.18255 1.07657,0.51728 0.62632,0.45452 1.33731,1.37193 2.8085,3.62387 1.45082,2.22076 2.04949,2.99549 2.27201,2.94019 0.41245,-0.10251 2.07775,2.82785 5.15284,9.06723 12.52013,25.40343 20.35623,50.46371 24.08501,77.02524 0.64612,4.60254 1.83394,15.10997 1.83394,16.22301 0,0.0803 -26.64055,0.14599 -59.20122,0.14599 -34.12708,0 -59.20121,-0.068 -59.20121,-0.16063 z m 79.66246,-110.21826 c 0,-0.0885 -0.21079,-0.29907 -0.46842,-0.46788 -0.25763,-0.16881 -1.23541,-1.03759 -2.17284,-1.93064 -0.93743,-0.89304 -1.76204,-1.62371 -1.83247,-1.62371 -0.1949,0 1.49857,1.7691 2.91621,3.04645 1.22306,1.10203 1.55752,1.31157 1.55752,0.97578 z m -5.1562,-4.83507 c -0.15258,-0.39762 -3.08251,-3.7341 -3.2791,-3.7341 -0.0931,0 -0.0487,0.14322 0.0988,0.31828 3.25514,3.86429 3.42062,4.04203 3.18032,3.41582 z m 0.73641,-1.58276 c -0.2478,-0.43299 -0.55333,-1.11464 -0.67895,-1.51477 -0.2628,-0.83704 -1.00814,-1.81763 -1.17561,-1.54665 -0.0621,0.10041 -0.0466,0.1835 0.0343,0.18465 0.14539,0.002 0.39891,0.50421 1.14338,2.26474 0.37781,0.89345 0.89936,1.62736 1.04965,1.47706 0.0428,-0.0428 -0.12497,-0.43204 -0.37277,-0.86503 z m -5.36826,-4.00953 c -0.13051,-0.13051 -0.21523,-0.14125 -0.21523,-0.0273 0,0.10337 0.0546,0.2425 0.12126,0.30919 0.0667,0.0667 0.16353,0.079 0.21522,0.0273 0.0517,-0.0517 -0.003,-0.19082 -0.12125,-0.30919 z m -0.58192,-1.05735 c -0.11463,-0.21418 -0.25647,-0.34136 -0.3152,-0.28263 -0.0587,0.0587 0.007,0.31892 0.14549,0.57818 0.13875,0.25926 0.28059,0.38644 0.3152,0.28262 0.0346,-0.10381 -0.0309,-0.36399 -0.14549,-0.57817 z M 661.25,534.40844 c -0.13051,-0.13051 -0.21522,-0.14125 -0.21522,-0.0273 0,0.10336 0.0546,0.2425 0.12125,0.30919 0.0667,0.0667 0.16354,0.079 0.21522,0.0273 0.0517,-0.0517 -0.003,-0.19082 -0.12125,-0.30919 z"
         id="path38644"
         transform="translate(44.410074,19.308729)" />
      <path
         style="fill:#0000ff;stroke-width:0.181878"
         d="m 594.10376,663.78419 c 0,-0.0884 1.18459,-4.89675 2.63243,-10.68532 2.60579,-10.41814 5.06988,-19.9373 13.15263,-50.81061 l 4.16643,-15.91431 -0.14422,-11.00361 c -0.58318,-44.49595 -0.72242,-49.55863 -1.54321,-56.10929 -0.98318,-7.84664 -4.51064,-20.25377 -8.66136,-30.46453 -1.55283,-3.81996 -2.69135,-6.82441 -2.69135,-7.10225 0,-0.37535 0.55642,-0.1254 2.10813,0.94699 8.10052,5.59835 34.40429,26.67486 44.54315,35.69125 2.80796,2.49709 7.48706,6.97643 8.21308,7.86244 0.53963,0.65855 0.61339,0.84351 0.4263,1.06894 -0.27633,0.33296 -0.32966,0.2593 2.10696,2.90983 1.23273,1.34095 1.94356,2.27803 2.15571,2.84184 0.25803,0.68576 0.39896,0.84118 0.76276,0.84118 0.24667,0 0.68462,0.23386 0.97925,0.5229 0.51294,0.50322 0.53319,0.58668 0.53805,2.21792 0.005,1.65076 -0.006,1.6935 -0.40061,1.6369 -0.33274,-0.0477 -0.43279,-0.22161 -0.55654,-0.96751 -0.083,-0.50016 -0.22935,-0.98868 -0.32525,-1.08558 -0.11148,-0.11264 -0.13891,0.0186 -0.0761,0.36375 0.64247,3.52777 0.84377,4.26845 1.1601,4.26845 0.0931,0 0.12439,-0.17195 0.0694,-0.3821 -0.0902,-0.34497 -0.0381,-0.37377 0.53624,-0.29637 l 0.63616,0.0857 -0.33734,-0.88779 c -0.19215,-0.50571 -0.33733,-1.35659 -0.33733,-1.9771 0,-0.9474 0.0448,-1.08932 0.34417,-1.08932 0.58189,0 2.25037,2.0142 4.70537,5.68035 2.72684,4.0721 4.91686,7.47088 5.06845,7.86592 0.16729,0.43593 -0.55528,0.34063 -1.14655,-0.15123 -0.66781,-0.55552 -1.33257,-0.90209 -1.33257,-0.69473 0,0.0899 0.32963,0.39198 0.73252,0.67118 0.75579,0.52376 1.81377,1.80758 1.81377,2.20094 0,0.37119 0.86665,1.28037 1.45134,1.52256 0.51279,0.2124 0.77317,0.72903 0.36743,0.72903 -0.10003,0 -0.18187,0.0906 -0.18187,0.20134 0,0.11074 0.10707,0.16025 0.23795,0.11003 0.13087,-0.0502 0.61533,0.18255 1.07657,0.51728 0.62632,0.45452 1.33731,1.37193 2.8085,3.62387 1.45082,2.22076 2.04949,2.99549 2.27201,2.94019 0.41245,-0.10251 2.07775,2.82785 5.15284,9.06723 12.52013,25.40343 20.35623,50.46371 24.08501,77.02524 0.64612,4.60254 1.83394,15.10997 1.83394,16.22301 0,0.0803 -26.64055,0.14599 -59.20122,0.14599 -34.12708,0 -59.20121,-0.068 -59.20121,-0.16063 z m 79.66246,-110.2018 c 0,-0.0795 -0.40548,-0.45373 -0.90106,-0.83167 -0.49558,-0.37793 -1.92787,-1.75461 -3.18286,-3.05929 -1.25499,-1.30467 -2.2818,-2.27887 -2.2818,-2.16488 0,0.42606 5.79049,6.20034 6.21775,6.20034 0.0814,0 0.14797,-0.065 0.14797,-0.1445 z M 669.342,547.1481 c -0.25024,-0.43299 -0.55345,-1.12367 -0.67379,-1.53485 -0.30544,-1.04357 -1.95404,-2.71896 -2.31767,-2.35533 -0.0711,0.0711 0.0338,0.21843 0.23302,0.32746 0.72885,0.39888 1.48998,1.39567 1.87772,2.45906 0.3867,1.06057 1.07573,2.15089 1.24946,1.97716 0.0474,-0.0474 -0.1185,-0.44051 -0.36874,-0.8735 z m -3.21464,-1.42383 c -0.31691,-0.40013 -0.65805,-0.72751 -0.75808,-0.72751 -0.10004,0 0.0774,0.32738 0.39432,0.72751 0.31691,0.40013 0.65804,0.72751 0.75808,0.72751 0.10003,0 -0.0774,-0.32738 -0.39432,-0.72751 z m -2.14919,-2.5857 c -0.13051,-0.13051 -0.21523,-0.14125 -0.21523,-0.0273 0,0.10337 0.0546,0.2425 0.12126,0.30919 0.0667,0.0667 0.16353,0.079 0.21522,0.0273 0.0517,-0.0517 -0.003,-0.19082 -0.12125,-0.30919 z m -0.58192,-1.05735 c -0.11463,-0.21418 -0.25647,-0.34136 -0.3152,-0.28263 -0.0587,0.0587 0.007,0.31892 0.14549,0.57818 0.13875,0.25926 0.28059,0.38644 0.3152,0.28262 0.0346,-0.10381 -0.0309,-0.36399 -0.14549,-0.57817 z m 1.57219,-0.14278 c -0.26699,-0.38527 -0.60653,-0.70049 -0.75453,-0.70049 -0.36815,0 -0.35823,0.0215 0.39299,0.85304 0.80893,0.89539 1.02468,0.80436 0.36154,-0.15255 z m -3.71844,-7.53 c -0.13051,-0.13051 -0.21522,-0.14125 -0.21522,-0.0273 0,0.10336 0.0546,0.2425 0.12125,0.30919 0.0667,0.0667 0.16354,0.079 0.21522,0.0273 0.0517,-0.0517 -0.003,-0.19082 -0.12125,-0.30919 z"
         id="path38683"
         transform="translate(44.410074,19.308729)" />
      <path
         style="fill:#0000ff;stroke-width:0.181878"
         d="m 594.10376,663.76187 c 0,-0.29635 5.45688,-21.97652 7.64474,-30.37251 1.10785,-4.2514 4.33085,-16.60999 7.16223,-27.46355 l 5.14796,-19.73374 -0.14407,-10.27609 c -0.6426,-45.83591 -0.74464,-49.75562 -1.45121,-55.74554 -0.98249,-8.32904 -4.39148,-20.48549 -8.84909,-31.55579 -1.88658,-4.68528 -2.59921,-6.57373 -2.59921,-6.8879 0,-0.11293 0.10318,-0.20534 0.22929,-0.20534 1.49833,0 33.41551,25.30028 46.24048,36.65415 3.36652,2.98035 8.10834,7.52414 8.65877,8.29715 0.30728,0.43153 0.33585,0.58186 0.15256,0.80271 -0.25601,0.30846 -0.43232,0.0712 2.17697,2.92923 0.95105,1.0417 1.87622,2.25437 2.11792,2.77606 0.23605,0.50948 0.49383,0.91555 0.57284,0.90238 0.44834,-0.0748 0.77145,0.10328 1.50774,0.8308 0.60936,0.6021 0.96405,0.81081 1.38839,0.81696 0.43102,0.006 0.73453,0.19045 1.24524,0.75574 0.57667,0.6383 0.66359,0.84419 0.59512,1.40955 -0.0706,0.58297 0.0652,0.86853 1.137,2.38992 0.66945,0.95031 1.42397,2.05522 1.67671,2.45535 0.25275,0.40013 1.41101,2.18924 2.57393,3.9758 1.16292,1.78656 2.1144,3.32115 2.1144,3.41021 0,0.31455 -0.66465,0.15608 -1.28328,-0.30596 -1.52096,-1.13598 -1.74257,-0.93008 -0.25711,0.23888 0.59479,0.46806 1.12378,1.11179 1.5117,1.83961 0.42667,0.80052 0.80048,1.23593 1.31164,1.5278 0.66066,0.37723 0.96224,0.86289 0.53582,0.86289 -0.10003,0 -0.18187,0.0854 -0.18187,0.18986 0,0.10441 0.1023,0.16963 0.22734,0.14492 0.3252,-0.0643 1.24563,0.46191 1.74701,0.99869 0.23562,0.25224 1.25868,1.71277 2.27347,3.24561 1.1891,1.79612 1.95019,2.77934 2.14072,2.76549 0.78669,-0.0572 6.60969,11.48754 11.29444,22.39245 9.44609,21.98808 15.40854,43.70786 18.41105,67.06705 0.4175,3.24814 1.37279,12.13482 1.37279,12.77058 0,0.25089 -6.06697,0.27953 -59.20122,0.27953 -39.5769,0 -59.20121,-0.0606 -59.20121,-0.18295 z m 79.66246,-110.21686 c 0,-0.10003 -0.076,-0.18188 -0.16884,-0.18188 -0.0929,0 -1.0774,-0.87061 -2.18786,-1.9347 -1.11046,-1.06409 -2.05978,-1.89394 -2.10961,-1.84411 -0.11403,0.11403 4.06305,4.14257 4.29532,4.14257 0.0941,0 0.17099,-0.0819 0.17099,-0.18188 z m -5.55049,-5.35345 c -0.27206,-0.35668 -0.57064,-0.64851 -0.66351,-0.64851 -0.0929,0 0.0942,0.32734 0.41573,0.72744 0.71707,0.8923 0.9355,0.82272 0.24778,-0.0789 z m 1.42066,-0.42117 c -0.0644,-0.17506 -0.22014,-0.48197 -0.34606,-0.68204 -0.12593,-0.20006 -0.39889,-0.82088 -0.60656,-1.3796 -0.20768,-0.55871 -0.58138,-1.20727 -0.83043,-1.44125 -0.54156,-0.50876 -0.5895,-0.33727 -0.0985,0.35228 0.19489,0.2737 0.52651,0.93441 0.73693,1.46824 0.34973,0.88728 1.01135,2.00066 1.18888,2.00066 0.0401,0 0.0201,-0.14323 -0.0443,-0.31829 z m -3.53085,-2.04605 c -0.32152,-0.40009 -0.6201,-0.69193 -0.66351,-0.64852 -0.11323,0.11324 0.87718,1.37596 1.07924,1.37596 0.0929,0 -0.0942,-0.32735 -0.41573,-0.72744 z m -2.12737,-2.58577 c -0.13051,-0.13051 -0.21523,-0.14125 -0.21523,-0.0273 0,0.10337 0.0546,0.2425 0.12126,0.30919 0.0667,0.0667 0.16353,0.079 0.21522,0.0273 0.0517,-0.0517 -0.003,-0.19082 -0.12125,-0.30919 z m -0.57898,-1.05186 c -0.11624,-0.2172 -0.25227,-0.35399 -0.30229,-0.30397 -0.05,0.05 0.004,0.26865 0.12041,0.48585 0.11624,0.2172 0.25227,0.35399 0.30229,0.30397 0.05,-0.05 -0.004,-0.26865 -0.12041,-0.48585 z m 1.1548,-0.6424 c -0.0908,-0.23674 -0.42729,-0.38707 -0.42729,-0.19092 0,0.27021 0.24588,0.63335 0.37487,0.55364 0.0852,-0.0527 0.10877,-0.21587 0.0524,-0.36272 z m -2.77057,-4.55913 c -0.13391,-0.57073 -0.17004,-0.61458 -0.18474,-0.22421 -0.019,0.5037 0.15533,1.12958 0.27988,1.00503 0.0392,-0.0392 -0.004,-0.3906 -0.0951,-0.78082 z m 3.40187,0.21505 c -0.14447,-0.10837 -0.31941,-0.34803 -0.38874,-0.53259 -0.0693,-0.18455 -0.28841,-0.37801 -0.48685,-0.4299 -0.19843,-0.0519 -0.30814,-0.17954 -0.24379,-0.28365 0.0728,-0.11774 0.0272,-0.13381 -0.12054,-0.0425 -0.18546,0.11462 -0.16407,0.20052 0.0976,0.39186 0.18432,0.13478 0.2643,0.24505 0.17773,0.24505 -0.0866,0 0.022,0.19097 0.24128,0.42438 0.21927,0.23341 0.53083,0.42438 0.69234,0.42438 0.25123,0 0.2557,-0.0285 0.031,-0.19703 z M 661.25,534.40844 c -0.13051,-0.13051 -0.21522,-0.14125 -0.21522,-0.0273 0,0.10336 0.0546,0.2425 0.12125,0.30919 0.0667,0.0667 0.16354,0.079 0.21522,0.0273 0.0517,-0.0517 -0.003,-0.19082 -0.12125,-0.30919 z"
         id="path38685"
         transform="translate(44.410074,19.308729)" />
      <path
         style="fill:#0000ff;stroke-width:0.181878"
         d="m 594.10376,663.76039 c 0,-0.32096 4.82989,-19.51747 7.48127,-29.73446 1.4018,-5.40177 4.77937,-18.3742 7.50571,-28.82763 l 4.95699,-19.00623 -0.1384,-10.00328 c -0.63956,-46.2253 -0.7501,-50.29357 -1.53936,-56.65492 -0.57068,-4.59968 -1.89552,-10.36187 -3.99352,-17.36933 -1.44882,-4.83913 -2.71656,-8.41402 -5.10179,-14.38647 -1.04269,-2.61081 -1.89579,-4.96386 -1.89579,-5.22898 0,-0.79362 0.74986,-0.62367 2.43148,0.55106 8.38595,5.85816 34.86105,27.15302 44.48784,35.78314 2.99487,2.6848 7.36165,6.90997 7.84915,7.5946 0.26633,0.37403 0.3127,0.58881 0.18046,0.8359 -0.14841,0.27731 0.15214,0.69345 1.8096,2.50562 1.84369,2.01578 2.94778,3.67554 2.97721,4.47559 0.0126,0.34267 0.28392,0.6915 0.28392,0.36504 0,-0.43945 1.01823,-0.2174 1.55045,0.33812 0.28998,0.30267 0.63802,0.5078 0.77343,0.45584 0.16895,-0.0648 0.21414,0.007 0.14401,0.22748 -0.064,0.20155 0.1096,0.57888 0.4641,1.00896 0.49364,0.59886 0.63593,0.6717 1.10914,0.56777 0.52134,-0.11451 0.5383,-0.0985 0.42783,0.40445 -0.0952,0.43344 0.0474,0.75791 0.82739,1.88277 0.51833,0.74749 2.03496,3.03259 3.3703,5.07799 2.20737,3.38113 2.78284,4.55653 2.23086,4.55653 -0.23614,0 -0.11825,0.45079 0.12125,0.46363 0.64006,0.0343 0.98518,0.3222 0.98518,0.82177 0,0.29335 0.0818,0.53337 0.18187,0.53337 0.10004,0 0.18188,-0.0944 0.18188,-0.2097 0,-0.19687 0.13429,-0.0628 0.97577,0.97398 0.22787,0.28076 0.36716,0.34331 0.42438,0.19058 0.17016,-0.45414 0.45749,-0.22486 0.34188,0.27282 -0.0871,0.375 -0.0693,0.43189 0.0712,0.22734 0.16658,-0.2425 0.20731,-0.2425 0.3665,0 0.0985,0.15005 0.18681,0.39559 0.19624,0.54564 0.0118,0.18723 0.0459,0.2015 0.10888,0.0455 0.16884,-0.41843 0.40755,-0.23346 0.52812,0.40922 0.0657,0.35012 0.19215,0.63657 0.28105,0.63657 0.24858,0 0.19156,0.68506 -0.0657,0.78945 -0.17772,0.0721 -0.17433,0.12949 0.0155,0.26284 0.13359,0.0938 0.23646,0.22245 0.22861,0.28583 -0.0205,0.16581 3.34492,5.22192 3.80339,5.71403 0.21158,0.2271 0.44893,0.37321 0.52745,0.32468 0.51122,-0.31595 6.69821,12.03555 10.93437,21.82905 9.71798,22.46677 15.83343,44.90557 18.80741,69.00812 0.41967,3.40124 1.19488,10.79171 1.19488,11.39145 0,0.20988 -9.24697,0.24873 -59.20122,0.24873 -39.89353,0 -59.20121,-0.0602 -59.20121,-0.18443 z M 675.94875,554.4544 c 0,-0.10003 -0.0867,-0.18188 -0.19261,-0.18188 -0.10593,0 -0.14203,0.0819 -0.0802,0.18188 0.0618,0.10003 0.1485,0.18188 0.19261,0.18188 0.0441,0 0.0802,-0.0819 0.0802,-0.18188 z m -0.54563,-0.18188 c 0,-0.10003 -0.0867,-0.18188 -0.19261,-0.18188 -0.10594,0 -0.14203,0.0819 -0.0802,0.18188 0.0618,0.10004 0.1485,0.18188 0.19262,0.18188 0.0441,0 0.0802,-0.0818 0.0802,-0.18188 z m 0.1873,-0.5355 c -0.20403,-0.38123 -0.55105,-0.6611 -0.55105,-0.44441 0,0.14028 0.55318,0.79803 0.67116,0.79803 0.038,0 -0.016,-0.15913 -0.12011,-0.35362 z m -1.8977,-0.30308 c -0.0931,-0.2426 -0.003,-0.28014 0.52618,-0.2184 0.35122,0.041 0.63859,0.0453 0.63859,0.009 0,-0.0358 -0.25923,-0.38767 -0.57607,-0.78193 -0.60241,-0.74962 -1.02728,-0.97009 -0.70347,-0.36505 0.27694,0.51749 0.24673,0.55759 -0.42011,0.55759 -0.38638,0 -0.73408,-0.13889 -0.95282,-0.3806 -0.18945,-0.20933 -0.50905,-0.45879 -0.71024,-0.55434 -0.20118,-0.0956 0.16621,0.3199 0.81642,0.92324 1.19986,1.11337 1.58446,1.33887 1.38152,0.81002 z m -3.57229,-3.2636 c -0.12907,-0.15551 -0.40508,-0.37123 -0.61338,-0.47937 -0.33794,-0.17547 -0.33124,-0.14503 0.0622,0.28274 0.46577,0.50639 0.95228,0.67995 0.55116,0.19663 z m -1.92918,-1.97817 c -0.28486,-0.35701 -0.58318,-0.64912 -0.66291,-0.64912 -0.0797,0 0.11808,0.32734 0.43961,0.72744 0.32152,0.40009 0.61983,0.69219 0.6629,0.64912 0.0431,-0.0431 -0.15474,-0.37043 -0.4396,-0.72744 z m -2.16183,-2.55185 c -0.27413,-0.3594 -0.5362,-0.61569 -0.58237,-0.56952 -0.0462,0.0462 0.14035,0.378 0.41448,0.73741 0.27414,0.35941 0.5362,0.61569 0.58237,0.56953 0.0462,-0.0462 -0.14035,-0.37801 -0.41448,-0.73742 z m 2.28047,-0.79374 c 0,-0.0826 -0.20461,-0.34239 -0.4547,-0.57733 -0.52725,-0.49533 -0.59639,-0.35424 -0.1364,0.27835 0.32032,0.44053 0.5911,0.57749 0.5911,0.29898 z m -4.33172,-1.70801 c -0.13051,-0.13051 -0.21523,-0.14125 -0.21523,-0.0273 0,0.10337 0.0546,0.2425 0.12126,0.30919 0.0667,0.0667 0.16353,0.079 0.21522,0.0273 0.0517,-0.0517 -0.003,-0.19082 -0.12125,-0.30919 z m -0.52702,-0.87281 c -0.0901,-0.34473 -0.41572,-0.69765 -0.41572,-0.45064 0,0.15466 0.36003,0.81723 0.44407,0.81723 0.0371,0 0.0244,-0.16497 -0.0284,-0.36659 z m -1.66629,-4.95637 c -0.17963,-0.17829 -0.20052,-0.1574 -0.10182,0.10181 0.0683,0.17937 0.17,0.28032 0.226,0.22432 0.056,-0.056 1.2e-4,-0.20276 -0.12418,-0.32613 z m 19.11267,23.37432 c -0.19274,-0.27509 -0.57152,-0.86846 -0.84172,-1.31861 l -0.49128,-0.81845 0.55163,0.63657 c 0.3034,0.35012 0.55383,0.71394 0.55652,0.8085 0.003,0.0946 0.22482,0.40148 0.49362,0.68204 0.2688,0.28057 0.39714,0.51012 0.2852,0.51012 -0.11194,0 -0.36122,-0.22508 -0.55397,-0.50017 z m -1.92376,-2.95181 c -0.26614,-0.40217 -0.44597,-0.73121 -0.39962,-0.73121 0.15527,0 1.06406,1.28187 0.9732,1.37273 -0.0493,0.0493 -0.30744,-0.23936 -0.57358,-0.64152 z m -0.84899,-1.30674 c -0.20827,-0.4061 -0.2034,-0.41098 0.11084,-0.11084 0.18079,0.17267 0.27883,0.36383 0.21786,0.4248 -0.061,0.061 -0.20888,-0.0803 -0.3287,-0.31396 z"
         id="path38724"
         transform="translate(44.410074,19.308729)" />
      <ellipse
         style="fill:#0000ff"
         id="path38859"
         cx="704.88483"
         cy="553.40912"
         rx="1.308701"
         ry="2.78476" />
      <ellipse
         style="fill:#0000ff"
         id="path38861"
         cx="707.68719"
         cy="565.54639"
         rx="6.0876417"
         ry="10.753581" />
      <ellipse
         style="fill:#0000ff"
         id="path38863"
         cx="713.7063"
         cy="574.94824"
         rx="8.9326773"
         ry="3.697629" />
      <ellipse
         style="fill:#0000ff"
         id="path38865"
         cx="713.34399"
         cy="563.76465"
         rx="0.41255265"
         ry="2.6921732" />
      <rect
         style="fill:#0000ff"
         id="rect38889"
         width="3.1121202"
         height="1.2820485"
         x="709.37378"
         y="558.97064" />
      <rect
         style="fill:#0000ff"
         id="rect38891"
         width="3.284065"
         height="4.4479523"
         x="712.26648"
         y="566.01282" />
      <rect
         style="fill:#0000ff"
         id="rect38893"
         width="4.3036785"
         height="4.4954586"
         x="715.55054"
         y="570.46075" />
      <rect
         style="fill:#0000ff"
         id="rect38967"
         width="2.8305731"
         height="6.3054452"
         x="712.71997"
         y="564.15527" />
      <rect
         style="fill:#0000ff"
         id="rect38969"
         width="3.6896837"
         height="5.3400688"
         x="697.76379"
         y="547.18994" />
      <rect
         style="fill:#0000ff"
         id="rect38971"
         width="2.3679762"
         height="1.0310719"
         x="703.29211"
         y="552.6861" />
      <ellipse
         style="fill:#0000ff"
         id="path39022"
         cx="715.18463"
         cy="569.3775"
         rx="2.9181573"
         ry="3.3646908" />
      <ellipse
         style="fill:#0000ff"
         id="path39024"
         cx="718.2832"
         cy="571.15576"
         rx="0.36090082"
         ry="3.0060806" />
      <ellipse
         style="fill:#0000ff"
         id="path39026"
         cx="713.87231"
         cy="566.02118"
         rx="2.9873378"
         ry="2.4424725" />
      <ellipse
         style="fill:#0000ff"
         id="path39028"
         cx="711.85107"
         cy="562.84344"
         rx="0.60160321"
         ry="0.99601698" />
      <ellipse
         style="fill:#0000ff"
         id="path39030"
         cx="713.32166"
         cy="563.06586"
         rx="0.82111812"
         ry="1.3660854" />
      <ellipse
         style="fill:#0000ff"
         id="path39032"
         cx="714.4436"
         cy="563.71002"
         rx="0.61494726"
         ry="1.4667262" />
      <ellipse
         style="fill:#0000ff"
         id="path39034"
         cx="706.62073"
         cy="554.03271"
         rx="0.96062607"
         ry="1.3466301" />
      <ellipse
         style="fill:#0000ff"
         id="path39036"
         cx="718.31488"
         cy="570.97363"
         rx="0.072526492"
         ry="0.4645974" />
      <ellipse
         style="fill:#0000ff"
         id="path39038"
         cx="718.90747"
         cy="571.11212"
         rx="0.21628535"
         ry="1.0930172" />
      <path
         style="fill:#0000ff;fill-opacity:1;stroke:#000000;stroke-width:1.17849px;stroke-linecap:butt;stroke-linejoin:miter;stroke-opacity:1"
         d="m 398.65438,503.80813 c 0.92619,2.47646 2.21404,4.81732 3.81002,6.92529 2.42687,3.20542 5.52245,5.82949 8.33549,8.70198 2.88012,2.94098 5.47717,6.15903 7.74361,9.59526"
         id="path39972"
         inkscape:path-effect="#path-effect39974"
         inkscape:original-d="m 398.65438,503.80813 c 1.27119,2.3096 2.54119,4.61804 3.81002,6.92529 1.26882,2.30725 5.55816,5.8025 8.33549,8.70198 2.7773,2.89949 5.16357,6.39802 7.74361,9.59526"
         inkscape:transform-center-x="-0.0300115"
         inkscape:transform-center-y="0.30792603" />
      <path
         style="fill:#0000ff;fill-opacity:1;stroke:none;stroke-width:0.0658658;stroke-miterlimit:4;stroke-dasharray:none;stroke-opacity:1"
         d="m 363.44875,492.30015 c -0.84226,0.0673 -1.86194,0.23902 -2.34818,1.00861 -0.33262,0.74091 0.42606,1.34968 0.78128,1.91727 0.66532,0.76939 1.17738,1.73129 2.05198,2.2866 0.66741,0.36084 1.3415,-0.26857 1.45447,-0.91523 0.36037,-1.13478 0.63795,-2.6015 -0.24741,-3.57048 -0.42679,-0.47483 -1.046,-0.77053 -1.69214,-0.72677 z"
         id="path40476"
         transform="translate(44.410074,19.308729)" />
      <path
         style="fill:#0000ff;fill-opacity:1;stroke:none;stroke-width:0.0658658;stroke-miterlimit:4;stroke-dasharray:none;stroke-opacity:1"
         d="m 365.2283,492.02943 c -0.79045,-0.0198 -1.09853,1.08815 -0.47689,1.5343 0.5304,0.53745 1.48236,0.002 1.3723,-0.72368 -0.006,-0.46839 -0.43046,-0.84551 -0.89541,-0.81062 z"
         id="path40515"
         transform="translate(44.410074,19.308729)" />
      <path
         style="fill:#0000ff;fill-opacity:1;stroke:none;stroke-width:0.0658658;stroke-miterlimit:4;stroke-dasharray:none;stroke-opacity:1"
         d="m 369.12392,500.88641 c -0.74972,-0.0213 -1.06211,0.91436 -0.68461,1.47841 0.31485,0.78281 1.58496,0.86001 1.89213,0.0306 0.32722,-0.76605 -0.4305,-1.58294 -1.20752,-1.50898 z"
         id="path40591"
         transform="translate(44.410074,19.308729)" />
      <path
         style="fill:#0000ff;fill-opacity:1;stroke:none;stroke-width:0.0658658;stroke-miterlimit:4;stroke-dasharray:none;stroke-opacity:1"
         d="m 363.43516,496.78277 c -0.81958,0.0162 -0.98628,1.12102 -0.46284,1.61076 1.35531,1.53157 2.81111,2.97684 4.28572,4.39336 0.46019,0.53813 1.57241,0.67981 1.82356,-0.12957 0.0401,-0.45562 -0.14903,-0.903 -0.0933,-1.36953 -0.19949,-0.73639 -0.95994,-1.13353 -1.41418,-1.71399 -0.87834,-0.82981 -1.62723,-1.82028 -2.62352,-2.51335 -0.46879,-0.20765 -1.01263,-0.20929 -1.51547,-0.27768 z"
         id="path40704"
         transform="translate(44.410074,19.308729)" />
      <path
         style="fill:#0000ff;fill-opacity:1;stroke:none;stroke-width:0.0658658;stroke-miterlimit:4;stroke-dasharray:none;stroke-opacity:1"
         d="m 369.20654,502.29022 c -0.76292,-0.10364 -1.45976,0.76864 -1.03765,1.45771 0.81829,1.24368 1.83025,2.28153 2.68589,3.49949 0.77918,0.95961 1.37277,2.04119 2.1995,2.96299 0.63798,0.62939 1.58616,0.1201 2.05043,-0.45898 0.36233,-0.70515 -0.38995,-1.28811 -0.70113,-1.85136 -1.32649,-1.83283 -2.65565,-3.68085 -4.15789,-5.36993 -0.27984,-0.27337 -0.68035,-0.21619 -1.03915,-0.23992 z"
         id="path40743"
         transform="translate(44.410074,19.308729)" />
      <path
         style="fill:#0000ff;fill-opacity:1;stroke:none;stroke-width:0.0658658;stroke-miterlimit:4;stroke-dasharray:none;stroke-opacity:1"
         d="m 360.93208,493.62288 c -0.94203,0.21619 -0.83498,1.94194 0.1844,1.93662 0.53196,0.10934 1.24575,-0.19526 1.11204,-0.82653 -0.20632,-0.50072 -0.6576,-1.20255 -1.29644,-1.11009 z"
         id="path40782"
         transform="translate(44.410074,19.308729)" />
      <path
         style="fill:#0000ff;fill-opacity:1;stroke:none;stroke-width:0.0658658;stroke-miterlimit:4;stroke-dasharray:none;stroke-opacity:1"
         d="m 361.86919,494.81883 c -0.59939,-0.0276 -1.27295,0.38869 -1.17494,1.05896 0.1106,0.77426 0.85157,1.25767 1.45092,1.66496 0.6337,0.44681 1.71395,-0.0734 1.51176,-0.90051 -0.24313,-0.63576 -0.71221,-1.18913 -1.20104,-1.654 -0.17021,-0.11916 -0.37916,-0.17955 -0.5867,-0.16941 z"
         id="path40821"
         transform="translate(44.410074,19.308729)" />
      <path
         style="fill:#0000ff;fill-opacity:1;stroke:none;stroke-width:0.0658658;stroke-miterlimit:4;stroke-dasharray:none;stroke-opacity:1"
         d="m 354.5879,483.73103 c -0.6756,0.0735 -1.53679,0.50986 -1.38883,1.32103 0.37428,1.39458 1.10026,2.6738 1.78497,3.93763 1.21553,2.08051 2.62663,4.071 4.32524,5.78497 0.48323,0.52289 1.39648,0.3643 1.66048,-0.30084 0.29159,-0.46608 0.52481,-1.13094 -0.002,-1.52881 -2.36272,-2.49926 -4.18331,-5.47993 -5.49784,-8.64937 -0.16493,-0.33119 -0.48835,-0.61647 -0.88198,-0.56461 z"
         id="path40860"
         transform="translate(44.410074,19.308729)" />
      <path
         style="fill:#0000ff;fill-opacity:1;stroke:none;stroke-width:0.0499176;stroke-miterlimit:4;stroke-dasharray:none;stroke-opacity:1"
         d="m 360.68067,494.37404 c -0.47915,-0.0449 -1.06593,0.28083 -0.9582,0.82307 0.086,0.44614 0.5158,0.7498 0.87639,0.9831 0.54276,0.1548 0.98996,-0.36606 0.9334,-0.88693 0.0702,-0.50396 -0.33742,-0.96034 -0.85159,-0.91924 z"
         id="path40938"
         transform="translate(44.410074,19.308729)" />
      <path
         style="fill:#0000ff;stroke:#000000;stroke-width:1.00601px;stroke-linecap:butt;stroke-linejoin:miter;stroke-opacity:1"
         d="m 461.79949,556.90213 c 0.63513,1.93828 1.33393,3.85569 2.09489,5.74811 1.23671,3.07558 2.63655,6.08273 4.06132,9.07583 1.05626,2.21894 2.12666,4.43115 3.21111,6.63645"
         id="path41183"
         inkscape:path-effect="#path-effect41185"
         inkscape:original-d="m 461.79949,556.90213 c 0.69931,1.91705 1.39762,3.83308 2.09489,5.74811 0.69729,1.91504 2.70856,6.05155 4.06132,9.07583 1.35277,3.02427 2.14176,4.42531 3.21111,6.63645" />
      <path
         style="fill:#0000ff;fill-opacity:1;stroke:none;stroke-width:0.017664;stroke-miterlimit:4;stroke-dasharray:none;stroke-opacity:1"
         d="m 417.38412,538.68955 c -0.34932,10e-4 -0.63492,0.24973 -0.793,0.54417 -0.41292,0.65132 -0.41035,1.50957 -0.0593,2.18668 0.32004,0.65013 0.90558,1.15238 1.56864,1.43023 0.36774,0.15444 0.85022,8e-4 1.00241,-0.38301 0.14412,-0.32311 -0.007,-0.67851 -0.15842,-0.96986 -0.12279,-0.21976 -0.35911,-0.32515 -0.58845,-0.39392 -0.16776,-0.0569 -0.24121,-0.25141 -0.17507,-0.41023 0.0934,-0.24891 0.27609,-0.4944 0.19226,-0.77408 -0.0848,-0.28429 -0.18347,-0.56888 -0.29932,-0.84231 -0.11858,-0.26011 -0.40904,-0.40943 -0.68975,-0.38767 z"
         id="path41341"
         transform="translate(44.410074,19.308729)" />
      <path
         style="fill:#0000ff;fill-opacity:1;stroke:none;stroke-width:0.017664;stroke-miterlimit:4;stroke-dasharray:none;stroke-opacity:1"
         d="m 417.80102,536.77283 c -0.38167,0.0596 -0.74655,0.20355 -1.10463,0.34467 -0.35207,0.14292 -0.52998,0.56991 -0.40219,0.92442 0.10508,0.34459 0.19796,0.69675 0.35071,1.02352 0.15846,0.24572 0.45799,0.34802 0.74032,0.32041 0.11405,-0.0362 0.0988,0.1213 0.14192,0.18556 0.0537,0.171 0.13976,0.34359 0.16113,0.5176 -0.14615,0.33478 -0.29933,0.7174 -0.15709,1.08069 0.11483,0.33718 0.43933,0.53437 0.75954,0.64448 0.12355,0.057 0.12984,0.22688 0.17482,0.33854 0.0179,0.0903 -0.12658,0.10657 -0.15975,0.17685 -0.24836,0.22644 -0.2898,0.60985 -0.14492,0.90445 1.42252,3.60992 3.08546,7.11838 4.75029,10.62113 0.88388,1.84007 1.76574,3.68141 2.6765,5.50832 0.12288,0.26772 0.33743,0.53728 0.65266,0.5616 0.33633,0.049 0.62212,-0.18122 0.91819,-0.30167 0.27509,-0.13073 0.60748,-0.26703 0.69088,-0.59298 0.125,-0.33922 -0.11048,-0.65147 -0.2412,-0.9481 -1.7703,-3.61583 -3.51949,-7.23658 -5.18493,-10.90141 -1.33958,-2.97859 -2.57281,-5.99695 -3.6148,-9.10407 -0.11823,-0.32135 -0.19501,-0.6621 -0.35211,-0.96688 -0.13618,-0.22222 -0.39475,-0.35646 -0.65534,-0.33713 z"
         id="path41380"
         transform="translate(44.410074,19.308729)" />
      <path
         style="fill:none;stroke:#000000;stroke-width:1px;stroke-linecap:butt;stroke-linejoin:miter;stroke-opacity:1"
         d="m 498.43059,608.58096 c 1.31856,1.08703 2.75231,2.03427 4.26946,2.82072 2.66773,1.38287 5.58364,2.26635 8.16997,3.79605 2.74561,1.62391 5.07993,3.95283 8.02538,5.17747 1.97837,0.82255 4.13164,1.10282 6.24865,1.43266 7.28749,1.13542 14.45089,2.94151 21.66633,4.46927 1.21128,0.25647 2.42521,0.50531 3.65129,0.67769 1.73966,0.24459 3.50105,0.33444 5.25657,0.26813"
         id="path41501"
         inkscape:path-effect="#path-effect41503"
         inkscape:original-d="m 498.43059,608.58096 c 1.42415,0.94124 2.8473,1.88148 4.26946,2.82072 1.42215,0.93924 5.44765,2.5317 8.16997,3.79605 2.72233,1.26435 5.35126,3.45265 8.02538,5.17747 2.67413,1.72483 4.16677,0.95611 6.24865,1.43266 2.08189,0.47656 14.44522,2.98051 21.66633,4.46927 7.22111,1.48876 2.4352,0.4528 3.65129,0.67769 1.2161,0.2249 3.50538,0.17976 5.25657,0.26813" />
      <path
         style="fill:#0000ff;fill-opacity:1;stroke:none;stroke-width:0.0353602;stroke-miterlimit:4;stroke-dasharray:none;stroke-opacity:1"
         d="m 454.31791,588.30502 c -0.54094,0.0677 -0.90453,0.57537 -1.1186,1.0352 -0.19782,0.48586 0.15498,0.95572 0.54403,1.21546 1.91706,1.55321 4.12011,2.69927 6.37366,3.67966 1.62794,0.71572 3.30522,1.38684 4.87182,2.1982 1.90346,0.9585 3.58014,2.36345 5.33857,3.579 1.77045,1.2755 3.72643,2.34175 5.86404,2.84367 2.3612,0.57561 4.77713,0.83178 7.14999,1.27684 6.4726,1.15343 12.86313,2.74108 19.30952,4.08621 2.42077,0.51834 4.88431,0.9137 7.36708,0.87592 0.52655,-0.0212 1.06294,0.0622 1.58141,-0.0453 0.37283,-0.16183 0.49841,-0.59866 0.38934,-0.96713 -0.0319,-0.42457 0.093,-0.98795 -0.36169,-1.2273 -0.40146,-0.20421 -0.88479,-0.07 -1.32134,-0.11175 -2.33787,0.0271 -4.67961,-0.28425 -6.94279,-0.78276 -7.63214,-1.59558 -15.22816,-3.52254 -22.95241,-4.70476 -2.20226,-0.36 -4.48451,-0.66846 -6.47612,-1.75145 -2.88967,-1.57837 -5.2763,-3.9511 -8.26425,-5.36612 -2.40629,-1.20248 -4.95103,-2.0801 -7.31848,-3.35505 -1.1946,-0.64261 -2.29615,-1.40087 -3.3686,-2.23547 -0.19662,-0.13598 -0.41758,-0.25906 -0.66518,-0.24309 z"
         id="path41622"
         transform="translate(44.410074,19.308729)" />
      <path
         style="fill:none;stroke:#000000;stroke-width:1px;stroke-linecap:butt;stroke-linejoin:miter;stroke-opacity:1"
         d="m 459.79818,660.14516 14.10003,0.5043"
         id="path41698"
         inkscape:path-effect="#path-effect41700"
         inkscape:original-d="m 459.79818,660.14516 c 4.70101,0.1691 9.40102,0.3372 14.10003,0.5043" />
      <path
         style="fill:#0000ff;fill-opacity:1;stroke:none;stroke-width:0.086937;stroke-miterlimit:4;stroke-dasharray:none;stroke-opacity:1"
         d="m 415.04668,639.80031 c -0.47551,0.45611 -0.4009,1.2933 -0.12597,1.8417 0.59306,0.62289 1.57534,0.2541 2.33367,0.4021 4.04721,0.1496 8.09361,0.32314 12.14142,0.45504 0.91057,-0.0784 0.77337,-1.20024 0.65502,-1.83791 -0.26134,-0.77773 -1.24204,-0.41424 -1.84718,-0.52235 -4.28067,-0.12052 -8.57727,-0.33145 -12.84683,-0.42415 -0.10338,0.0285 -0.20675,0.0571 -0.31013,0.0856 z"
         id="path41932"
         transform="translate(44.410074,19.308729)" />
      <path
         style="fill:#0000ff;fill-opacity:1;stroke:none;stroke-width:0.086937;stroke-miterlimit:4;stroke-dasharray:none;stroke-opacity:1"
         d="m 425.01711,639.0143 c -0.74399,-0.0994 -1.34614,0.8498 -0.77602,1.4171 0.59923,0.55721 2.06232,0.37736 2.00864,-0.63211 -0.0411,-0.62132 -0.69978,-0.84449 -1.23262,-0.78499 z"
         id="path41971"
         transform="translate(44.410074,19.308729)" />
      <path
         style="fill:#0000ff;fill-opacity:1;stroke:none;stroke-width:0.086937;stroke-miterlimit:4;stroke-dasharray:none;stroke-opacity:1"
         d="m 343.32352,581.32288 c -0.57314,0.63016 -0.17614,1.57508 -0.29194,2.34538 0.0168,13.5146 0.0336,27.0292 0.0504,40.54379 0.16318,0.89746 1.31717,0.84316 1.97663,1.20714 7.64008,2.64803 15.29611,5.34023 23.20168,7.09441 4.32105,1.01757 8.81726,1.01975 13.05373,2.41766 2.96509,1.32893 6.20828,1.84109 9.3536,2.57182 7.13082,1.46504 14.29094,2.83617 21.51555,3.75122 0.65072,0.11441 1.42514,0.0552 1.99822,0.19691 0.17144,1.06958 1.39491,1.20484 2.2745,1.22033 4.23351,0.13031 8.4593,0.39373 12.6949,0.43037 0.49165,1.6e-4 1.03213,-0.12535 1.32455,-0.5573 4.83323,-0.14821 9.69581,-0.0865 14.53952,-0.30157 11.26402,-0.46141 22.55885,-0.746 33.75739,-2.13592 4.75369,-0.52733 9.41328,-1.75252 14.15561,-2.08511 2.15417,-0.14708 4.36716,0.12721 6.44763,-0.5947 7.29297,-2.03332 14.35996,-4.79057 21.38688,-7.58894 7.62296,-3.11357 15.23189,-6.3496 22.36273,-10.49259 6.49449,-4.01317 12.76346,-8.42643 18.54821,-13.41568 3.74695,-3.18447 6.57899,-7.27341 9.15952,-11.41844 1.11648,-1.75424 1.95261,-3.65873 2.67035,-5.6043 0.60928,-1.04066 1.5012,-1.89909 1.97806,-3.02621 0.3086,-0.73501 1.08171,-1.72844 0.36916,-2.4577 -0.93408,-0.63422 -1.93844,0.2718 -2.72738,0.73505 -3.77199,2.59755 -7.38361,5.44843 -11.41665,7.64687 -10.66797,5.9891 -22.45142,9.68471 -34.3647,12.36933 -4.98817,1.11024 -9.99878,2.0808 -15.08835,2.65469 -0.73193,0.0484 -1.1165,0.79386 -0.95285,1.45799 -0.37652,0.15865 -0.98452,0.0479 -1.4494,0.0808 -3.97989,0.0954 -7.85547,-1.06547 -11.74557,-1.84276 -6.44509,-1.4333 -12.92847,-2.85604 -19.44151,-3.87851 -2.03841,-0.31189 -4.10019,-0.86212 -5.9095,-1.91912 -3.08202,-1.81442 -5.76842,-4.29062 -9.09113,-5.69746 -3.37757,-1.53876 -7.01877,-2.7996 -9.79697,-5.35202 0.13517,-0.52807 0.93753,-1.13768 0.3608,-1.72103 -2.3338,-2.16093 -4.61989,-4.38975 -6.90129,-6.59547 -0.72211,-0.37178 -1.61102,-0.0724 -2.40013,-0.16855 -33.73213,0 -67.46426,0 -101.1964,0 -0.13528,0.0432 -0.27056,0.0864 -0.40584,0.12964 z m 80.82482,57.58808 c 0.76653,0.0374 0.64656,1.29345 -0.11333,1.18472 -0.44477,-0.38382 -0.5059,0.78974 -0.89071,0.33046 -0.39747,-0.3727 0.0369,-1.0836 0.34951,-1.10934 -0.097,-0.22858 0.68736,-0.33591 0.80638,0.0996 0.16327,0.30577 -0.1676,-0.48122 -0.43091,-0.4351 -0.11593,-0.0564 0.31721,-0.0828 0.27906,-0.0703 z m 0.20934,0.64862 c 0.006,0.0192 -0.004,-0.021 0,0 z m 2.1e-4,6.1e-4 c 0.0243,0.24221 0.0166,0.0336 0,0 z m -6.94239,-0.40605 c 0.5162,0.23986 0.40765,1.32685 -0.21464,1.22243 -0.54085,-0.22235 -0.38263,-1.33229 0.21464,-1.22243 z m 6.28195,-0.0181 c 0.0135,0.002 0.0625,-0.0214 0,0 z m 0.0734,-10e-4 c 0.0142,0.0138 -0.0111,-0.0125 0,0 z m -0.17286,0.0404 c 0.0125,-7.1e-4 0.0522,-0.0302 0,0 z m -0.0328,0.0481 c 0.007,-0.006 0.0187,-0.0415 0,0 z m -2.94324,-0.0116 c 0.64284,0.14005 0.60678,1.2956 -0.064,1.30315 -0.60584,-0.19404 -0.55032,-1.17457 0.064,-1.30315 z m 3.23902,0.0395 c 0.01,0.0138 -0.009,-0.0159 0,0 z m -0.34123,0.0838 c 0.006,-0.007 0.0101,-0.0446 0,0 z m 0.39871,0.0369 c 0.007,0.0167 -0.005,-0.016 0,0 z m -0.52509,0.0259 c 0.0227,0.0147 -0.0163,-0.0127 0,0 z m 0.10396,0.0587 c 0.005,-0.009 8e-4,-0.0468 0,0 z m -0.1751,0.0122 c 0.004,-0.005 0.009,-0.0225 0,0 z m 0.16755,0.01 c 0.0167,0.016 -0.0105,-0.013 0,0 z m 0.46333,0.0457 c 0.003,0.0174 -8.9e-4,-0.0174 0,0 z m -0.65677,0.0128 c 0.003,-0.004 0.007,-0.0248 0,0 z m -0.0212,0.0919 c 0.003,-0.005 0.002,-0.0257 0,0 z m 0.67491,0.0546 c -0.002,0.025 0.005,-0.0207 0,0 z m -0.68184,0.0451 c 0.001,-0.006 -10e-4,-0.0264 0,0 z m 0.006,0.0805 c 5.6e-4,-0.006 -0.005,-0.0268 0,0 z m 0.0145,0.0701 c 4.2e-4,-0.005 -0.009,-0.0286 0,0 z m 0.5999,0.003 c -0.007,0.0196 0.0118,-0.0206 0,0 z m -0.20812,0.0526 c 0.002,0.0148 0.001,-0.0158 0,0 z m 0.0424,0.0371 c -0.005,-0.008 -0.0363,-0.0253 0,0 z m -0.39301,0.0181 c -6.2e-4,-0.007 -0.0167,-0.0295 0,0 z m 0.0538,0.0901 c -0.002,-0.008 -0.0234,-0.0287 0,0 z m 0.0646,0.0754 c -0.005,-0.008 -0.0295,-0.0267 0,0 z m 0.16002,0.0139 c -0.0249,0.0139 0.028,-0.0131 0,0 z m -0.11313,0.0273 c -0.006,-0.007 -0.0354,-0.0262 0,0 z m 0.0393,0.004 c -0.0262,0.0105 0.0371,-0.0121 0,0 z m -0.0353,0.0106 c -0.25311,-0.003 0.29135,0.0802 0,0 z"
         id="path42084"
         transform="translate(44.410074,19.308729)" />
      <path
         style="fill:none;stroke:#000000;stroke-width:1px;stroke-linecap:butt;stroke-linejoin:miter;stroke-opacity:1"
         d="m 220.71371,478.80621 c 1.56155,3.60623 2.9139,7.30303 4.04801,11.06562 1.38578,4.59758 2.44788,9.29869 4.12624,13.79771 1.74308,4.6725 4.13024,9.07226 6.4236,13.5007 2.61012,5.04009 5.11044,10.14232 7.98593,15.03586 1.80634,3.07406 3.75888,6.06221 5.84879,8.95097"
         id="path42156"
         inkscape:path-effect="#path-effect42158"
         inkscape:original-d="m 220.71371,478.80621 c 1.35034,3.68954 2.69967,7.37808 4.04801,11.06562 1.34834,3.68754 2.75183,9.19947 4.12624,13.79771 1.37442,4.59823 4.2834,9.00147 6.4236,13.5007 2.1402,4.49923 5.32495,10.02491 7.98593,15.03586 2.66097,5.01096 3.90019,5.96831 5.84879,8.95097" />
      <path
         style="fill:#0000ff;fill-opacity:1;stroke:none;stroke-width:0.0998993;stroke-miterlimit:4;stroke-dasharray:none;stroke-opacity:1"
         d="m 182.76214,475.47449 c -0.75969,-0.0308 -1.06957,0.8504 -0.74412,1.44619 0.34732,0.98139 0.41221,2.11665 1.00271,2.98268 0.79419,0.56429 1.73944,1.65494 2.81876,1.14399 0.70703,-0.60116 0.56545,-1.70676 0.44316,-2.53721 -0.35492,-1.61019 -1.88535,-2.91798 -3.52051,-3.03565 z"
         id="path42197"
         transform="translate(44.410074,19.308729)" />
      <path
         style="fill:#0000ff;fill-opacity:1;stroke:none;stroke-width:0.0998993;stroke-miterlimit:4;stroke-dasharray:none;stroke-opacity:1"
         d="m 180.62617,473.39919 c -0.61544,0.62377 -0.16961,1.60803 0.0344,2.3449 0.38048,1.04193 2.45425,0.8023 2.18422,-0.4434 -0.15116,-0.79116 -0.35809,-1.95518 -1.3815,-1.96451 -0.29133,-0.0635 -0.55563,-0.0233 -0.83715,0.063 z"
         id="path42236"
         transform="translate(44.410074,19.308729)" />
      <path
         style="fill:#0000ff;fill-opacity:1;stroke:none;stroke-width:0.0998993;stroke-miterlimit:4;stroke-dasharray:none;stroke-opacity:1"
         d="m 180.66458,471.1632 c -0.89139,-0.0479 -1.18346,1.02666 -0.83129,1.701 0.0825,0.71004 0.70071,1.27114 1.43327,1.12807 0.81363,0.18125 1.2819,-0.70119 0.87369,-1.35852 -0.15222,-0.77206 -0.55397,-1.56141 -1.47567,-1.47055 z"
         id="path42275"
         transform="translate(44.410074,19.308729)" />
      <path
         style="fill:#0000ff;fill-opacity:1;stroke:none;stroke-width:0.0998993;stroke-miterlimit:4;stroke-dasharray:none;stroke-opacity:1"
         d="m 177.8217,460.12101 c -0.91409,-0.0819 -1.20506,1.03999 -0.69707,1.65555 0.40772,0.84927 1.93089,0.77094 1.96497,-0.28435 0.0854,-0.75002 -0.47731,-1.45898 -1.2679,-1.3712 z"
         id="path42314"
         transform="translate(44.410074,19.308729)" />
      <path
         style="fill:#0000ff;fill-opacity:1;stroke:none;stroke-width:0.0998993;stroke-miterlimit:4;stroke-dasharray:none;stroke-opacity:1"
         d="m 177.87768,459.52067 c -1.02371,-0.10769 -1.89698,0.92987 -1.57099,1.91766 0.18519,1.09003 1.3707,1.87812 2.42501,1.39088 0.92522,-0.30747 1.32834,-1.42421 0.87415,-2.27394 -0.2719,-0.69144 -1.00868,-1.06561 -1.72817,-1.0346 z"
         id="path42353"
         transform="translate(44.410074,19.308729)" />
      <path
         style="fill:#0000ff;fill-opacity:1;stroke:none;stroke-width:0.0998993;stroke-miterlimit:4;stroke-dasharray:none;stroke-opacity:1"
         d="m 177.0054,459.04611 c -0.6415,0.19914 -1.2716,0.84628 -1.29179,1.53985 0.222,1.08838 2.28134,0.89501 2.17696,-0.28366 0.0567,-0.56658 -0.17705,-1.3275 -0.88517,-1.25619 z"
         id="path42392"
         transform="translate(44.410074,19.308729)" />
      <path
         style="fill:#0000ff;fill-opacity:1;stroke:none;stroke-width:0.0998993;stroke-miterlimit:4;stroke-dasharray:none;stroke-opacity:1"
         d="m 178.70125,462.18366 c -1.23663,0.006 -1.2253,2.01549 -0.0312,2.08209 0.72523,0.20646 1.45875,-0.51258 1.11893,-1.23019 -0.12947,-0.4849 -0.55175,-0.91649 -1.08777,-0.8519 z"
         id="path42468"
         transform="translate(44.410074,19.308729)" />
      <path
         style="fill:#0000ff;fill-opacity:1;stroke:none;stroke-width:0.0998993;stroke-miterlimit:4;stroke-dasharray:none;stroke-opacity:1"
         d="m 176.99369,458.3652 c -1.0665,0.21945 -1.97944,1.36584 -1.86918,2.46413 0.10946,0.53418 0.67491,0.74793 0.75048,1.29507 0.26776,0.58765 0.8688,0.97541 1.27306,1.39087 0.24201,1.36181 2.07234,1.82636 3.02488,0.89594 0.589,-0.57787 0.30158,-1.50992 0.0752,-2.13737 0.64,-1.46384 -0.39578,-3.32272 -2.02073,-3.42659 -0.33533,-0.28935 -0.76246,-0.51972 -1.2337,-0.48205 z"
         id="path42507"
         transform="translate(44.410074,19.308729)" />
      <path
         style="fill:#0000ff;fill-opacity:1;stroke:none;stroke-width:0.0998993;stroke-miterlimit:4;stroke-dasharray:none;stroke-opacity:1"
         d="m 179.31166,466.85121 c -0.93251,0.003 -1.02958,1.11616 -0.73479,1.7776 0.31773,0.99664 0.5406,2.03704 0.95403,2.99536 0.5973,0.50397 1.88018,0.28213 2.07015,-0.55138 -0.18,-1.22627 -0.64225,-2.42291 -1.07466,-3.58563 -0.21529,-0.47867 -0.7159,-0.66474 -1.21473,-0.63595 z"
         id="path42546"
         transform="translate(44.410074,19.308729)" />
      <path
         style="fill:#0000ff;fill-opacity:1;stroke:none;stroke-width:0.0998993;stroke-miterlimit:4;stroke-dasharray:none;stroke-opacity:1"
         d="m 178.60638,464.79887 c -0.82723,-0.0569 -1.08273,0.89837 -0.80295,1.52977 0.0697,0.71846 0.66513,1.41921 1.44381,1.2063 0.78554,0.0529 1.24339,-0.84588 0.84441,-1.48878 -0.20352,-0.70574 -0.64963,-1.36219 -1.48527,-1.24729 z"
         id="path42622"
         transform="translate(44.410074,19.308729)" />
      <path
         style="fill:#0000ff;fill-opacity:1;stroke:none;stroke-width:0.0998993;stroke-miterlimit:4;stroke-dasharray:none;stroke-opacity:1"
         d="m 184.39076,483.50844 c -0.89581,-0.0363 -1.14767,1.041 -0.77904,1.6974 1.92999,5.14087 4.6924,9.91084 7.12558,14.82 3.82512,7.48698 7.67173,15.01899 12.65019,21.82203 0.43163,0.74083 1.54418,0.95631 2.07671,0.20402 0.53678,-0.87665 -0.48892,-1.67153 -0.87276,-2.37914 -5.32523,-7.45342 -9.23907,-15.77152 -13.47753,-23.85866 -2.00817,-3.88871 -3.95568,-7.79491 -5.6157,-11.84703 -0.24054,-0.36203 -0.69279,-0.49164 -1.10745,-0.45862 z"
         id="path42698"
         transform="translate(44.410074,19.308729)" />
      <path
         style="fill:#0000ff;fill-opacity:1;stroke:none;stroke-width:0.0998993;stroke-miterlimit:4;stroke-dasharray:none;stroke-opacity:1"
         d="m 183.41565,480.7644 c -0.92232,-0.0171 -1.1045,1.0959 -0.77495,1.76626 0.2387,0.71152 0.3682,1.98241 1.41183,1.70925 0.66134,0.0399 1.51734,-0.45943 1.15271,-1.2065 -0.35897,-0.88674 -0.48751,-2.38441 -1.78959,-2.26901 z"
         id="path42737"
         transform="translate(44.410074,19.308729)" />
      <path
         style="fill:#0000ff;fill-opacity:1;stroke:none;stroke-width:0.0998993;stroke-miterlimit:4;stroke-dasharray:none;stroke-opacity:1"
         d="m 202.12147,513.51176 c -0.84098,-0.0751 -1.53508,0.75001 -1.22551,1.55461 0.10688,0.99442 1.59318,1.63152 2.16876,0.66077 0.27867,-0.7129 0.34176,-1.78668 -0.50899,-2.14019 -0.13737,-0.0556 -0.28642,-0.0793 -0.43426,-0.0752 z"
         id="path42776"
         transform="translate(44.410074,19.308729)" />
      <path
         style="fill:#0000ff;fill-opacity:1;stroke:none;stroke-width:0.0998993;stroke-miterlimit:4;stroke-dasharray:none;stroke-opacity:1"
         d="m 182.961,479.41241 c -1.15901,-0.005 -1.25432,1.92118 -0.10634,2.03244 0.67258,0.14838 1.74162,-0.24948 1.44685,-1.10066 -0.22626,-0.51207 -0.75334,-0.96512 -1.34051,-0.93178 z"
         id="path42852"
         transform="translate(44.410074,19.308729)" />
      <path
         style="fill:#0000ff;fill-opacity:1;stroke:none;stroke-width:0.0998993;stroke-miterlimit:4;stroke-dasharray:none;stroke-opacity:1"
         d="m 181.97277,476.91666 c -1.27741,0.20655 -0.65402,2.59337 0.55443,2.17508 0.78154,-0.39217 0.54368,-1.6661 -0.0719,-2.09731 -0.14931,-0.0734 -0.3176,-0.10324 -0.48252,-0.0778 z"
         id="path42891"
         transform="translate(44.410074,19.308729)" />
      <path
         style="fill:#0000ff;fill-opacity:1;stroke:none;stroke-width:0.0998993;stroke-miterlimit:4;stroke-dasharray:none;stroke-opacity:1"
         d="m 181.67038,475.71481 c -1.15609,0.11476 -0.84975,2.19211 0.31293,1.83826 0.91349,-0.29885 0.71422,-1.92697 -0.31293,-1.83826 z"
         id="path42930"
         transform="translate(44.410074,19.308729)" />
      <path
         style="fill:#0000ff;fill-opacity:1;stroke:none;stroke-width:0.0998993;stroke-miterlimit:4;stroke-dasharray:none;stroke-opacity:1"
         d="m 178.6469,464.15449 c -1.11545,4.4e-4 -1.8527,1.22608 -1.47215,2.24278 0.0367,0.5514 0.46482,0.95119 0.63711,1.42765 0.19075,1.47004 0.76301,2.89837 1.23113,4.271 -0.0365,0.76288 0.42416,1.39585 0.67319,2.06452 0.004,0.89928 0.41619,1.71006 0.61814,2.55384 0.0767,0.58246 0.42798,1.07033 0.40077,1.6757 0.078,0.53062 0.51702,0.97333 0.89547,1.23441 -0.36811,0.67127 -0.22711,1.46352 0.22393,2.05094 0.0985,1.02266 0.44184,2.06268 0.99548,2.90894 0.4035,2.0314 1.48177,3.85948 2.30411,5.74333 3.41767,6.9455 6.93805,13.84379 10.64264,20.6411 2.28153,4.01504 4.60544,8.04497 7.49287,11.66057 0.93273,1.0649 3.0722,0.41478 2.99279,-1.08473 -0.34073,-1.50227 -1.51171,-2.64476 -2.2962,-3.93026 -0.0869,-0.41022 -1.04834,-0.94001 -0.60993,-1.2758 0.75872,-0.78945 0.73599,-2.30385 -0.0686,-3.05322 -0.60984,-0.48264 -1.51512,-0.56739 -2.20272,-0.20308 -3.72814,-6.4048 -7.02073,-13.08903 -10.47477,-19.66972 -1.62486,-3.3595 -3.25234,-6.73651 -4.71358,-10.14318 -0.0489,-0.48198 -0.30426,-1.00874 -0.37173,-1.42343 1.1074,-0.18165 1.55749,-1.39245 1.45997,-2.39386 0.13773,-1.76619 -1.05204,-3.37198 -2.55524,-4.16887 -0.42375,-0.24039 -1.1407,-0.13497 -1.14329,-0.76383 -0.32029,-0.74435 -0.48308,-1.51563 -0.59355,-2.31422 -0.13863,-0.62065 -0.59784,-1.09529 -0.55396,-1.75979 -0.27024,-1.2835 -0.68507,-2.568 -1.28991,-3.71751 0.0655,-1.20541 -0.90302,-2.65481 -2.22194,-2.57328 z"
         id="path42969"
         transform="translate(44.410074,19.308729)" />
      <path
         style="fill:#0000ff;fill-opacity:1;stroke:none;stroke-width:0.0998993;stroke-miterlimit:4;stroke-dasharray:none;stroke-opacity:1"
         d="m 183.89208,473.67371 c -0.7642,-0.0607 -1.09953,0.81217 -0.79803,1.42109 0.16466,0.94141 1.93759,1.13704 1.97341,0.0122 0.17175,-0.79937 -0.26265,-1.57599 -1.17538,-1.43327 z"
         id="path43008"
         transform="translate(44.410074,19.308729)" />
      <path
         style="fill:none;stroke:#000000;stroke-width:1px;stroke-linecap:butt;stroke-linejoin:miter;stroke-opacity:1"
         d="m 230.92016,450.50622 c 5.07608,0.49498 10.17804,0.72448 15.27806,0.68724 4.08,-0.0298 8.16007,-0.23011 12.23866,-0.11899 7.06145,0.19239 14.09674,1.3235 20.86263,3.35421"
         id="path43080"
         inkscape:path-effect="#path-effect43082"
         inkscape:original-d="m 230.92016,450.50622 c 5.09369,0.23008 10.18638,0.45916 15.27806,0.68724 5.09169,0.22808 8.16011,-0.0783 12.23866,-0.11899 4.07855,-0.0407 13.90942,2.23714 20.86263,3.35421" />
      <path
         style="fill:#0000ff;fill-opacity:1;stroke:none;stroke-width:0.0998993;stroke-miterlimit:4;stroke-dasharray:none;stroke-opacity:1"
         d="m 186.76705,430.10222 c -0.95187,0.0191 -1.11964,1.38407 -0.72963,1.99117 0.73904,0.50629 1.76612,0.26178 2.62886,0.43835 6.50012,0.58643 13.03574,0.3066 19.5525,0.39427 4.67396,0.0211 9.38724,-0.0749 14.00952,0.65675 3.60416,0.45626 7.12426,1.23604 10.63831,2.0963 0.71732,0.27281 1.58622,-0.29862 1.36511,-1.1044 -0.0535,-1.18856 -1.49347,-1.18362 -2.34116,-1.46489 -6.93294,-1.70231 -14.07199,-2.635 -21.21796,-2.46926 -7.98102,0.0525 -15.99263,0.24593 -23.90555,-0.53829 z"
         id="path43121"
         transform="translate(44.410074,19.308729)" />
      <path
         style="fill:#0000ff;fill-opacity:1;stroke:none;stroke-width:0.0998993;stroke-miterlimit:4;stroke-dasharray:none;stroke-opacity:1"
         d="m 234.92926,434.45801 c -0.56389,0.0471 -0.71928,0.65899 -1.04959,1.00697 -0.33055,0.87252 0.75006,1.254 1.42835,1.09901 1.44343,-0.15158 0.9326,-2.27012 -0.37876,-2.10598 z"
         id="path43160"
         transform="translate(44.410074,19.308729)" />
      <path
         style="fill:#0000ff;fill-opacity:1;stroke:none;stroke-width:0.0998993;stroke-miterlimit:4;stroke-dasharray:none;stroke-opacity:1"
         d="m 234.99297,433.84385 c -0.61561,-0.0552 -0.93245,0.567 -1.50307,0.57715 -0.97902,0.55566 -0.40931,2.06468 0.3729,2.54822 1.11225,0.74557 3.07582,0.11342 2.99186,-1.38947 -0.0473,-0.94533 -0.90545,-1.77346 -1.86169,-1.7359 z"
         id="path43199"
         transform="translate(44.410074,19.308729)" />
      <path
         style="fill:#0000ff;fill-opacity:1;stroke:none;stroke-width:0.0998993;stroke-miterlimit:4;stroke-dasharray:none;stroke-opacity:1"
         d="m 227.20123,433.79279 c -0.93388,-0.0498 -1.0935,1.37411 -0.22135,1.60918 0.65982,0.25439 1.86149,0.0807 1.67382,-0.86971 -0.17401,-0.59826 -0.92087,-0.71945 -1.45247,-0.73947 z"
         id="path43275"
         transform="translate(44.410074,19.308729)" />
      <path
         style="fill:#0000ff;fill-opacity:1;stroke:none;stroke-width:0.0998993;stroke-miterlimit:4;stroke-dasharray:none;stroke-opacity:1"
         d="m 194.82325,432.40191 c -0.57805,0.65371 -0.41225,1.89864 0.50688,2.16385 1.16626,0.45635 2.54203,1.35386 3.78754,0.65397 0.66551,-0.39754 0.62704,-1.25217 1.00649,-1.85582 0.29455,-0.77776 -0.63274,-1.17239 -1.27047,-1.04679 -1.31063,0.0328 -2.66489,-0.18479 -3.94655,0.0575 z"
         id="path43466"
         transform="translate(44.410074,19.308729)" />
      <path
         style="fill:#0000ff;fill-opacity:1;stroke:none;stroke-width:0.0998993;stroke-miterlimit:4;stroke-dasharray:none;stroke-opacity:1"
         d="m 193.45697,432.41831 c -0.91303,0.006 -1.00984,1.28486 -0.27874,1.66141 0.52437,0.45762 1.6397,0.71537 1.84294,-0.19839 0.17489,-0.83914 -0.85401,-1.43694 -1.5642,-1.46302 z"
         id="path43505"
         transform="translate(44.410074,19.308729)" />
    </g>
  </g>
</svg>
